<svg xmlns="http://www.w3.org/2000/svg" xmlns:xlink="http://www.w3.org/1999/xlink" viewBox="0 0 250.46 242.66"><defs><style>.cls-1{opacity:0.37;}.cls-2{fill:#cac7e1;}.cls-3{fill:#00ecff;}.cls-4{fill:none;stroke:#00c98d;stroke-miterlimit:10;}.cls-5{fill:#00768d;}.cls-6{fill:#00c98d;}.cls-7{fill:#fff;}.cls-8{fill:#00868d;}.cls-9{fill:#32b1a5;}.cls-10{fill:#c7cbca;}.cls-11{fill:#a194ef;}.cls-12{fill:#eebcc5;}.cls-13{fill:#3e3577;}.cls-14{fill:#d98e9d;}.cls-15{fill:url(#Degradado_sin_nombre_10);}.cls-16{fill:#3e3578;}</style><linearGradient id="Degradado_sin_nombre_10" x1="48.38" y1="212.1" x2="10.82" y2="212.98" gradientUnits="userSpaceOnUse"><stop offset="0" stop-color="#484ec2" stop-opacity="0"/><stop offset="1" stop-color="#444bcc" stop-opacity="0.5"/></linearGradient></defs><title>aplicar</title><g id="Capa_2" data-name="Capa 2"><g id="Capa_1-2" data-name="Capa 1"><g id="Grupo_454" data-name="Grupo 454"><g id="Grupo_407" data-name="Grupo 407" class="cls-1"><ellipse id="Elipse_145" data-name="Elipse 145" class="cls-2" cx="49.88" cy="235.23" rx="34.25" ry="5.06"/></g><path id="Trazado_455" data-name="Trazado 455" class="cls-3" d="M8,114c.15,2,6.72,73.38,62.65,80.37,43,5.37,111.72-3.28,142-36.82s40.43-73.85,37.21-102S228.44,8.88,195.37,17.08s-58.9,32-81.43,40.35C93.51,65,51,47.71,30.62,63.88,17.48,74.33,6.1,88.65,8,114Z"/><ellipse id="Elipse_147" data-name="Elipse 147" class="cls-4" cx="6.35" cy="42.71" rx="5.85" ry="5.88"/><g id="Grupo_410" data-name="Grupo 410"><rect id="Rectángulo_252" data-name="Rectángulo 252" class="cls-5" x="227.96" y="104.4" width="2.42" height="12.98" rx="0.58"/><rect id="Rectángulo_253" data-name="Rectángulo 253" class="cls-5" x="223.12" y="110.08" width="12.9" height="2.43" rx="0.58"/></g><g id="Grupo_411" data-name="Grupo 411"><rect id="Rectángulo_254" data-name="Rectángulo 254" class="cls-5" x="27.91" width="2.42" height="12.98" rx="0.58"/><rect id="Rectángulo_255" data-name="Rectángulo 255" class="cls-5" x="23.07" y="5.68" width="12.9" height="2.43" rx="0.58"/></g><ellipse id="Elipse_149" data-name="Elipse 149" class="cls-6" cx="5.73" cy="170.77" rx="2.02" ry="2.03"/><ellipse id="Elipse_150" data-name="Elipse 150" class="cls-6" cx="240.14" cy="131.9" rx="2.02" ry="2.03"/><path class="cls-6" d="M207.36,22.52H72.8A6.43,6.43,0,0,0,66.37,29V220.36a6.42,6.42,0,0,0,6.43,6.42H207.36a6.42,6.42,0,0,0,6.43-6.42V29A6.43,6.43,0,0,0,207.36,22.52Z"/><rect class="cls-7" x="78.35" y="33.94" width="123.48" height="182.14"/><rect class="cls-7" x="78.35" y="30.22" width="123.48" height="182.14"/><path class="cls-8" d="M97.44,30.22A9.6,9.6,0,0,0,107,39.65h66.1a9.6,9.6,0,0,0,9.59-9.43Z"/><path class="cls-9" d="M180.67,18a6.72,6.72,0,0,0-6.55-5.21H152.07a12,12,0,1,0-24,0H106A6.72,6.72,0,0,0,99.49,18l-1.8,7.79A9.59,9.59,0,0,0,107,37.54h66.1a9.6,9.6,0,0,0,9.35-11.76Zm-39.46.44a5.77,5.77,0,1,1,4.53-4.53A5.77,5.77,0,0,1,141.21,18.43Z"/><path class="cls-10" d="M118.19,79.4H87.7V48.91h30.49Zm-28-2.47h25.54V51.39H90.18V76.93Z"/><rect class="cls-10" x="125.45" y="52.15" width="33.93" height="5.31"/><rect class="cls-10" x="125.45" y="63.47" width="67.86" height="5.31"/><rect class="cls-10" x="125.45" y="74.03" width="67.86" height="5.31"/><polygon class="cls-6" points="120.95 46.18 103.68 63.72 98.56 59.2 94.62 63.66 103.96 71.9 125.19 50.37 120.95 46.18"/><path class="cls-10" d="M118.19,119.87H87.7V89.38h30.49Zm-28-2.47h25.54V91.86H90.18V117.4Z"/><rect class="cls-10" x="125.45" y="92.62" width="33.93" height="5.31"/><rect class="cls-10" x="125.45" y="103.94" width="67.86" height="5.31"/><rect class="cls-10" x="125.45" y="114.5" width="67.86" height="5.31"/><polygon class="cls-6" points="120.95 86.18 103.68 103.72 98.56 99.2 94.62 103.66 103.96 111.9 125.19 90.36 120.95 86.18"/><path class="cls-10" d="M118.19,160.34H87.7V129.85h30.49Zm-28-2.47h25.54V132.33H90.18v25.54Z"/><rect class="cls-10" x="125.45" y="133.09" width="33.93" height="5.31"/><rect class="cls-10" x="125.45" y="144.41" width="67.86" height="5.31"/><rect class="cls-10" x="125.45" y="154.97" width="67.86" height="5.31"/><polygon class="cls-6" points="120.95 127.12 103.68 144.66 98.56 140.14 94.62 144.6 103.96 152.84 125.19 131.3 120.95 127.12"/><path class="cls-10" d="M118.19,201.52H87.7V171h30.49Zm-28-2.48h25.54V173.5H90.18V199Z"/><rect class="cls-10" x="125.45" y="174.26" width="33.93" height="5.31"/><rect class="cls-10" x="125.45" y="185.58" width="67.86" height="5.31"/><rect class="cls-10" x="125.45" y="196.14" width="67.86" height="5.31"/><polygon class="cls-6" points="120.95 168.29 103.68 185.83 98.56 181.31 94.62 185.78 103.96 194.01 125.19 172.48 120.95 168.29"/><path class="cls-11" d="M43.09,170.69H66.43a4.09,4.09,0,0,1,4.09,4.09v31.4a0,0,0,0,1,0,0H39a0,0,0,0,1,0,0v-31.4A4.09,4.09,0,0,1,43.09,170.69Z" transform="translate(-1.43 0.42) rotate(-0.44)"/><path class="cls-12" d="M54.42,177.46h0a3.84,3.84,0,0,1-3.87-3.81L50.46,162a.51.51,0,0,1,.51-.52l6.65-.05a.51.51,0,0,1,.52.51l.09,11.66A3.85,3.85,0,0,1,54.42,177.46Z"/><path class="cls-13" d="M67.76,159.3c0-.13,0-.26,0-.39a13.81,13.81,0,0,0-.42-3.36v-1.48a13.35,13.35,0,0,0-13.3-13.31h0a13.34,13.34,0,0,0-13.3,13.31v5.23Z"/><path class="cls-12" d="M66.33,155.59v-1.28A12.3,12.3,0,0,0,54.06,142h0A12.3,12.3,0,0,0,41.8,154.31v5a4.6,4.6,0,0,0,.11,1,12.46,12.46,0,0,0,24.81-1.64A12.17,12.17,0,0,0,66.33,155.59Z"/><circle class="cls-13" cx="49.35" cy="160.88" r="0.94"/><path class="cls-13" d="M59.26,160.88a.95.95,0,1,1-.95-.94A.95.95,0,0,1,59.26,160.88Z"/><path class="cls-12" d="M45.33,160.44A3.47,3.47,0,1,1,41.86,157,3.47,3.47,0,0,1,45.33,160.44Z"/><path class="cls-12" d="M69.8,160.44A3.47,3.47,0,1,1,66.33,157,3.47,3.47,0,0,1,69.8,160.44Z"/><path class="cls-14" d="M41.78,158.16a2.28,2.28,0,0,0,0,4.55Z"/><path class="cls-14" d="M66.1,158.16a2.28,2.28,0,0,1,0,4.55Z"/><path class="cls-13" d="M62.68,155.59c.33,1.06.81,2.27,1.88,2.56a3,3,0,0,0,2.43-.71,1.78,1.78,0,0,0,.87-1.08,1.9,1.9,0,0,0-.33-1.14A19.93,19.93,0,0,0,65,151.33c-.91-1-2.56-2.7-3.53-.94C60.81,151.6,62.31,154.4,62.68,155.59Z"/><path class="cls-13" d="M64,147.73a16.15,16.15,0,0,0-9.68-3.22l.14-2.19c-3.6,0-7.09,3.38-9.79,5.38,2.36,2.69,5.82,5.22,9.68,5.22S61.61,150.4,64,147.73Z"/><path class="cls-11" d="M20.55,197.47a3,3,0,0,1-.4-2.35c1.78-7.09,15.58-21.51,16.14-22.21.84-1,5.18-2,5.18-2l.5,11.46-12.58,11.2a2.93,2.93,0,0,0-.4,3.18L40.85,215l-3.54,2.72Z"/><path class="cls-11" d="M89.83,198.12A3.1,3.1,0,0,0,90.2,196c-1.39-6.94-16.74-22.38-17.31-23.09-.84-1-5.17-2-5.17-2l-.5,11.46,13.85,11.91a3.16,3.16,0,0,1,.41,3.07L67.64,215.77l4.22,1.49Z"/><path class="cls-13" d="M45.55,155.59c-.33,1.06-.81,2.27-1.87,2.56a3,3,0,0,1-2.43-.71,1.78,1.78,0,0,1-.87-1.08,1.89,1.89,0,0,1,.32-1.14,20.45,20.45,0,0,1,2.53-3.89c.91-1,2.56-2.7,3.53-.94C47.43,151.6,45.93,154.4,45.55,155.59Z"/><path class="cls-12" d="M41.33,217.6a4,4,0,1,1-4-4A4,4,0,0,1,41.33,217.6Z"/><path class="cls-13" d="M46.75,216.53a266.39,266.39,0,0,0-35.37-2.08c-2.85,0-6.31.49-7.4,3.12-1.2,2.87,1.47,5.84,4.07,7.55,12.42,8.17,28.21,8.56,43.07,8.68a48.35,48.35,0,0,0,1.53-7.9c-.95-1.19,4.28-4.47,3.32-5.66C54.57,218.5,46.47,218.75,46.75,216.53Z"/><path class="cls-13" d="M57.15,216.53a266.54,266.54,0,0,1,35.38-2.08c2.84,0,6.3.49,7.4,3.12,1.19,2.87-1.48,5.84-4.08,7.55-12.41,8.17-28.21,8.56-43.07,8.68a48.35,48.35,0,0,1-1.53-7.9c1-1.19,1.8-2.33,2.75-3.52C55.4,220.64,57.44,218.75,57.15,216.53Z"/><circle class="cls-12" cx="72.19" cy="218.08" r="3.99"/><path class="cls-13" d="M47.9,229.42l7.09.23s10.73,8.74,10.62,11.57-4.89.93-6.92-1-6.34-5.7-6.34-5.7l-4.91-1.91Z"/><path class="cls-13" d="M58.46,229.76l-7.08-.58s-11.66,7.46-11.87,10.29,4.75,1.48,7-.18,7-4.95,7-4.95L58.54,233Z"/><path class="cls-7" d="M36.87,222.3H73.14A3,3,0,0,0,76,220l3.06-13.11A4.11,4.11,0,0,0,75,202.05l-41.54.32a4.13,4.13,0,0,0-4,4.91l4.64,13.05A3,3,0,0,0,36.87,222.3Z"/><path class="cls-15" d="M59.06,202.17l-25.6.2a4.13,4.13,0,0,0-4,4.91l4.64,13.05a3,3,0,0,0,2.79,2h6.51Z"/><path class="cls-16" d="M57.49,213.88a3.67,3.67,0,1,1-3.65-3.37A3.52,3.52,0,0,1,57.49,213.88Z"/><path class="cls-13" d="M56.68,147.36a5.05,5.05,0,0,1,1.2.37,8.16,8.16,0,0,1,2.2,1.82,63.89,63.89,0,0,0,5.55,4.84.73.73,0,0,0,.45.21.55.55,0,0,0,.27-.12c.67-.48.56-1.49.38-2.29-.51-2.23-1.07-4.56-2.62-6.24a13,13,0,0,0-1.88-1.58,15.26,15.26,0,0,0-4.37-2.55,12.8,12.8,0,0,0-2.39-.47,10.63,10.63,0,0,0-3.69,0,10.92,10.92,0,0,0-1.47.47,17.42,17.42,0,0,0-4.61,2.34c-3,2.32-4.38,6.29-4.24,10.07,0,.52.23,1.19.75,1.19a1.05,1.05,0,0,0,.66-.4c1.49-1.58,2.17-3.56,3.81-5a11.94,11.94,0,0,1,6.11-2.81A11.29,11.29,0,0,1,56.68,147.36Z"/><rect class="cls-13" x="58.44" y="184.11" width="8.62" height="0.95"/></g></g></g></svg>