<svg xmlns="http://www.w3.org/2000/svg" xmlns:xlink="http://www.w3.org/1999/xlink" viewBox="0 0 1081 2200"><defs><style>.cls-1{fill:url(#Degradado_sin_nombre_49);}.cls-2{fill:#e5e5e5;}.cls-3{fill:url(#Degradado_sin_nombre_2);}.cls-4{mask:url(#mask);}.cls-5{opacity:0.6;}.cls-6{fill:#00868d;}.cls-7{fill:#bdb652;}.cls-8{fill:#00c98d;}.cls-9{fill:#00768d;}</style><linearGradient id="Degradado_sin_nombre_49" x1="-3.28" y1="1117.99" x2="571.82" y2="1765.89" gradientUnits="userSpaceOnUse"><stop offset="0" stop-color="#fff"/><stop offset="1"/></linearGradient><linearGradient id="Degradado_sin_nombre_2" x1="21.88" y1="2139.79" x2="839.85" y2="1675.26" gradientUnits="userSpaceOnUse"><stop offset="0" stop-color="#00868d"/><stop offset="0.09" stop-color="#00938d"/><stop offset="0.28" stop-color="#00ab8d"/><stop offset="0.49" stop-color="#00bb8d"/><stop offset="0.71" stop-color="#00c58d"/><stop offset="1" stop-color="#00c98d"/></linearGradient><mask id="mask" x="0" y="1418.3" width="1090.21" height="778.7" maskUnits="userSpaceOnUse"><path class="cls-1" d="M4.4,1477.74s273.26-93,664.54-46.35c399.47,47.63,421.27-8.86,421.27-8.86v626.83H.27Z"/></mask></defs><title>background-section-phone-m_1</title><g id="Capa_2" data-name="Capa 2"><g id="Capa_1-2" data-name="Capa 1"><rect class="cls-2" x="1" width="1080" height="1694"/><path class="cls-3" d="M1.09,1489.91c34.55-13.61,296-109.69,659.42-55.88,398.73,59,420.49-11,420.49-11v777H1"/><g class="cls-4"><g class="cls-5"><g id="Grupo_185" data-name="Grupo 185"><path id="Trazado_199" data-name="Trazado 199" class="cls-6" d="M328.22,1420.4v62.71c41.77,0,75.61-27.54,75.61-61.49,0-.41,0-.81,0-1.22Z"/><path id="Trazado_200" data-name="Trazado 200" class="cls-7" d="M329.21,1556.37l159.61-134.78v134.78Z"/><path id="Trazado_201" data-name="Trazado 201" class="cls-8" d="M421.65,1691c0,.57,0,1.13,0,1.7H489c-1.42-72.89-72-132.12-160.74-136.24v55.13C376.28,1613.38,421.65,1651.43,421.65,1691Z"/><path id="Rectángulo_153" data-name="Rectángulo 153" class="cls-6" d="M612.16,1507h44.27v48.82H598.66V1518c0-6,6.05-11,13.5-11Z"/><path id="Rectángulo_154" data-name="Rectángulo 154" class="cls-6" d="M590,1510.41H488.82v-89.63H603.49v78.66c0,6.06-6,11-13.49,11Z"/><path id="Trazado_202" data-name="Trazado 202" class="cls-9" d="M592.8,1580.53c-29.13,1.65-51.74,21.32-51.79,45H592.8Z"/><path id="Trazado_203" data-name="Trazado 203" class="cls-6" d="M599.88,1510.41l-89.12,62.79v-62.79"/><path id="Trazado_204" data-name="Trazado 204" class="cls-6" d="M610.05,1621.72l-34.45,35.11v-31.25"/><path id="Rectángulo_155" data-name="Rectángulo 155" class="cls-6" d="M615.87,1805.18H514.7V1692.3H629.37v101.91c0,6.06-6,11-13.5,11Z"/><path id="Trazado_205" data-name="Trazado 205" class="cls-7" d="M279.75,1718.56H394.42v75.65c0,6.06-6,11-13.5,11H245.44Z"/><path id="Trazado_206" data-name="Trazado 206" class="cls-6" d="M590.72,1805.18l-50.45,38.33v-38.33"/><path id="Trazado_207" data-name="Trazado 207" class="cls-6" d="M378.67,1556.33l-50.45,38.33v-38.33"/><path id="Trazado_208" data-name="Trazado 208" class="cls-6" d="M614.18,1507c.76,0,33.85-38.32,33.85-38.32V1507"/></g><g id="Grupo_186" data-name="Grupo 186"><rect id="Rectángulo_156" data-name="Rectángulo 156" class="cls-9" x="168.6" y="1491.1" width="159.62" height="134.78"/><path id="Trazado_209" data-name="Trazado 209" class="cls-6" d="M179.31,1761.08h99.5c0-43.77-43.7-79.24-97.56-79.24-.65,0-1.29,0-1.94,0Z"/><path id="Trazado_210" data-name="Trazado 210" class="cls-7" d="M327.23,1625.89,167.61,1760.67V1625.89Z"/><rect id="Rectángulo_157" data-name="Rectángulo 157" class="cls-6" x="1.64" y="1489.4" width="165.84" height="136.24"/><path id="Trazado_211" data-name="Trazado 211" class="cls-7" d="M167.47,1625.64,1.64,1489.4H167.47Z"/><path id="Trazado_212" data-name="Trazado 212" class="cls-8" d="M234.78,1491.1c0-.57,0-1.13.05-1.7H167.47c1.42,72.89,72,132.12,160.75,136.24v-55.13C280.16,1568.68,234.78,1530.62,234.78,1491.1Z"/><path id="Trazado_213" data-name="Trazado 213" class="cls-6" d="M506.72,1693.77c0,.29,0,.58,0,.87H541c-.73-37-36.44-67.26-81.88-69.4v28.08C483.61,1654.26,506.72,1673.64,506.72,1693.77Z"/><path id="Rectángulo_158" data-name="Rectángulo 158" class="cls-6" d="M44.27,1674.45H0v-48.81H57.77v37.84c0,6.06-6,11-13.5,11Z"/><path id="Rectángulo_159" data-name="Rectángulo 159" class="cls-6" d="M66.44,1671H167.61v89.63H52.94V1682c0-6.06,6-11,13.5-11Z"/><ellipse id="Elipse_95" data-name="Elipse 95" class="cls-7" cx="266.2" cy="1541.46" rx="39.83" ry="32.38"/><ellipse id="Elipse_96" data-name="Elipse 96" class="cls-7" cx="408.56" cy="1848.53" rx="39.83" ry="32.38"/><ellipse id="Elipse_97" data-name="Elipse 97" class="cls-8" cx="84.56" cy="1557.52" rx="55.67" ry="45.25"/><path id="Trazado_214" data-name="Trazado 214" class="cls-6" d="M91.59,1671,142,1632.71V1671"/><path id="Trazado_215" data-name="Trazado 215" class="cls-6" d="M42.26,1674.45c-.77,0-33.86,38.33-33.86,38.33v-38.33"/></g><g id="Grupo_187" data-name="Grupo 187"><rect id="Rectángulo_160" data-name="Rectángulo 160" class="cls-9" x="4.49" y="1826.83" width="159.62" height="134.78"/><path id="Trazado_216" data-name="Trazado 216" class="cls-6" d="M4.49,1691.67v62.71c41.77,0,75.61-27.54,75.62-61.49,0-.41,0-.81,0-1.22Z"/><path id="Trazado_217" data-name="Trazado 217" class="cls-7" d="M5.48,1826.83,165.1,1692.05v134.78Z"/><rect id="Rectángulo_161" data-name="Rectángulo 161" class="cls-6" x="165.23" y="1827.08" width="165.84" height="136.24"/><path id="Trazado_218" data-name="Trazado 218" class="cls-7" d="M165.23,1827.08l165.84,136.24H165.23Z"/><path id="Trazado_219" data-name="Trazado 219" class="cls-8" d="M97.93,1961.61c0,.57,0,1.14-.05,1.71h67.35c-1.41-72.9-72-132.13-160.74-136.24v55.12C52.55,1884,97.93,1922.1,97.93,1961.61Z"/><path id="Trazado_220" data-name="Trazado 220" class="cls-6" d="M278.93,1790.91v-98.86l-57.31,52.46-30.87,46.4Z"/><ellipse id="Elipse_98" data-name="Elipse 98" class="cls-7" cx="66.51" cy="1911.26" rx="39.83" ry="32.38"/><ellipse id="Elipse_99" data-name="Elipse 99" class="cls-8" cx="248.15" cy="1895.2" rx="55.67" ry="45.25"/><path id="Trazado_221" data-name="Trazado 221" class="cls-6" d="M241.12,1781.68,190.67,1820v-38.33"/></g><g id="Grupo_188" data-name="Grupo 188"><path id="Trazado_222" data-name="Trazado 222" class="cls-6" d="M658.07,1964.4v-62.72c-41.77,0-75.61,27.55-75.61,61.5,0,.41,0,.81,0,1.22Z"/><path id="Trazado_223" data-name="Trazado 223" class="cls-7" d="M657.08,1829.24,497.47,1964V1829.24Z"/><path id="Trazado_224" data-name="Trazado 224" class="cls-7" d="M473.63,1829,331.07,1949.37V1829Z"/><path id="Trazado_225" data-name="Trazado 225" class="cls-8" d="M564.64,1693.76c0-.58,0-1.14.05-1.71H497.33c1.42,72.89,72,132.13,160.74,136.24v-55.13C610,1771.33,564.64,1733.27,564.64,1693.76Z"/><path id="Rectángulo_162" data-name="Rectángulo 162" class="cls-6" d="M390.18,1869.61H497.47V1964H376.68v-83.44c0-6.06,6-11,13.5-11Z"/><ellipse id="Elipse_100" data-name="Elipse 100" class="cls-8" cx="414.41" cy="1760.87" rx="55.67" ry="45.25"/><path id="Trazado_226" data-name="Trazado 226" class="cls-6" d="M417.39,1869.61l53.14-40.37v40.37"/></g><g id="Grupo_187-2" data-name="Grupo 187"><rect id="Rectángulo_160-2" data-name="Rectángulo 160" class="cls-9" x="656.42" y="1693.18" width="159.62" height="134.78"/><path id="Trazado_216-2" data-name="Trazado 216" class="cls-6" d="M656.42,1558v62.72c41.77,0,75.61-27.55,75.62-61.5,0-.41,0-.81,0-1.22Z"/><path id="Trazado_217-2" data-name="Trazado 217" class="cls-7" d="M657.41,1693.18,817,1558.4v134.78Z"/><rect id="Rectángulo_161-2" data-name="Rectángulo 161" class="cls-6" x="817.16" y="1693.43" width="165.84" height="136.24"/><path id="Trazado_218-2" data-name="Trazado 218" class="cls-7" d="M817.16,1693.43,983,1829.67H817.16Z"/><path id="Trazado_219-2" data-name="Trazado 219" class="cls-8" d="M749.86,1828c0,.57,0,1.13-.05,1.7h67.35c-1.41-72.89-72-132.12-160.74-136.24v55.13C704.48,1750.39,749.86,1788.45,749.86,1828Z"/><path id="Trazado_220-2" data-name="Trazado 220" class="cls-6" d="M930.86,1657.27V1558.4l-57.31,52.46-30.87,46.41Z"/><ellipse id="Elipse_98-2" data-name="Elipse 98" class="cls-7" cx="718.44" cy="1777.61" rx="39.83" ry="32.38"/><ellipse id="Elipse_99-2" data-name="Elipse 99" class="cls-8" cx="900.08" cy="1761.55" rx="55.67" ry="45.25"/><path id="Trazado_221-2" data-name="Trazado 221" class="cls-6" d="M893.05,1648l-50.45,38.33V1648"/></g><g id="Grupo_185-2" data-name="Grupo 185"><path id="Trazado_199-2" data-name="Trazado 199" class="cls-6" d="M334.17,1960.13v62.72c41.77,0,75.62-27.55,75.62-61.5,0-.41,0-.81,0-1.22Z"/><path id="Trazado_200-2" data-name="Trazado 200" class="cls-7" d="M335.16,2096.11l159.62-134.78v134.78Z"/><path id="Rectángulo_153-2" data-name="Rectángulo 153" class="cls-6" d="M618.12,2046.73h44.27v48.81H604.62V2057.7c0-6.06,6-11,13.5-11Z"/><path id="Rectángulo_154-2" data-name="Rectángulo 154" class="cls-6" d="M596,2050.14H494.78v-89.63H609.45v78.66c0,6.06-6,11-13.5,11Z"/><path id="Trazado_202-2" data-name="Trazado 202" class="cls-9" d="M598.76,2120.26c-29.13,1.65-51.74,21.32-51.79,45.06h51.79Z"/><path id="Trazado_203-2" data-name="Trazado 203" class="cls-6" d="M605.83,2050.14l-89.11,62.79v-62.79"/><path id="Trazado_204-2" data-name="Trazado 204" class="cls-6" d="M616,2161.45l-34.46,35.11v-31.24"/><path id="Trazado_207-2" data-name="Trazado 207" class="cls-6" d="M384.63,2096.06l-50.45,38.34v-38.34"/><path id="Trazado_208-2" data-name="Trazado 208" class="cls-6" d="M620.13,2046.73c.77,0,33.86-38.33,33.86-38.33v38.33"/></g><g id="Grupo_186-2" data-name="Grupo 186"><rect id="Rectángulo_156-2" data-name="Rectángulo 156" class="cls-9" x="174.56" y="1961.84" width="159.62" height="134.78"/><rect id="Rectángulo_157-2" data-name="Rectángulo 157" class="cls-6" x="7.59" y="1960.13" width="165.84" height="136.24"/><path id="Trazado_211-2" data-name="Trazado 211" class="cls-7" d="M173.43,2096.37,7.6,1960.13H173.43Z"/><path id="Trazado_212-2" data-name="Trazado 212" class="cls-8" d="M240.74,1961.84c0-.57,0-1.14,0-1.71H173.43c1.42,72.9,72,132.13,160.74,136.24v-55.12C286.11,2039.41,240.74,2001.35,240.74,1961.84Z"/><path id="Trazado_213-2" data-name="Trazado 213" class="cls-6" d="M512.68,2164.51c0,.29,0,.58,0,.87H547c-.73-37-36.45-67.27-81.89-69.41v28.08C489.56,2125,512.68,2144.38,512.68,2164.51Z"/><path id="Rectángulo_158-2" data-name="Rectángulo 158" class="cls-6" d="M50.23,2145.19H6v-48.82H63.73v37.85c0,6.05-6,11-13.5,11Z"/><ellipse id="Elipse_95-2" data-name="Elipse 95" class="cls-7" cx="272.16" cy="2012.19" rx="39.83" ry="32.38"/><ellipse id="Elipse_97-2" data-name="Elipse 97" class="cls-8" cx="90.51" cy="2028.25" rx="55.67" ry="45.25"/><path id="Trazado_214-2" data-name="Trazado 214" class="cls-6" d="M97.54,2141.77,148,2103.44v38.33"/><path id="Trazado_215-2" data-name="Trazado 215" class="cls-6" d="M48.21,2145.19c-.76,0-33.85,38.32-33.85,38.32v-38.32"/></g><g id="Grupo_187-3" data-name="Grupo 187"><path id="Trazado_216-3" data-name="Trazado 216" class="cls-6" d="M662.38,2097.75v62.72c41.77,0,75.61-27.55,75.61-61.49,0-.41,0-.82,0-1.23Z"/><path id="Trazado_220-3" data-name="Trazado 220" class="cls-6" d="M936.81,2197v-98.86l-57.31,52.45L848.63,2197Z"/></g></g></g></g></g></svg>