<svg xmlns="http://www.w3.org/2000/svg" xmlns:xlink="http://www.w3.org/1999/xlink" viewBox="0 0 1280.01 987"><defs><style>.cls-1{opacity:0.25;fill:url(#Degradado_sin_nombre_43);}.cls-2{fill:#F4F4F4;}.cls-3{fill:url(#Degradado_sin_nombre_2);}.cls-4{mask:url(#mask);}.cls-5{fill:#00868d;}.cls-6{fill:#bdb652;}.cls-7{fill:#00c98d;}.cls-8{fill:#00768d;}</style><linearGradient id="Degradado_sin_nombre_43" x1="84.18" y1="933.17" x2="825.66" y2="747.43" gradientUnits="userSpaceOnUse"><stop offset="0" stop-color="#fff"/><stop offset="1"/></linearGradient><linearGradient id="Degradado_sin_nombre_2" x1="120.77" y1="1102.78" x2="937.93" y2="638.72" gradientUnits="userSpaceOnUse"><stop offset="0" stop-color="#00868d"/><stop offset="0.09" stop-color="#00938d"/><stop offset="0.28" stop-color="#00ab8d"/><stop offset="0.49" stop-color="#00bb8d"/><stop offset="0.71" stop-color="#00c58d"/><stop offset="1" stop-color="#00c98d"/></linearGradient><mask id="mask" x="-11.03" y="561" width="1291.04" height="426" maskUnits="userSpaceOnUse"><path class="cls-1" d="M-6.91,631s272.64-104.54,663-52.1c398.54,53.53,623.9-10,623.9-10V962.46H-11Z"/></mask></defs><title>fondo-section-2</title><g id="Capa_2" data-name="Capa 2"><g id="Capa_1-2" data-name="Capa 1"><rect class="cls-2" x="0.01" width="1280" height="784"/><path class="cls-3" d="M.07,628.77c44.85-16.74,302-104.19,656-53.19C1054.65,633,1280,564.89,1280,564.89V987H0"/><g class="cls-4"><g id="Grupo_188" data-name="Grupo 188"><path id="Trazado_222" data-name="Trazado 222" class="cls-5" d="M884.65,882.34V833.23c-28.19,0-51,21.57-51,48.15,0,.33,0,.64,0,1Z"/><path id="Trazado_223" data-name="Trazado 223" class="cls-6" d="M884,776.5,776.28,882V776.5Z"/><path id="Trazado_224" data-name="Trazado 224" class="cls-6" d="M760.2,776.3,664,870.57V776.3Z"/><path id="Trazado_225" data-name="Trazado 225" class="cls-7" d="M821.6,670.41c0-.45,0-.9,0-1.34H776.19c.95,57.08,48.56,103.47,108.46,106.69V732.59C852.22,731.15,821.6,701.35,821.6,670.41Z"/><path id="Rectángulo_162" data-name="Rectángulo 162" class="cls-5" d="M703.89,808.11h72.39V882h-81.5V816.7a8.86,8.86,0,0,1,9.11-8.59Z"/><ellipse id="Elipse_100" data-name="Elipse 100" class="cls-7" cx="720.24" cy="722.96" rx="37.56" ry="35.43"/><path id="Trazado_226" data-name="Trazado 226" class="cls-5" d="M722.25,808.11,758.1,776.5v31.61"/></g><g id="Grupo_185" data-name="Grupo 185"><path id="Trazado_199" data-name="Trazado 199" class="cls-5" d="M222.2,561v49.11c28.18,0,51-21.57,51-48.15,0-.32,0-.64,0-1Z"/><path id="Trazado_200" data-name="Trazado 200" class="cls-6" d="M222.86,667.48l107.7-105.54V667.48Z"/><path id="Trazado_201" data-name="Trazado 201" class="cls-7" d="M285.24,772.86c0,.45,0,.89,0,1.34h45.45c-1-57.08-48.57-103.47-108.46-106.69v43.17C254.62,712.12,285.24,741.92,285.24,772.86Z"/><path id="Rectángulo_153" data-name="Rectángulo 153" class="cls-5" d="M413.78,628.81h29.88V667h-39V637.4a8.86,8.86,0,0,1,9.1-8.59Z"/><path id="Rectángulo_154" data-name="Rectángulo 154" class="cls-5" d="M398.83,631.49H330.56V561.3h77.38v61.6a8.86,8.86,0,0,1-9.11,8.59Z"/><path id="Trazado_202" data-name="Trazado 202" class="cls-8" d="M400.72,686.39c-19.65,1.3-34.91,16.7-34.94,35.29h34.94Z"/><path id="Trazado_203" data-name="Trazado 203" class="cls-5" d="M405.5,631.49l-60.13,49.17V631.49"/><path id="Trazado_204" data-name="Trazado 204" class="cls-5" d="M412.36,718.65l-23.25,27.5V721.68"/><path id="Rectángulo_155" data-name="Rectángulo 155" class="cls-5" d="M416.29,862.32H348v-88.4h77.37v79.81a8.86,8.86,0,0,1-9.1,8.59Z"/><path id="Trazado_205" data-name="Trazado 205" class="cls-6" d="M189.49,794.49h77.38v59.24a8.86,8.86,0,0,1-9.11,8.59H166.34Z"/><path id="Trazado_206" data-name="Trazado 206" class="cls-5" d="M399.32,862.32l-34,30v-30"/><path id="Trazado_207" data-name="Trazado 207" class="cls-5" d="M256.24,667.45l-34,30v-30"/><path id="Trazado_208" data-name="Trazado 208" class="cls-5" d="M415.14,628.81c.52,0,22.85-30,22.85-30v30"/></g><g id="Grupo_186" data-name="Grupo 186"><rect id="Rectángulo_156" data-name="Rectángulo 156" class="cls-8" x="114.5" y="562.34" width="107.7" height="105.55"/><path id="Trazado_209" data-name="Trazado 209" class="cls-5" d="M121.72,773.75h67.14c0-34.27-29.49-62-65.83-62-.44,0-.87,0-1.31,0Z"/><path id="Trazado_210" data-name="Trazado 210" class="cls-6" d="M221.53,667.88,113.83,773.43V667.88Z"/><rect id="Rectángulo_157" data-name="Rectángulo 157" class="cls-5" x="1.84" y="561" width="111.9" height="106.69"/><path id="Trazado_211" data-name="Trazado 211" class="cls-6" d="M113.74,667.69,1.84,561h111.9Z"/><path id="Trazado_212" data-name="Trazado 212" class="cls-7" d="M159.15,562.34c0-.45,0-.89,0-1.34H113.74c1,57.08,48.57,103.47,108.46,106.69V624.52C189.77,623.08,159.15,593.28,159.15,562.34Z"/><path id="Trazado_213" data-name="Trazado 213" class="cls-5" d="M342.64,721c0,.23,0,.46,0,.68h23.16c-.49-29-24.59-52.67-55.25-54.34v22C327,690.1,342.64,705.28,342.64,721Z"/><path id="Rectángulo_158" data-name="Rectángulo 158" class="cls-5" d="M30.61,705.91H.74V667.69h39v29.63a8.86,8.86,0,0,1-9.11,8.59Z"/><path id="Rectángulo_159" data-name="Rectángulo 159" class="cls-5" d="M45.56,703.24h68.27v70.19H36.46v-61.6a8.86,8.86,0,0,1,9.1-8.59Z"/><ellipse id="Elipse_95" data-name="Elipse 95" class="cls-6" cx="180.35" cy="601.77" rx="26.88" ry="25.35"/><ellipse id="Elipse_96" data-name="Elipse 96" class="cls-6" cx="276.4" cy="842.23" rx="26.88" ry="25.35"/><ellipse id="Elipse_97" data-name="Elipse 97" class="cls-7" cx="57.79" cy="614.34" rx="37.56" ry="35.43"/><path id="Trazado_214" data-name="Trazado 214" class="cls-5" d="M62.53,703.24l34-30v30"/><path id="Trazado_215" data-name="Trazado 215" class="cls-5" d="M29.25,705.91c-.52,0-22.84,30-22.84,30v-30"/></g><g id="Grupo_187" data-name="Grupo 187"><rect id="Rectángulo_160" data-name="Rectángulo 160" class="cls-8" x="3.77" y="879.27" width="107.7" height="105.55"/><path id="Trazado_216" data-name="Trazado 216" class="cls-5" d="M3.77,773.43v49.11c28.18,0,51-21.57,51-48.15,0-.33,0-.64,0-1Z"/><path id="Trazado_217" data-name="Trazado 217" class="cls-6" d="M4.43,879.27l107.7-105.54V879.27Z"/><rect id="Rectángulo_161" data-name="Rectángulo 161" class="cls-5" x="112.23" y="879.47" width="111.9" height="106.69"/><path id="Trazado_218" data-name="Trazado 218" class="cls-6" d="M112.23,879.47,224.12,986.15H112.23Z"/><path id="Trazado_219" data-name="Trazado 219" class="cls-7" d="M66.81,984.82c0,.45,0,.89,0,1.33h45.45c-1-57.08-48.57-103.46-108.46-106.68v43.16C36.19,924.07,66.81,953.87,66.81,984.82Z"/><path id="Trazado_220" data-name="Trazado 220" class="cls-5" d="M188.94,851.15V773.73L150.27,814.8l-20.83,36.35Z"/><ellipse id="Elipse_98" data-name="Elipse 98" class="cls-6" cx="45.61" cy="945.39" rx="26.88" ry="25.35"/><ellipse id="Elipse_99" data-name="Elipse 99" class="cls-7" cx="168.17" cy="932.81" rx="37.56" ry="35.43"/><path id="Trazado_221" data-name="Trazado 221" class="cls-5" d="M163.43,843.91l-34,30v-30"/></g><g id="Grupo_188-2" data-name="Grupo 188"><path id="Trazado_222-2" data-name="Trazado 222" class="cls-5" d="M444.76,987V937.89c-28.18,0-51,21.57-51,48.15,0,.32,0,.64,0,1Z"/><path id="Trazado_223-2" data-name="Trazado 223" class="cls-6" d="M444.1,881.16,336.4,986.7V881.16Z"/><path id="Trazado_224-2" data-name="Trazado 224" class="cls-6" d="M320.31,881l-96.19,94.27V881Z"/><path id="Trazado_225-2" data-name="Trazado 225" class="cls-7" d="M381.72,775.06c0-.45,0-.89,0-1.33H336.3c1,57.08,48.57,103.46,108.46,106.68V837.25C412.34,835.81,381.72,806,381.72,775.06Z"/><path id="Rectángulo_162-2" data-name="Rectángulo 162" class="cls-5" d="M264,912.77h72.4V986.7H254.9V921.36a8.86,8.86,0,0,1,9.1-8.59Z"/><ellipse id="Elipse_100-2" data-name="Elipse 100" class="cls-7" cx="280.36" cy="827.62" rx="37.56" ry="35.43"/><path id="Trazado_226-2" data-name="Trazado 226" class="cls-5" d="M282.36,912.77l35.86-31.61v31.61"/></g><g id="Grupo_187-2" data-name="Grupo 187"><rect id="Rectángulo_160-2" data-name="Rectángulo 160" class="cls-8" x="443.65" y="774.61" width="107.7" height="105.55"/><path id="Trazado_216-2" data-name="Trazado 216" class="cls-5" d="M443.65,668.77v49.11c28.18,0,51-21.57,51-48.15,0-.32,0-.64,0-1Z"/><path id="Trazado_217-2" data-name="Trazado 217" class="cls-6" d="M444.32,774.61,552,669.07V774.61Z"/><rect id="Rectángulo_161-2" data-name="Rectángulo 161" class="cls-5" x="552.11" y="774.81" width="111.9" height="106.69"/><path id="Trazado_218-2" data-name="Trazado 218" class="cls-6" d="M552.11,774.81,664,881.5H552.11Z"/><path id="Trazado_219-2" data-name="Trazado 219" class="cls-7" d="M506.69,880.16c0,.45,0,.89,0,1.34h45.45c-1-57.09-48.57-103.47-108.46-106.69V818C476.08,819.42,506.69,849.22,506.69,880.16Z"/><path id="Trazado_220-2" data-name="Trazado 220" class="cls-5" d="M628.82,746.49V669.07l-38.67,41.08-20.83,36.34Z"/><ellipse id="Elipse_98-2" data-name="Elipse 98" class="cls-6" cx="485.49" cy="840.73" rx="26.88" ry="25.35"/><ellipse id="Elipse_99-2" data-name="Elipse 99" class="cls-7" cx="608.06" cy="828.15" rx="37.56" ry="35.43"/><path id="Trazado_221-2" data-name="Trazado 221" class="cls-5" d="M603.31,739.26l-34,30v-30"/></g></g></g></g></svg>