<?xml version="1.0" encoding="utf-8"?>
<!-- Generator: Adobe Illustrator 22.1.0, SVG Export Plug-In . SVG Version: 6.00 Build 0)  -->
<svg version="1.1" id="Capa_1" xmlns="http://www.w3.org/2000/svg" xmlns:xlink="http://www.w3.org/1999/xlink" x="0px" y="0px"
	 viewBox="0 0 1280 809" style="enable-background:new 0 0 1280 809;" xml:space="preserve">
<style type="text/css">
	.st0{fill:#F4F4F4;}
	.st1{fill:url(#SVGID_1_);}
	.st2{filter:url(#Adobe_OpacityMaskFilter);}
	.st3{opacity:0.25;fill:url(#SVGID_3_);}
	.st4{mask:url(#SVGID_2_);}
	.st5{fill:#00868E;}
	.st6{fill:#C0B648;}
	.st7{fill:#00C98A;}
	.st8{fill:#00778E;}
	.st9{fill:#8E8E8E;}
	.st10{fill:#FFFFFF;stroke:#FFFFFF;stroke-width:0.2;stroke-miterlimit:10;}
	.st11{fill:#FFFFFF;}
	.st12{fill:url(#SVGID_4_);}
	.st13{fill:url(#SVGID_5_);}
	.st14{fill:url(#SVGID_6_);}
	.st15{fill:url(#SVGID_7_);}
	.st16{opacity:0.2;enable-background:new    ;}
	.st17{opacity:0.12;enable-background:new    ;}
	.st18{opacity:0.25;fill:#FFFFFF;enable-background:new    ;}
	.st19{fill:url(#SVGID_8_);}
	.st20{fill:url(#SVGID_9_);}
	.st21{filter:url(#Adobe_OpacityMaskFilter_1_);}
	.st22{opacity:0.25;fill:url(#SVGID_11_);}
	.st23{mask:url(#SVGID_10_);}
</style>
<title>fondo-section-2</title>
<g id="Capa_2_1_">
	<g id="Capa_1-2">
		<rect x="0" class="st0" width="1280" height="784"/>
		<g>
			<linearGradient id="SVGID_1_" gradientUnits="userSpaceOnUse" x1="114.5847" y1="2305.8872" x2="945.8051" y2="1833.8362">
				<stop  offset="0" style="stop-color:#00868E"/>
				<stop  offset="9.000000e-02" style="stop-color:#00938D"/>
				<stop  offset="0.283" style="stop-color:#00AC8C"/>
				<stop  offset="0.488" style="stop-color:#00BB8B"/>
				<stop  offset="0.715" style="stop-color:#00C58A"/>
				<stop  offset="1" style="stop-color:#00C98A"/>
			</linearGradient>
			<path class="st1" d="M-7,1827.5c0,0,275.8-112.1,670.8-55.9c403.2,57.4,631.2-10.7,631.2-10.7V2183H-11.2L-7,1827.5z"/>
			<defs>
				<filter id="Adobe_OpacityMaskFilter" filterUnits="userSpaceOnUse" x="0.7" y="1752.4" width="894.3" height="456.9">
					<feColorMatrix  type="matrix" values="1 0 0 0 0  0 1 0 0 0  0 0 1 0 0  0 0 0 1 0"/>
				</filter>
			</defs>
			<mask maskUnits="userSpaceOnUse" x="0.7" y="1752.4" width="894.3" height="456.9" id="SVGID_2_">
				<g class="st2">
					<linearGradient id="SVGID_3_" gradientUnits="userSpaceOnUse" x1="83.0024" y1="2143.0195" x2="836.3804" y2="1954.3036">
						<stop  offset="0" style="stop-color:#FFFFFF"/>
						<stop  offset="1" style="stop-color:#000000"/>
					</linearGradient>
					<path class="st3" d="M-7,1827.5c0,0,275.8-112.1,670.8-55.9c403.2,57.4,631.2-10.7,631.2-10.7V2183H-11.2L-7,1827.5z"/>
				</g>
			</mask>
			<g class="st4">
				<g id="Grupo_188_5_">
					<path id="Trazado_222_5_" class="st5" d="M895,2097.1v-52.7c-28.5,0-51.6,23.1-51.6,51.7c0,0.3,0,0.7,0,1H895z"/>
					<path id="Trazado_223_5_" class="st6" d="M894.3,1983.5l-109,113.2v-113.2H894.3z"/>
					<path id="Trazado_224_5_" class="st6" d="M769.1,1983.3l-97.3,101.1v-101.1H769.1z"/>
					<path id="Trazado_225_5_" class="st7" d="M831.2,1869.7c0-0.5,0-1,0-1.4h-46c1,61.2,49.1,111,109.7,114.4v-46.3
						C862.2,1934.9,831.2,1902.9,831.2,1869.7z"/>
					<path id="Rectángulo_162_5_" class="st5" d="M712.1,2017.4h73.2l0,0v79.3l0,0h-82.5l0,0v-70.1
						C702.9,2021.6,707,2017.4,712.1,2017.4L712.1,2017.4z"/>
					<circle id="Elipse_100_5_" class="st7" cx="728.7" cy="1926.1" r="38"/>
					<path id="Trazado_226_5_" class="st5" d="M730.7,2017.4l36.3-33.9v33.9"/>
				</g>
				<g>
					<g id="Grupo_185_3_">
						<path id="Trazado_199_3_" class="st5" d="M224.8,1752.4v52.7c28.5,0,51.6-23.1,51.6-51.6c0-0.3,0-0.7,0-1H224.8z"/>
						<path id="Trazado_200_3_" class="st6" d="M225.5,1866.6l109-113.2v113.2H225.5z"/>
						<path id="Trazado_201_3_" class="st7" d="M288.6,1979.6c0,0.5,0,1,0,1.4h46c-1-61.2-49.1-111-109.7-114.4v46.3
							C257.6,1914.5,288.6,1946.5,288.6,1979.6z"/>
						<path id="Rectángulo_153_3_" class="st5" d="M418.6,1825.1h30.2l0,0v41l0,0h-39.4l0,0v-31.8
							C409.4,1829.3,413.5,1825.1,418.6,1825.1L418.6,1825.1z"/>
						<path id="Rectángulo_154_3_" class="st5" d="M403.5,1828h-69.1l0,0v-75.3l0,0h78.3l0,0v66.1
							C412.7,1823.9,408.6,1828,403.5,1828L403.5,1828z"/>
						<path id="Trazado_202_3_" class="st8" d="M405.4,1886.9c-19.9,1.4-35.3,17.9-35.4,37.8h35.4V1886.9z"/>
						<path id="Trazado_203_3_" class="st5" d="M410.2,1828l-60.8,52.7V1828"/>
						<path id="Trazado_204_3_" class="st5" d="M417.2,1921.5l-23.5,29.5v-26.2"/>
						<path id="Rectángulo_155_3_" class="st5" d="M421.2,2075.6h-69.1l0,0v-94.8l0,0h78.3l0,0v85.6
							C430.4,2071.5,426.2,2075.6,421.2,2075.6L421.2,2075.6z"/>
						<path id="Trazado_205_3_" class="st6" d="M191.7,2002.8H270v63.5c0,5.1-4.1,9.2-9.2,9.2c0,0,0,0,0,0h-92.5L191.7,2002.8z"/>
						<path id="Trazado_206_3_" class="st5" d="M404,2075.6l-34.4,32.2v-32.2"/>
						<path id="Trazado_207_3_" class="st5" d="M259.2,1866.6l-34.4,32.2v-32.2"/>
						<path id="Trazado_208_3_" class="st5" d="M420,1825.1c0.5,0,23.1-32.2,23.1-32.2v32.2"/>
					</g>
					<g id="Grupo_186_3_">
						<rect id="Rectángulo_156_3_" x="115.8" y="1753.8" class="st8" width="109" height="113.2"/>
						<path id="Trazado_209_3_" class="st5" d="M123.1,1980.6h67.9c0-36.8-29.8-66.6-66.6-66.6c-0.4,0-0.9,0-1.3,0L123.1,1980.6z"/>
						<path id="Trazado_210_3_" class="st6" d="M224.1,1867l-109,113.2V1867H224.1z"/>
						<rect id="Rectángulo_157_3_" x="1.9" y="1752.4" class="st5" width="113.2" height="114.4"/>
						<path id="Trazado_211_3_" class="st6" d="M115.1,1866.8L1.9,1752.4h113.2V1866.8z"/>
						<path id="Trazado_212_3_" class="st7" d="M161,1753.8c0-0.5,0-1,0-1.4h-46c1,61.2,49.1,111,109.7,114.4v-46.3
							C192,1819,161,1787,161,1753.8z"/>
						<path id="Trazado_213_3_" class="st5" d="M346.6,1924.1c0,0.2,0,0.5,0,0.7H370c-0.5-31.1-24.9-56.5-55.9-58.3v23.6
							C330.9,1890.9,346.6,1907.2,346.6,1924.1z"/>
						<path id="Rectángulo_158_3_" class="st5" d="M31,1907.8H0.7l0,0v-41l0,0h39.4l0,0v31.8C40.2,1903.7,36,1907.8,31,1907.8
							L31,1907.8z"/>
						<path id="Rectángulo_159_3_" class="st5" d="M46.1,1905h69.1l0,0v75.3l0,0H36.9l0,0v-66.1C36.9,1909.1,41,1905,46.1,1905
							L46.1,1905z"/>
						<circle id="Elipse_95_3_" class="st6" cx="182.5" cy="1796.1" r="27.2"/>
						<circle id="Elipse_96_3_" class="st6" cx="279.6" cy="2054" r="27.2"/>
						<circle id="Elipse_97_3_" class="st7" cx="58.5" cy="1809.6" r="38"/>
						<path id="Trazado_214_3_" class="st5" d="M63.3,1905l34.4-32.2v32.2"/>
						<path id="Trazado_215_3_" class="st5" d="M29.6,1907.8c-0.5,0-23.1,32.2-23.1,32.2v-32.2"/>
					</g>
					<g id="Grupo_187_7_">
						<rect id="Rectángulo_160_6_" x="3.8" y="2093.8" class="st8" width="109" height="113.2"/>
						<path id="Trazado_216_7_" class="st5" d="M3.8,1980.2v52.7c28.5,0,51.6-23.1,51.6-51.6c0-0.3,0-0.7,0-1H3.8z"/>
						<path id="Trazado_217_6_" class="st6" d="M4.5,2093.8l109-113.2v113.2H4.5z"/>
						<rect id="Rectángulo_161_6_" x="113.5" y="2094" class="st5" width="113.2" height="114.4"/>
						<path id="Trazado_218_6_" class="st6" d="M113.5,2094l113.2,114.4H113.5L113.5,2094z"/>
						<path id="Trazado_219_6_" class="st7" d="M67.6,2207c0,0.5,0,1,0,1.4h46c-1-61.2-49.1-111-109.7-114.4v46.3
							C36.6,2141.8,67.6,2173.8,67.6,2207z"/>
						<path id="Trazado_220_7_" class="st5" d="M191.1,2063.6v-83l-39.1,44.1l-21.1,39H191.1z"/>
						<circle id="Elipse_98_6_" class="st6" cx="46.1" cy="2164.7" r="27.2"/>
						<circle id="Elipse_99_6_" class="st7" cx="170.1" cy="2151.2" r="38"/>
						<path id="Trazado_221_6_" class="st5" d="M165.3,2055.8l-34.4,32.2v-32.2"/>
					</g>
					<g id="Grupo_188_3_">
						<path id="Trazado_222_3_" class="st5" d="M450,2209.3v-52.7c-28.5,0-51.6,23.1-51.6,51.7c0,0.3,0,0.7,0,1H450z"/>
						<path id="Trazado_223_3_" class="st6" d="M449.3,2095.8l-109,113.2v-113.2L449.3,2095.8z"/>
						<path id="Trazado_224_3_" class="st6" d="M324.1,2095.6l-97.3,101.1v-101.1H324.1z"/>
						<path id="Trazado_225_3_" class="st7" d="M386.2,1982c0-0.5,0-1,0-1.4h-46c1,61.2,49.1,111,109.7,114.4v-46.3
							C417.2,2047.2,386.2,2015.2,386.2,1982z"/>
						<path id="Rectángulo_162_3_" class="st5" d="M267.1,2129.7h73.2l0,0v79.3l0,0h-82.5l0,0v-70.1
							C257.9,2133.8,262,2129.7,267.1,2129.7L267.1,2129.7z"/>
						<circle id="Elipse_100_3_" class="st7" cx="283.6" cy="2038.4" r="38"/>
						<path id="Trazado_226_3_" class="st5" d="M285.7,2129.7l36.3-33.9v33.9"/>
					</g>
					<g id="Grupo_187_3_">
						<rect id="Rectángulo_160_3_" x="448.8" y="1981.5" class="st8" width="109" height="113.2"/>
						<path id="Trazado_216_3_" class="st5" d="M448.8,1868v52.7c28.5,0,51.6-23.1,51.6-51.6c0-0.3,0-0.7,0-1H448.8z"/>
						<path id="Trazado_217_3_" class="st6" d="M449.5,1981.5l109-113.2v113.2H449.5z"/>
						<rect id="Rectángulo_161_3_" x="558.6" y="1981.7" class="st5" width="113.2" height="114.4"/>
						<path id="Trazado_218_3_" class="st6" d="M558.6,1981.7l113.2,114.4H558.6L558.6,1981.7z"/>
						<path id="Trazado_219_3_" class="st7" d="M512.6,2094.7c0,0.5,0,1,0,1.4h46c-1-61.2-49.1-111-109.7-114.4v46.3
							C481.6,2029.6,512.6,2061.5,512.6,2094.7z"/>
						<path id="Trazado_220_3_" class="st5" d="M636.2,1951.4v-83l-39.1,44.1l-21.1,39H636.2z"/>
						<circle id="Elipse_98_3_" class="st6" cx="491.2" cy="2052.4" r="27.2"/>
						<circle id="Elipse_99_3_" class="st7" cx="615.2" cy="2038.9" r="38"/>
						<path id="Trazado_221_3_" class="st5" d="M610.4,1943.6l-34.4,32.2v-32.2"/>
					</g>
				</g>
			</g>
			<text transform="matrix(1 0 0 1 404.0232 1968.1653)"><tspan x="0" y="0" style="fill:#E5E5E5; font-family:'Montserrat-SemiBold'; font-size:36.2099px;">¿Estás listo para comprar</tspan><tspan x="39.5" y="43.5" style="fill:#E5E5E5; font-family:'Montserrat-SemiBold'; font-size:36.2099px;">tu próximo teléfono?</tspan></text>
			<g>
				<g>
					<path d="M708.4,2114.4H571.6c-3.1,0-5.5-2.4-5.5-5.5v-32.8c0-3.1,2.4-5.5,5.5-5.5h136.8c3.1,0,5.5,2.4,5.5,5.5v32.8
						C713.9,2112,711.5,2114.4,708.4,2114.4z"/>
					<path class="st9" d="M708.4,2071.5c2.5,0,4.6,2.1,4.6,4.6v32.8c0,2.5-2.1,4.6-4.6,4.6H571.6c-2.5,0-4.6-2.1-4.6-4.6v-32.8
						c0-2.5,2.1-4.6,4.6-4.6H708.4 M708.4,2070.6H571.6c-3.1,0-5.5,2.5-5.5,5.5v32.8c0,3.1,2.4,5.5,5.5,5.5h136.8
						c3.1,0,5.5-2.4,5.5-5.5v-32.8C713.9,2073.2,711.5,2070.6,708.4,2070.6z"/>
					<path class="st10" d="M618,2081.8c0,0.9-0.2,1.6-0.8,2.2c-0.7,0.7-1.4,1-2.4,1c-1,0-1.8-0.3-2.4-1c-0.7-0.7-1-1.4-1-2.4
						s0.3-1.8,1-2.4c0.7-0.7,1.4-1,2.4-1c0.4,0,0.9,0.1,1.3,0.3c0.4,0.2,0.8,0.4,1,0.8l-0.5,0.5c-0.4-0.5-1-0.8-1.8-0.8
						c-0.7,0-1.3,0.2-1.8,0.8c-0.5,0.4-0.8,1.1-0.8,1.9s0.2,1.4,0.8,1.9s1.1,0.8,1.8,0.8c0.8,0,1.3-0.2,1.9-0.8
						c0.3-0.3,0.5-0.8,0.5-1.3h-2.4v-0.9h3.2V2081.8L618,2081.8z M623.1,2079.1h-3v2.1h2.7v0.8h-2.7v2.1h3v0.9h-3.8v-6.6h3.8V2079.1
						z M626.7,2084.9h-0.9v-5.8h-1.9v-0.8h4.6v0.8h-1.9V2084.9z M631.7,2084.9v-6.6h0.9v6.6H631.7z M636.3,2084.9h-0.9v-5.8h-1.9
						v-0.8h4.5v0.8h-1.9v5.8H636.3z M646.7,2084c-0.7,0.7-1.4,1-2.4,1c-1,0-1.8-0.3-2.4-1c-0.7-0.7-1-1.4-1-2.4s0.3-1.8,1-2.4
						c0.7-0.7,1.4-1,2.4-1c1,0,1.8,0.3,2.4,1c0.7,0.7,1,1.4,1,2.4S647.4,2083.3,646.7,2084z M642.5,2083.4c0.4,0.4,1.1,0.8,1.8,0.8
						s1.3-0.2,1.8-0.8c0.4-0.4,0.8-1.1,0.8-1.9s-0.2-1.4-0.8-1.9c-0.4-0.4-1.1-0.8-1.8-0.8s-1.3,0.2-1.8,0.8
						c-0.4,0.4-0.8,1.1-0.8,1.9S642,2083,642.5,2083.4z M648.9,2084.9v-6.6h1l3.2,5.1v-5.1h0.9v6.6H653l-3.4-5.4v5.4H648.9
						L648.9,2084.9z"/>
					<path class="st11" d="M640.7,2094.5c-2.6,0-4.7,2-4.7,4.7c0,2.6,2.1,4.7,4.7,4.7c2.6,0,4.7-2,4.7-4.7
						C645.4,2096.4,643.3,2094.5,640.7,2094.5z M640.7,2101.9c-1.4,0-2.6-1.2-2.6-2.8s1.2-2.8,2.6-2.8c1.4,0,2.6,1.1,2.6,2.8
						C643.3,2100.7,642.1,2101.9,640.7,2101.9z M630.5,2094.5c-2.6,0-4.7,2-4.7,4.7c0,2.6,2.1,4.7,4.7,4.7c2.6,0,4.7-2,4.7-4.7
						C635.2,2096.4,633.1,2094.5,630.5,2094.5z M630.5,2101.9c-1.4,0-2.6-1.2-2.6-2.8s1.2-2.8,2.6-2.8c1.4,0,2.6,1.1,2.6,2.8
						C633.1,2100.7,631.9,2101.9,630.5,2101.9z M618.4,2095.9v2h4.7c-0.1,1.1-0.5,2-1.1,2.5c-0.7,0.7-1.8,1.4-3.6,1.4
						c-3,0-5.1-2.3-5.1-5.3s2.3-5.3,5.1-5.3c1.5,0,2.7,0.7,3.6,1.4l1.4-1.4c-1.2-1.1-2.7-2-4.9-2c-3.9,0-7.3,3.3-7.3,7.2
						s3.4,7.2,7.3,7.2c2.2,0,3.7-0.7,5-2.1c1.3-1.3,1.8-3.2,1.8-4.6c0-0.4,0-0.9-0.1-1.2H618.4L618.4,2095.9z M668,2097.4
						c-0.4-1.1-1.5-3-3.9-3c-2.4,0-4.4,1.9-4.4,4.7c0,2.6,2,4.7,4.6,4.7c2.1,0,3.4-1.3,3.8-2.1l-1.5-1.1c-0.5,0.8-1.2,1.3-2.3,1.3
						c-1.1,0-1.8-0.4-2.3-1.4l6.2-2.6L668,2097.4L668,2097.4z M661.7,2099c0-1.8,1.4-2.7,2.4-2.7c0.8,0,1.5,0.4,1.8,1L661.7,2099
						L661.7,2099z M656.5,2103.5h2.1v-13.7h-2.1V2103.5z M653.3,2095.5c-0.5-0.5-1.4-1.1-2.5-1.1c-2.3,0-4.5,2.1-4.5,4.7
						s2.1,4.6,4.5,4.6c1.1,0,2-0.5,2.4-1.1h0.1v0.7c0,1.8-1,2.7-2.5,2.7c-1.2,0-2.1-0.9-2.3-1.6l-1.8,0.8c0.5,1.2,1.9,2.7,4.2,2.7
						c2.4,0,4.4-1.4,4.4-4.8v-8.3h-2V2095.5L653.3,2095.5z M650.9,2101.9c-1.4,0-2.6-1.2-2.6-2.8s1.2-2.8,2.6-2.8
						c1.4,0,2.5,1.2,2.5,2.8S652.3,2101.9,650.9,2101.9z M677.6,2089.8h-4.9v13.7h2.1v-5.1h2.8c2.3,0,4.5-1.6,4.5-4.3
						S679.9,2089.8,677.6,2089.8z M677.7,2096.4h-3v-4.7h3c1.5,0,2.4,1.3,2.4,2.3C680,2095.1,679.1,2096.4,677.7,2096.4
						L677.7,2096.4z M690.3,2094.4c-1.5,0-3.1,0.7-3.6,2.1l1.9,0.8c0.4-0.8,1.1-1,1.9-1c1.1,0,2.1,0.7,2.2,1.8v0.1
						c-0.3-0.2-1.2-0.5-2.1-0.5c-2,0-3.9,1.1-3.9,3.1c0,1.9,1.6,3.1,3.4,3.1c1.4,0,2.1-0.7,2.6-1.3h0.1v1.1h2v-5.3
						C694.4,2095.8,692.5,2094.4,690.3,2094.4L690.3,2094.4z M690,2101.9c-0.7,0-1.6-0.3-1.6-1.2c0-1.1,1.2-1.4,2.2-1.4
						c0.9,0,1.3,0.2,1.9,0.4C692.2,2101.1,691.1,2101.9,690,2101.9z M701.5,2094.7l-2.3,5.9h-0.1l-2.4-5.9h-2.2l3.6,8.3l-2.1,4.6
						h2.1l5.6-12.9H701.5L701.5,2094.7z M683.1,2103.5h2.1v-13.7h-2.1V2103.5z"/>
					<g>
						
							<linearGradient id="SVGID_4_" gradientUnits="userSpaceOnUse" x1="126.4601" y1="1549.4857" x2="125.4683" y2="1550.4775" gradientTransform="matrix(18.5185 0 0 18.5185 -1751.8518 -26614.0176)">
							<stop  offset="0" style="stop-color:#0088FF"/>
							<stop  offset="7.000001e-03" style="stop-color:#0089FF"/>
							<stop  offset="0.26" style="stop-color:#00A7FF"/>
							<stop  offset="0.512" style="stop-color:#00BAFF"/>
							<stop  offset="0.76" style="stop-color:#00C7FF"/>
							<stop  offset="1" style="stop-color:#00CBFF"/>
						</linearGradient>
						<path class="st12" d="M577.5,2078.8c-0.3,0.3-0.4,0.9-0.4,1.5v24.2c0,0.7,0.2,1.2,0.5,1.5l0.1,0.1l13.6-13.6v-0.2
							L577.5,2078.8z"/>
						
							<linearGradient id="SVGID_5_" gradientUnits="userSpaceOnUse" x1="127.1715" y1="1550.1561" x2="125.7416" y2="1550.1561" gradientTransform="matrix(18.5185 0 0 18.5185 -1751.8518 -26614.0176)">
							<stop  offset="0" style="stop-color:#FFC800"/>
							<stop  offset="0.409" style="stop-color:#FFA600"/>
							<stop  offset="0.775" style="stop-color:#FF8D00"/>
							<stop  offset="1" style="stop-color:#FF8400"/>
						</linearGradient>
						<path class="st13" d="M595.7,2097.2l-4.5-4.5v-0.3l4.5-4.5l0.1,0.1l5.4,3.1c1.5,0.9,1.5,2.3,0,3.2L595.7,2097.2z"/>
						
							<linearGradient id="SVGID_6_" gradientUnits="userSpaceOnUse" x1="126.6386" y1="1550.2882" x2="125.2937" y2="1551.6332" gradientTransform="matrix(18.5185 0 0 18.5185 -1751.8518 -26614.0176)">
							<stop  offset="0" style="stop-color:#FF3743"/>
							<stop  offset="1" style="stop-color:#C70864"/>
						</linearGradient>
						<path class="st14" d="M595.8,2097.1l-4.6-4.6l-13.7,13.7c0.5,0.5,1.3,0.5,2.3,0.1L595.8,2097.1"/>
						
							<linearGradient id="SVGID_7_" gradientUnits="userSpaceOnUse" x1="125.6012" y1="1548.9838" x2="126.2018" y2="1549.5844" gradientTransform="matrix(18.5185 0 0 18.5185 -1751.8518 -26614.0176)">
							<stop  offset="0" style="stop-color:#008870"/>
							<stop  offset="6.900000e-02" style="stop-color:#008F70"/>
							<stop  offset="0.476" style="stop-color:#00B771"/>
							<stop  offset="0.801" style="stop-color:#00CF70"/>
							<stop  offset="1" style="stop-color:#00D870"/>
						</linearGradient>
						<path class="st15" d="M595.8,2087.9l-16-9.1c-1-0.5-1.8-0.4-2.3,0.1l13.7,13.6L595.8,2087.9L595.8,2087.9z"/>
						<path class="st16" d="M595.7,2097l-15.9,9c-0.9,0.5-1.6,0.4-2.2,0l-0.1,0.1l0.1,0.1c0.5,0.4,1.3,0.5,2.2,0L595.7,2097z"/>
						<path class="st17" d="M577.5,2106c-0.3-0.3-0.4-0.9-0.4-1.5v0.1c0,0.7,0.2,1.2,0.5,1.5v-0.1H577.5L577.5,2106z M601.2,2093.9
							l-5.5,3.1l0.1,0.1l5.4-3.1c0.8-0.4,1.1-1,1.1-1.5C602.3,2093.1,601.8,2093.5,601.2,2093.9z"/>
						<path class="st18" d="M579.8,2079l21.3,12.1c0.7,0.4,1.1,0.9,1.1,1.4c0-0.5-0.3-1.1-1.1-1.5l-21.3-12.1
							c-1.5-0.9-2.7-0.2-2.7,1.5v0.1C577.1,2078.8,578.3,2078.1,579.8,2079z"/>
					</g>
				</g>
				<g>
					<path d="M869.1,2114.4H732.3c-3.1,0-5.5-2.4-5.5-5.5v-32.8c0-3.1,2.4-5.5,5.5-5.5h136.8c3.1,0,5.5,2.4,5.5,5.5v32.8
						C874.5,2112,872.1,2114.4,869.1,2114.4z"/>
					<path class="st9" d="M869.1,2071.5c2.5,0,4.6,2.1,4.6,4.6v32.8c0,2.5-2.1,4.6-4.6,4.6H732.3c-2.5,0-4.6-2.1-4.6-4.6v-32.8
						c0-2.5,2.1-4.6,4.6-4.6H869.1 M869.1,2070.6H732.3c-3.1,0-5.5,2.5-5.5,5.5v32.8c0,3.1,2.4,5.5,5.5,5.5h136.8
						c3.1,0,5.5-2.4,5.5-5.5v-32.8C874.5,2073.2,872.1,2070.6,869.1,2070.6z"/>
					<g>
						<g>
							<path class="st11" d="M750.8,2079.6c-0.5,0-0.9,0-1.3,0.1c-0.4,0-0.8,0.1-1.2,0.2c-0.1,0-0.2,0-0.2,0.1
								c-2.4,0.5-4.5,1.7-6.2,3.5c-0.2,0.2-0.3,0.3-0.5,0.5c-4.6,5.2-4,13.2,1.2,17.7c5,4.4,12.6,4.1,17.2-0.7
								c0.2-0.2,0.3-0.3,0.5-0.5c2-2.3,3.1-5.2,3.1-8.3C763.4,2085.2,757.8,2079.6,750.8,2079.6z M742.4,2084
								c0.1-0.1,0.1-0.1,0.2-0.2c0.1-0.1,0.2-0.2,0.2-0.2c0.1-0.1,0.1-0.1,0.2-0.2c0.1-0.1,0.2-0.1,0.2-0.2c0.1-0.1,0.1-0.1,0.2-0.2
								c0.1-0.1,0.2-0.1,0.3-0.2c0.1-0.1,0.2-0.1,0.2-0.2c0.1-0.1,0.2-0.1,0.3-0.2c0.1-0.1,0.2-0.1,0.2-0.2c0.1-0.1,0.2-0.1,0.3-0.2
								c0.1,0,0.2-0.1,0.2-0.1c0.1-0.1,0.2-0.1,0.3-0.2c0.1,0,0.2-0.1,0.3-0.1c0.1,0,0.2-0.1,0.3-0.1c0.1,0,0.2-0.1,0.3-0.1
								c0.1,0,0.2-0.1,0.3-0.1c0.1,0,0.2-0.1,0.3-0.1c0.1,0,0.2-0.1,0.3-0.1c0.1,0,0.2-0.1,0.3-0.1c0.1,0,0.2-0.1,0.3-0.1
								c0.1,0,0.2-0.1,0.3-0.1c0,0,0.1,0,0.1,0c-1.2,1.2-2.2,2.7-2.7,4.4C744.2,2084.9,743.3,2084.5,742.4,2084
								C742.4,2084.1,742.4,2084,742.4,2084z M741.8,2084.7c1,0.5,2.1,1,3.2,1.3c-0.5,1.9-0.8,3.8-0.8,5.8h-5
								C739.2,2089.2,740.1,2086.7,741.8,2084.7z M741.8,2099.7c-1.7-2-2.6-4.5-2.7-7.1h5c0,2,0.3,3.9,0.8,5.8
								C743.8,2098.7,742.8,2099.1,741.8,2099.7z M747.8,2103.5c-0.1,0-0.2,0-0.3-0.1c-0.1,0-0.2-0.1-0.3-0.1
								c-0.1,0-0.2-0.1-0.3-0.1c-0.1,0-0.2-0.1-0.3-0.1c-0.1,0-0.2-0.1-0.3-0.1c-0.1,0-0.2-0.1-0.3-0.1c-0.1,0-0.2-0.1-0.3-0.1
								c-0.1,0-0.2-0.1-0.3-0.1c-0.1,0-0.2-0.1-0.3-0.1c-0.1-0.1-0.2-0.1-0.3-0.2c-0.1,0-0.2-0.1-0.2-0.1c-0.1-0.1-0.2-0.1-0.3-0.2
								c-0.1-0.1-0.2-0.1-0.2-0.2c-0.1-0.1-0.2-0.1-0.3-0.2c-0.1-0.1-0.2-0.1-0.2-0.2c-0.1-0.1-0.2-0.1-0.3-0.2
								c-0.1-0.1-0.1-0.1-0.2-0.2c-0.1-0.1-0.2-0.1-0.2-0.2c-0.1-0.1-0.1-0.1-0.2-0.2c-0.1-0.1-0.2-0.2-0.2-0.2
								c-0.1-0.1-0.1-0.1-0.2-0.2c0,0,0,0,0,0c0.9-0.5,1.9-0.8,2.9-1.1c0.5,1.7,1.4,3.1,2.7,4.3
								C747.9,2103.5,747.8,2103.5,747.8,2103.5z M750.4,2103.9c-1.8-0.3-3.4-2.1-4.4-4.9c1.4-0.3,2.9-0.5,4.4-0.5V2103.9
								L750.4,2103.9z M750.4,2097.6c-1.6,0-3.1,0.2-4.6,0.6c-0.5-1.8-0.8-3.7-0.8-5.6h5.4V2097.6L750.4,2097.6z M750.4,2091.8h-5.4
								c0-1.9,0.3-3.8,0.8-5.6c1.5,0.3,3.1,0.5,4.6,0.6V2091.8z M750.4,2085.9c-1.5,0-2.9-0.2-4.4-0.5c1-2.8,2.6-4.6,4.4-4.9V2085.9
								L750.4,2085.9z M759.8,2084.7c1.7,2,2.6,4.5,2.7,7.1h-5c0-2-0.3-3.9-0.8-5.8C757.8,2085.7,758.8,2085.2,759.8,2084.7z
								 M753.8,2080.8c0.1,0,0.2,0,0.3,0.1c0.1,0,0.2,0.1,0.3,0.1c0.1,0,0.2,0.1,0.3,0.1c0.1,0,0.2,0.1,0.3,0.1
								c0.1,0,0.2,0.1,0.3,0.1c0.1,0,0.2,0.1,0.3,0.1c0.1,0,0.2,0.1,0.3,0.1c0.1,0,0.2,0.1,0.3,0.1c0.1,0,0.2,0.1,0.3,0.1
								c0.1,0.1,0.2,0.1,0.3,0.2c0.1,0,0.2,0.1,0.2,0.1c0.1,0.1,0.2,0.1,0.3,0.2c0.1,0.1,0.2,0.1,0.2,0.2c0.1,0.1,0.2,0.1,0.3,0.2
								c0.1,0.1,0.2,0.1,0.2,0.2c0.1,0.1,0.2,0.1,0.3,0.2c0.1,0.1,0.1,0.1,0.2,0.2c0.1,0.1,0.2,0.1,0.2,0.2c0.1,0.1,0.1,0.1,0.2,0.2
								c0.1,0.1,0.2,0.2,0.2,0.2c0.1,0.1,0.1,0.1,0.2,0.2c0,0,0,0,0,0c-0.9,0.5-1.9,0.8-2.9,1.1c-0.5-1.7-1.4-3.1-2.7-4.3
								C753.8,2080.8,753.8,2080.8,753.8,2080.8z M751.2,2080.5c1.8,0.3,3.4,2.1,4.4,4.9c-1.4,0.3-2.9,0.5-4.4,0.5V2080.5
								L751.2,2080.5z M751.2,2086.7c1.6,0,3.1-0.2,4.6-0.6c0.5,1.8,0.8,3.7,0.8,5.6h-5.4V2086.7z M751.2,2092.6h5.4
								c0,1.9-0.3,3.8-0.8,5.6l0,0c-1.5-0.3-3.1-0.5-4.6-0.6V2092.6z M751.2,2103.9v-5.4c1.5,0,2.9,0.2,4.4,0.5
								C754.6,2101.8,753,2103.6,751.2,2103.9z M759.2,2100.3c-0.1,0.1-0.1,0.1-0.2,0.2c-0.1,0.1-0.2,0.2-0.2,0.2
								c-0.1,0.1-0.1,0.1-0.2,0.2c-0.1,0.1-0.2,0.1-0.2,0.2c-0.1,0.1-0.1,0.1-0.2,0.2c-0.1,0.1-0.2,0.1-0.3,0.2
								c-0.1,0.1-0.2,0.1-0.2,0.2c-0.1,0.1-0.2,0.1-0.3,0.2c-0.1,0.1-0.2,0.1-0.2,0.2c-0.1,0.1-0.2,0.1-0.3,0.2
								c-0.1,0-0.2,0.1-0.2,0.1c-0.1,0.1-0.2,0.1-0.3,0.2c-0.1,0-0.2,0.1-0.3,0.1c-0.1,0-0.2,0.1-0.3,0.1c-0.1,0-0.2,0.1-0.3,0.1
								c-0.1,0-0.2,0.1-0.3,0.1c-0.1,0-0.2,0.1-0.3,0.1c-0.1,0-0.2,0.1-0.3,0.1c-0.1,0-0.2,0.1-0.3,0.1c-0.1,0-0.2,0.1-0.3,0.1
								c-0.1,0-0.2,0.1-0.3,0.1c0,0-0.1,0-0.1,0c1.2-1.2,2.2-2.7,2.7-4.4C757.4,2099.5,758.4,2099.8,759.2,2100.3
								C759.3,2100.3,759.3,2100.3,759.2,2100.3z M759.8,2099.7c-1-0.5-2.1-1-3.2-1.3c0.5-1.9,0.8-3.8,0.8-5.8h5
								C762.4,2095.2,761.5,2097.7,759.8,2099.7z"/>
						</g>
					</g>
					<g>
						<g>
							<path class="st11" d="M774.6,2080.8v3.5c0,1.2,0.6,1.6,1.3,1.6c0.8,0,1.3-0.4,1.3-1.6v-3.5h1.1v3.5c0,2-1.1,2.5-2.4,2.5
								c-1.3,0-2.4-0.6-2.4-2.5v-3.5H774.6z"/>
							<path class="st11" d="M780.4,2085c0.1,0.6,0.6,0.9,1.3,0.9c0.8,0,1.1-0.3,1.1-0.8c0-0.5-0.3-0.8-1.4-1c-1.5-0.4-2-0.9-2-1.7
								c0-1,0.7-1.7,2.1-1.7c1.5,0,2.1,0.8,2.2,1.7h-1.1c-0.1-0.4-0.3-0.8-1.1-0.8c-0.6,0-0.9,0.3-0.9,0.7c0,0.5,0.3,0.6,1.3,0.9
								c1.7,0.4,2.1,1.1,2.1,1.9c0,1-0.8,1.8-2.3,1.8c-1.5,0-2.2-0.8-2.4-1.8H780.4z"/>
							<path class="st11" d="M789,2084.1h-2.9v1.7h3.2l-0.1,0.9h-4.1v-5.9h4.1v0.9h-3v1.5h2.9V2084.1z"/>
							<path class="st11" d="M793.5,2080.8v5.9h-1.1v-5.9H793.5z"/>
							<path class="st11" d="M795,2086.7v-5.9h1.4c0.8,1.4,2.3,3.9,2.6,4.6h0c-0.1-0.7-0.1-1.7-0.1-2.6v-1.9h1v5.9h-1.3
								c-0.7-1.2-2.3-4.1-2.7-4.8h0c0,0.6,0.1,1.7,0.1,2.8v2H795z"/>
							<path class="st11" d="M804.8,2086.7v-2.1c0-0.1,0-0.1,0-0.2l-2.1-3.6h1.3c0.5,0.9,1.2,2.2,1.5,2.8c0.3-0.6,1-1.9,1.5-2.8h1.2
								l-2.1,3.6c0,0,0,0.1,0,0.2v2.1H804.8z"/>
							<path class="st11" d="M814.1,2083.7c0,1.6-1,3.1-2.9,3.1c-1.8,0-2.8-1.4-2.8-3.1c0-1.7,1-3.1,2.9-3.1
								C813.1,2080.7,814.1,2081.9,814.1,2083.7z M809.6,2083.7c0,1.2,0.6,2.2,1.7,2.2c1.2,0,1.7-1,1.7-2.1c0-1.2-0.5-2.1-1.7-2.1
								C810.1,2081.6,809.6,2082.5,809.6,2083.7z"/>
							<path class="st11" d="M816.3,2080.8v3.5c0,1.2,0.6,1.6,1.3,1.6c0.8,0,1.3-0.4,1.3-1.6v-3.5h1.1v3.5c0,2-1.1,2.5-2.4,2.5
								c-1.3,0-2.4-0.6-2.4-2.5v-3.5H816.3z"/>
							<path class="st11" d="M822.6,2084.3v2.5h-1.1v-5.9h2.5c1.3,0,1.9,0.7,1.9,1.6c0,0.8-0.4,1.2-0.9,1.4c0.4,0.1,0.8,0.4,0.8,1.5
								v0.3c0,0.4,0,0.9,0.1,1.1h-1.1c-0.1-0.3-0.1-0.7-0.1-1.3v-0.1c0-0.7-0.2-1-1.2-1H822.6z M822.6,2083.4h1.1
								c0.8,0,1.1-0.3,1.1-0.8c0-0.5-0.3-0.8-1-0.8h-1.2V2083.4z"/>
						</g>
					</g>
					<g>
						<g>
							<path class="st11" d="M775.6,2102.2l-2.6-9.9h2c0.9,4.1,1.5,6.8,1.7,7.9h0c0.3-1.6,1.4-5.5,2-7.9h1.7c0.5,2,1.7,6.2,1.9,7.8
								h0c0.3-2,1.4-6.1,1.9-7.8h1.8l-2.7,9.9h-1.9c-0.5-2.2-1.6-5.9-1.9-7.5h0c-0.3,1.7-1.4,5.4-1.9,7.5H775.6z"/>
							<path class="st11" d="M788.6,2098.9c0,1.1,0.6,2.1,1.7,2.1c1,0,1.2-0.4,1.4-0.9h1.8c-0.3,0.9-1.1,2.3-3.3,2.3
								c-2.4,0-3.4-1.8-3.4-3.7c0-2.3,1.2-3.9,3.5-3.9c2.5,0,3.3,1.9,3.3,3.6c0,0.2,0,0.4,0,0.6H788.6z M791.8,2097.8
								c0-1-0.4-1.8-1.5-1.8c-1.1,0-1.5,0.7-1.6,1.8H791.8z"/>
							<path class="st11" d="M795.1,2091.7h1.8v4c0.3-0.5,0.9-1,2.2-1c1.9,0,3,1.6,3,3.7c0,2.1-1.1,4-3.2,4c-1.1,0-1.6-0.4-2-1
								c0,0.3,0,0.6-0.1,0.8h-1.7c0-0.8,0-1.6,0-2.4V2091.7z M800.2,2098.4c0-1.3-0.5-2.3-1.7-2.3c-1.3,0-1.8,0.9-1.8,2.4
								c0,1.3,0.4,2.4,1.7,2.4C799.6,2100.9,800.2,2099.9,800.2,2098.4z"/>
							<path class="st11" d="M807.3,2092.3h4.1c2.3,0,3.2,1.2,3.2,2.5c0,1.1-0.6,1.9-1.3,2.1c0.7,0.2,1.6,0.9,1.6,2.3
								c0,1.8-1.4,2.9-3.4,2.9h-4.3V2092.3z M811.2,2096.3c1.2,0,1.6-0.5,1.6-1.3c0-0.8-0.6-1.2-1.5-1.2h-2.2v2.5H811.2z
								 M809.1,2100.7h2.1c1.2,0,1.8-0.5,1.8-1.5c0-0.9-0.6-1.5-1.9-1.5h-2V2100.7z"/>
							<path class="st11" d="M816.6,2096.8c0-0.8,0-1.5,0-2h1.7c0,0.2,0,0.9,0,1.4c0.3-0.9,1.2-1.5,2.4-1.5v1.7
								c-1.5,0-2.4,0.5-2.4,2.5v3.3h-1.8V2096.8z"/>
							<path class="st11" d="M828.7,2098.5c0,2.2-1.3,3.9-3.6,3.9c-2.2,0-3.5-1.6-3.5-3.8c0-2.2,1.3-3.9,3.6-3.9
								C827.3,2094.7,828.7,2096.2,828.7,2098.5z M823.3,2098.5c0,1.5,0.7,2.4,1.8,2.4c1.1,0,1.7-0.9,1.7-2.4c0-1.6-0.6-2.4-1.8-2.4
								C824,2096.1,823.3,2096.9,823.3,2098.5z"/>
							<path class="st11" d="M831.3,2094.8c0.7,3.1,1.2,4.9,1.3,5.8h0c0.1-0.8,0.5-2.2,1.4-5.8h1.7c0.9,3.8,1.2,4.9,1.3,5.7h0
								c0.2-0.8,0.4-1.9,1.4-5.7h1.8l-2.2,7.3h-1.9c-0.6-2.8-1.1-4.6-1.3-5.5h0c-0.1,0.9-0.6,2.7-1.3,5.5h-1.9l-2.1-7.3H831.3z"/>
							<path class="st11" d="M842.7,2100c0.2,0.7,0.7,1,1.5,1c0.9,0,1.2-0.3,1.2-0.9c0-0.5-0.3-0.8-1.5-1.1
								c-2.3-0.6-2.7-1.3-2.7-2.3c0-1.1,0.8-2.2,2.9-2.2c2.1,0,2.9,1.2,3,2.2h-1.7c-0.1-0.3-0.3-0.9-1.3-0.9c-0.8,0-1,0.4-1,0.7
								c0,0.4,0.3,0.6,1.5,0.9c2.4,0.6,2.8,1.4,2.8,2.4c0,1.2-1,2.3-3.1,2.3c-2.1,0-3-1-3.2-2.3H842.7z"/>
							<path class="st11" d="M850,2098.9c0,1.1,0.6,2.1,1.7,2.1c1,0,1.2-0.4,1.4-0.9h1.8c-0.3,0.9-1.1,2.3-3.3,2.3
								c-2.4,0-3.4-1.8-3.4-3.7c0-2.3,1.2-3.9,3.5-3.9c2.5,0,3.3,1.9,3.3,3.6c0,0.2,0,0.4,0,0.6H850z M853.2,2097.8
								c0-1-0.4-1.8-1.5-1.8c-1.1,0-1.5,0.7-1.6,1.8H853.2z"/>
							<path class="st11" d="M856.4,2096.8c0-0.8,0-1.5,0-2h1.7c0,0.2,0,0.9,0,1.4c0.3-0.9,1.2-1.5,2.4-1.5v1.7
								c-1.5,0-2.4,0.5-2.4,2.5v3.3h-1.8V2096.8z"/>
						</g>
					</g>
				</g>
				<g transform="scale(4.00216 4.0011)">
					<path class="st11" d="M138,527.2c0,0.6-0.5,1-1,1c0,0,0,0,0,0h-34.3c-0.6,0-1-0.5-1.1-1v-8.4c0-0.6,0.5-1,1.1-1h34.3
						c0.6,0,1,0.5,1,1c0,0,0,0,0,0L138,527.2L138,527.2z"/>
					<path class="st9" d="M136.9,528.5h-34.3c-0.7,0-1.3-0.6-1.3-1.3v-8.4c0-0.7,0.6-1.3,1.3-1.3h34.3c0.7,0,1.3,0.6,1.3,1.3v8.4
						C138.2,527.9,137.7,528.5,136.9,528.5L136.9,528.5z"/>
					<path d="M138,527.2c0,0.6-0.5,1-1,1c0,0,0,0,0,0h-34.3c-0.6,0-1-0.5-1.1-1v-8.4c0-0.6,0.5-1,1.1-1h34.3c0.6,0,1,0.5,1,1
						c0,0,0,0,0,0L138,527.2L138,527.2z"/>
					<path class="st11" d="M109.6,522.9c0-0.9,0.7-1.3,0.8-1.3c-0.4-0.6-1.1-0.7-1.3-0.7c-0.5-0.1-1.1,0.3-1.3,0.3
						c-0.3,0-0.7-0.3-1.2-0.3c-0.6,0-1.1,0.3-1.4,0.9c-0.6,1.1-0.2,2.7,0.4,3.5c0.3,0.4,0.6,0.9,1.1,0.9c0.4,0,0.6-0.3,1.1-0.3
						c0.5,0,0.7,0.3,1.2,0.3c0.5,0,0.8-0.4,1.1-0.9c0.3-0.5,0.5-1,0.5-1C110.5,524.3,109.6,524,109.6,522.9L109.6,522.9z
						 M108.7,520.3c0.2-0.3,0.4-0.7,0.4-1.1c-0.3,0-0.8,0.2-1,0.5c-0.2,0.3-0.4,0.7-0.4,1.1C108,520.9,108.4,520.6,108.7,520.3
						L108.7,520.3z"/>
					
						<linearGradient id="SVGID_8_" gradientUnits="userSpaceOnUse" x1="14.3968" y1="332.8539" x2="14.3968" y2="334.984" gradientTransform="matrix(74.1746 0 0 -74.1346 -939.4836 25204.4727)">
						<stop  offset="0" style="stop-color:#131313;stop-opacity:0.1"/>
						<stop  offset="0.123" style="stop-color:#1B1B1B;stop-opacity:0.151"/>
						<stop  offset="0.308" style="stop-color:#323232;stop-opacity:0.227"/>
						<stop  offset="0.532" style="stop-color:#565656;stop-opacity:0.318"/>
						<stop  offset="0.783" style="stop-color:#808080;stop-opacity:0.421"/>
						<stop  offset="1" style="stop-color:#9B9B9B;stop-opacity:0.51"/>
					</linearGradient>
					<path class="st19" d="M136.9,517.5h-18.4l7.2,10.9h11.2c0.7,0,1.3-0.6,1.3-1.3v-8.4C138.2,518.1,137.7,517.5,136.9,517.5z"/>
					<g>
						<path class="st11" d="M116,526.1h-0.6l-0.3-1.1h-1.2l-0.3,1.1h-0.6l1.2-3.6h0.7L116,526.1L116,526.1z M114.9,524.6l-0.3-1
							c0-0.1-0.1-0.3-0.2-0.7h0c0,0.2-0.1,0.4-0.2,0.7l-0.3,1H114.9z M119,524.8c0,0.4-0.1,0.8-0.4,1.1c-0.2,0.2-0.5,0.3-0.8,0.3
							c-0.3,0-0.6-0.1-0.7-0.4v1.4h-0.6v-2.8c0-0.3,0-0.6,0-0.9h0.5l0,0.4h0c0.2-0.3,0.5-0.5,0.9-0.5c0.3,0,0.6,0.1,0.8,0.4
							C118.9,524.1,119,524.4,119,524.8L119,524.8z M118.4,524.8c0-0.3-0.1-0.5-0.2-0.6c-0.1-0.2-0.3-0.3-0.5-0.3
							c-0.1,0-0.3,0-0.4,0.1c-0.1,0.1-0.2,0.2-0.2,0.4c0,0.1,0,0.1,0,0.2v0.4c0,0.2,0.1,0.4,0.2,0.5c0.1,0.1,0.3,0.2,0.5,0.2
							c0.2,0,0.4-0.1,0.5-0.3C118.4,525.3,118.4,525.1,118.4,524.8z M122,524.8c0,0.4-0.1,0.8-0.4,1.1c-0.2,0.2-0.5,0.3-0.8,0.3
							c-0.3,0-0.6-0.1-0.7-0.4v1.4h-0.6v-2.8c0-0.3,0-0.6,0-0.9h0.5l0,0.4h0c0.2-0.3,0.5-0.5,0.9-0.5c0.3,0,0.6,0.1,0.8,0.4
							C121.9,524.1,122,524.4,122,524.8L122,524.8z M121.4,524.8c0-0.3-0.1-0.5-0.2-0.6c-0.1-0.2-0.3-0.3-0.5-0.3
							c-0.1,0-0.3,0-0.4,0.1c-0.1,0.1-0.2,0.2-0.2,0.4c0,0.1,0,0.1,0,0.2v0.4c0,0.2,0.1,0.4,0.2,0.5c0.1,0.1,0.3,0.2,0.5,0.2
							c0.2,0,0.4-0.1,0.5-0.3C121.4,525.3,121.4,525.1,121.4,524.8z M125.4,525.1c0,0.3-0.1,0.6-0.3,0.8c-0.2,0.2-0.6,0.3-1,0.3
							c-0.4,0-0.7-0.1-0.9-0.2l0.1-0.5c0.3,0.2,0.5,0.2,0.8,0.2c0.2,0,0.4,0,0.5-0.1c0.1-0.1,0.2-0.2,0.2-0.4c0-0.1-0.1-0.3-0.2-0.4
							c-0.1-0.1-0.3-0.2-0.5-0.3c-0.6-0.2-1-0.6-1-1c0-0.3,0.1-0.5,0.3-0.7c0.2-0.2,0.5-0.3,0.9-0.3c0.3,0,0.6,0.1,0.8,0.2l-0.1,0.5
							c-0.2-0.1-0.4-0.2-0.7-0.2c-0.2,0-0.4,0.1-0.5,0.2c-0.1,0.1-0.1,0.2-0.1,0.3c0,0.1,0.1,0.3,0.2,0.4c0.1,0.1,0.3,0.2,0.5,0.3
							c0.3,0.1,0.5,0.3,0.7,0.4C125.3,524.7,125.4,524.9,125.4,525.1L125.4,525.1z M127.3,523.9h-0.6v1.3c0,0.3,0.1,0.5,0.3,0.5
							c0.1,0,0.2,0,0.3,0l0,0.4c-0.1,0-0.3,0.1-0.5,0.1c-0.2,0-0.4-0.1-0.5-0.2c-0.1-0.1-0.2-0.4-0.2-0.7v-1.3h-0.4v-0.4h0.4V523
							l0.6-0.2v0.7h0.6V523.9L127.3,523.9z M130.2,524.8c0,0.4-0.1,0.7-0.3,1c-0.2,0.3-0.6,0.4-1,0.4c-0.4,0-0.7-0.1-0.9-0.4
							c-0.2-0.3-0.3-0.6-0.3-1c0-0.4,0.1-0.7,0.4-1c0.2-0.3,0.6-0.4,1-0.4c0.4,0,0.7,0.1,0.9,0.4
							C130.1,524.1,130.2,524.4,130.2,524.8L130.2,524.8z M129.6,524.8c0-0.2-0.1-0.4-0.2-0.6c-0.1-0.2-0.3-0.3-0.5-0.3
							c-0.2,0-0.4,0.1-0.5,0.3c-0.1,0.2-0.2,0.4-0.2,0.6c0,0.2,0.1,0.4,0.2,0.6c0.1,0.2,0.3,0.3,0.5,0.3c0.2,0,0.4-0.1,0.5-0.3
							C129.6,525.3,129.6,525.1,129.6,524.8L129.6,524.8z M132.1,524c-0.1,0-0.1,0-0.2,0c-0.2,0-0.4,0.1-0.5,0.2
							c-0.1,0.1-0.1,0.3-0.1,0.5v1.4h-0.6v-1.8c0-0.3,0-0.6,0-0.8h0.5l0,0.5h0c0.1-0.2,0.2-0.3,0.3-0.4c0.1-0.1,0.3-0.1,0.4-0.1
							c0.1,0,0.1,0,0.1,0L132.1,524L132.1,524z M134.7,524.7c0,0.1,0,0.2,0,0.3H133c0,0.3,0.1,0.5,0.3,0.6c0.1,0.1,0.3,0.2,0.6,0.2
							c0.3,0,0.5,0,0.7-0.1l0.1,0.4c-0.2,0.1-0.5,0.2-0.9,0.2c-0.4,0-0.7-0.1-1-0.4c-0.2-0.2-0.3-0.6-0.3-1c0-0.4,0.1-0.7,0.3-1
							c0.2-0.3,0.5-0.4,0.9-0.4c0.4,0,0.7,0.1,0.9,0.4C134.7,524.1,134.7,524.4,134.7,524.7L134.7,524.7z M134.2,524.5
							c0-0.2,0-0.3-0.1-0.4c-0.1-0.2-0.3-0.2-0.5-0.2c-0.2,0-0.3,0.1-0.5,0.2c-0.1,0.1-0.2,0.3-0.2,0.5L134.2,524.5L134.2,524.5z"/>
					</g>
					<g>
						<path class="st11" d="M113.7,521.2c-0.2,0-0.3,0-0.4,0v-1.8c0.2,0,0.3,0,0.5,0c0.7,0,1,0.3,1,0.9
							C114.7,520.9,114.4,521.2,113.7,521.2z M113.8,519.6c-0.1,0-0.2,0-0.2,0v1.3c0,0,0.1,0,0.2,0c0.4,0,0.7-0.2,0.7-0.7
							C114.4,519.8,114.2,519.6,113.8,519.6z M115.7,521.2c-0.4,0-0.6-0.3-0.6-0.7c0-0.4,0.2-0.7,0.6-0.7c0.4,0,0.6,0.3,0.6,0.7
							C116.3,520.9,116.1,521.2,115.7,521.2L115.7,521.2z M115.7,520.1c-0.2,0-0.3,0.2-0.3,0.5c0,0.3,0.1,0.5,0.3,0.5
							s0.3-0.2,0.3-0.5C116,520.3,115.9,520.1,115.7,520.1L115.7,520.1z M118.5,519.9l-0.4,1.3h-0.3l-0.2-0.6c0-0.1-0.1-0.3-0.1-0.4
							h0c0,0.1-0.1,0.3-0.1,0.4l-0.2,0.6H117l-0.4-1.3h0.3l0.1,0.6c0,0.1,0.1,0.3,0.1,0.4h0c0-0.1,0.1-0.2,0.1-0.4l0.2-0.6h0.2
							l0.2,0.6c0,0.1,0.1,0.3,0.1,0.4h0c0-0.1,0-0.3,0.1-0.4l0.2-0.6L118.5,519.9L118.5,519.9z M120,521.2h-0.3v-0.7
							c0-0.2-0.1-0.3-0.3-0.3c-0.2,0-0.3,0.1-0.3,0.3v0.8h-0.3v-0.9c0-0.1,0-0.2,0-0.4h0.3l0,0.2h0c0.1-0.1,0.2-0.2,0.4-0.2
							c0.3,0,0.4,0.2,0.4,0.5L120,521.2L120,521.2z M120.8,521.2h-0.3v-1.9h0.3V521.2z M121.8,521.2c-0.4,0-0.6-0.3-0.6-0.7
							c0-0.4,0.2-0.7,0.6-0.7c0.4,0,0.6,0.3,0.6,0.7C122.5,520.9,122.2,521.2,121.8,521.2L121.8,521.2z M121.8,520.1
							c-0.2,0-0.3,0.2-0.3,0.5c0,0.3,0.1,0.5,0.3,0.5c0.2,0,0.3-0.2,0.3-0.5C122.2,520.3,122,520.1,121.8,520.1L121.8,520.1z
							 M123.6,521.2l0-0.1h0c-0.1,0.1-0.2,0.2-0.4,0.2c-0.2,0-0.4-0.2-0.4-0.4c0-0.3,0.3-0.5,0.8-0.5v0c0-0.2-0.1-0.3-0.3-0.3
							c-0.1,0-0.2,0-0.3,0.1l-0.1-0.2c0.1-0.1,0.3-0.1,0.4-0.1c0.3,0,0.5,0.2,0.5,0.5v0.5c0,0.1,0,0.2,0,0.3L123.6,521.2
							L123.6,521.2z M123.5,520.5c-0.3,0-0.5,0.1-0.5,0.3c0,0.1,0.1,0.2,0.2,0.2c0.1,0,0.3-0.1,0.3-0.3V520.5z M125.2,521.2l0-0.2h0
							c-0.1,0.2-0.2,0.2-0.4,0.2c-0.3,0-0.5-0.3-0.5-0.7c0-0.4,0.2-0.7,0.6-0.7c0.2,0,0.3,0.1,0.4,0.2h0v-0.7h0.3v1.5
							c0,0.1,0,0.2,0,0.3H125.2L125.2,521.2z M125.2,520.4c0-0.2-0.1-0.3-0.3-0.3c-0.2,0-0.3,0.2-0.3,0.5c0,0.3,0.1,0.4,0.3,0.4
							c0.2,0,0.3-0.2,0.3-0.3V520.4L125.2,520.4z M127.3,521.2c-0.4,0-0.6-0.3-0.6-0.7c0-0.4,0.2-0.7,0.6-0.7c0.4,0,0.6,0.3,0.6,0.7
							C127.9,520.9,127.7,521.2,127.3,521.2L127.3,521.2z M127.3,520.1c-0.2,0-0.3,0.2-0.3,0.5c0,0.3,0.1,0.5,0.3,0.5
							c0.2,0,0.3-0.2,0.3-0.5C127.6,520.3,127.5,520.1,127.3,520.1L127.3,520.1z M129.5,521.2h-0.3v-0.7c0-0.2-0.1-0.3-0.3-0.3
							c-0.2,0-0.3,0.1-0.3,0.3v0.8h-0.3v-0.9c0-0.1,0-0.2,0-0.4h0.3l0,0.2h0c0.1-0.1,0.2-0.2,0.4-0.2c0.3,0,0.4,0.2,0.4,0.5V521.2z
							 M131.4,520.1h-0.3v0.6c0,0.2,0.1,0.2,0.2,0.2c0.1,0,0.1,0,0.1,0l0,0.2c-0.1,0-0.1,0-0.2,0c-0.2,0-0.4-0.1-0.4-0.5v-0.7h-0.2
							v-0.2h0.2v-0.2l0.3-0.1v0.3h0.3V520.1L131.4,520.1z M132.9,521.2h-0.3v-0.7c0-0.2-0.1-0.3-0.3-0.3c-0.1,0-0.3,0.1-0.3,0.3v0.8
							h-0.3v-1.9h0.3v0.8h0c0.1-0.1,0.2-0.2,0.4-0.2c0.3,0,0.4,0.2,0.4,0.5V521.2L132.9,521.2z M134.5,520.6h-0.9
							c0,0.2,0.2,0.4,0.4,0.4c0.1,0,0.2,0,0.3-0.1l0,0.2c-0.1,0.1-0.3,0.1-0.4,0.1c-0.4,0-0.6-0.3-0.6-0.7c0-0.4,0.2-0.7,0.6-0.7
							c0.3,0,0.5,0.2,0.5,0.6C134.5,520.5,134.5,520.6,134.5,520.6L134.5,520.6z M134.2,520.4c0-0.2-0.1-0.3-0.3-0.3
							c-0.2,0-0.3,0.1-0.3,0.3H134.2L134.2,520.4z"/>
					</g>
				</g>
			</g>
		</g>
		<g>
			<linearGradient id="SVGID_9_" gradientUnits="userSpaceOnUse" x1="112.6742" y1="930.8965" x2="943.8945" y2="458.8455">
				<stop  offset="0" style="stop-color:#00868E"/>
				<stop  offset="9.000000e-02" style="stop-color:#00938D"/>
				<stop  offset="0.283" style="stop-color:#00AC8C"/>
				<stop  offset="0.488" style="stop-color:#00BB8B"/>
				<stop  offset="0.715" style="stop-color:#00C58A"/>
				<stop  offset="1" style="stop-color:#00C98A"/>
			</linearGradient>
			<path class="st20" d="M-8.9,452.5c0,0,275.8-112.1,670.8-55.9c403.2,57.4,631.2-10.7,631.2-10.7V808H-13.1L-8.9,452.5z"/>
			<defs>
				<filter id="Adobe_OpacityMaskFilter_1_" filterUnits="userSpaceOnUse" x="9.7" y="377.4" width="894.3" height="456.9">
					<feColorMatrix  type="matrix" values="1 0 0 0 0  0 1 0 0 0  0 0 1 0 0  0 0 0 1 0"/>
				</filter>
			</defs>
			<mask maskUnits="userSpaceOnUse" x="9.7" y="377.4" width="894.3" height="456.9" id="SVGID_10_">
				<g class="st21">
					<linearGradient id="SVGID_11_" gradientUnits="userSpaceOnUse" x1="92.0024" y1="768.0288" x2="845.3804" y2="579.3129">
						<stop  offset="0" style="stop-color:#FFFFFF"/>
						<stop  offset="1" style="stop-color:#000000"/>
					</linearGradient>
					<path class="st22" d="M2,452.5c0,0,275.8-112.1,670.8-55.9C1076,454,1304,385.9,1304,385.9V808H-2.2L2,452.5z"/>
				</g>
			</mask>
			<g class="st23">
				<g id="Grupo_188_2_">
					<path id="Trazado_222_2_" class="st5" d="M904,722.1v-52.7c-28.5,0-51.6,23.1-51.6,51.7c0,0.3,0,0.7,0,1L904,722.1z"/>
					<path id="Trazado_223_2_" class="st6" d="M903.3,608.5l-109,113.2V608.5H903.3z"/>
					<path id="Trazado_224_2_" class="st6" d="M778.1,608.3l-97.3,101.1V608.3H778.1z"/>
					<path id="Trazado_225_2_" class="st7" d="M840.2,494.8c0-0.5,0-1,0-1.4h-46c1,61.2,49.1,111,109.7,114.4v-46.3
						C871.2,559.9,840.2,527.9,840.2,494.8z"/>
					<path id="Rectángulo_162_2_" class="st5" d="M721.1,642.5h73.2l0,0v79.3l0,0h-82.5l0,0v-70.1
						C711.9,646.6,716,642.5,721.1,642.5L721.1,642.5z"/>
					<circle id="Elipse_100_2_" class="st7" cx="737.7" cy="551.1" r="38"/>
					<path id="Trazado_226_2_" class="st5" d="M739.7,642.5l36.3-33.9v33.9"/>
				</g>
				<g>
					<g id="Grupo_185_1_">
						<path id="Trazado_199_1_" class="st5" d="M233.8,377.4v52.7c28.5,0,51.6-23.1,51.6-51.6c0-0.3,0-0.7,0-1H233.8z"/>
						<path id="Trazado_200_1_" class="st6" d="M234.5,491.6l109-113.2v113.2H234.5z"/>
						<path id="Trazado_201_1_" class="st7" d="M297.6,604.6c0,0.5,0,1,0,1.4h46c-1-61.2-49.1-111-109.7-114.4V538
							C266.6,539.5,297.6,571.5,297.6,604.6z"/>
						<path id="Rectángulo_153_1_" class="st5" d="M427.6,450.1h30.2l0,0v41l0,0h-39.4l0,0v-31.8
							C418.4,454.3,422.5,450.1,427.6,450.1L427.6,450.1z"/>
						<path id="Rectángulo_154_1_" class="st5" d="M412.5,453h-69.1l0,0v-75.3l0,0h78.3l0,0v66.1C421.7,448.9,417.6,453,412.5,453
							L412.5,453z"/>
						<path id="Trazado_202_1_" class="st8" d="M414.4,511.9c-19.9,1.4-35.3,17.9-35.4,37.8h35.4V511.9z"/>
						<path id="Trazado_203_1_" class="st5" d="M419.2,453l-60.8,52.7V453"/>
						<path id="Trazado_204_1_" class="st5" d="M426.2,546.5L402.7,576v-26.2"/>
						<path id="Rectángulo_155_1_" class="st5" d="M430.2,700.6h-69.1l0,0v-94.8l0,0h78.3l0,0v85.6
							C439.4,696.5,435.2,700.6,430.2,700.6L430.2,700.6z"/>
						<path id="Trazado_205_1_" class="st6" d="M200.7,627.8H279v63.5c0,5.1-4.1,9.2-9.2,9.2c0,0,0,0,0,0h-92.5L200.7,627.8z"/>
						<path id="Trazado_206_1_" class="st5" d="M413,700.6l-34.4,32.2v-32.2"/>
						<path id="Trazado_207_1_" class="st5" d="M268.2,491.6l-34.4,32.2v-32.2"/>
						<path id="Trazado_208_1_" class="st5" d="M429,450.1c0.5,0,23.1-32.2,23.1-32.2v32.2"/>
					</g>
					<g id="Grupo_186_1_">
						<rect id="Rectángulo_156_1_" x="124.8" y="378.8" class="st8" width="109" height="113.2"/>
						<path id="Trazado_209_1_" class="st5" d="M132.1,605.6h67.9c0-36.8-29.8-66.6-66.6-66.6c-0.4,0-0.9,0-1.3,0L132.1,605.6z"/>
						<path id="Trazado_210_1_" class="st6" d="M233.1,492l-109,113.2V492H233.1z"/>
						<rect id="Rectángulo_157_1_" x="10.9" y="377.4" class="st5" width="113.2" height="114.4"/>
						<path id="Trazado_211_1_" class="st6" d="M124.1,491.8L10.9,377.4h113.2V491.8z"/>
						<path id="Trazado_212_1_" class="st7" d="M170,378.8c0-0.5,0-1,0-1.4h-46c1,61.2,49.1,111,109.7,114.4v-46.3
							C201,444,170,412,170,378.8z"/>
						<path id="Trazado_213_1_" class="st5" d="M355.6,549.1c0,0.2,0,0.5,0,0.7H379c-0.5-31.1-24.9-56.5-55.9-58.3v23.6
							C339.9,515.9,355.6,532.2,355.6,549.1z"/>
						<path id="Rectángulo_158_1_" class="st5" d="M40,532.8H9.7l0,0v-41l0,0h39.4l0,0v31.8C49.2,528.7,45,532.8,40,532.8L40,532.8
							z"/>
						<path id="Rectángulo_159_1_" class="st5" d="M55.1,530h69.1l0,0v75.3l0,0H45.9l0,0v-66.1C45.9,534.1,50,530,55.1,530
							L55.1,530z"/>
						<circle id="Elipse_95_1_" class="st6" cx="191.5" cy="421.1" r="27.2"/>
						<circle id="Elipse_96_1_" class="st6" cx="288.6" cy="679.1" r="27.2"/>
						<circle id="Elipse_97_1_" class="st7" cx="67.5" cy="434.6" r="38"/>
						<path id="Trazado_214_1_" class="st5" d="M72.3,530l34.4-32.2V530"/>
						<path id="Trazado_215_1_" class="st5" d="M38.6,532.8c-0.5,0-23.1,32.2-23.1,32.2v-32.2"/>
					</g>
					<g id="Grupo_187_2_">
						<rect id="Rectángulo_160_2_" x="12.8" y="718.8" class="st8" width="109" height="113.2"/>
						<path id="Trazado_216_2_" class="st5" d="M12.8,605.3v52.7c28.5,0,51.6-23.1,51.6-51.6c0-0.3,0-0.7,0-1H12.8z"/>
						<path id="Trazado_217_2_" class="st6" d="M13.5,718.8l109-113.2v113.2H13.5z"/>
						<rect id="Rectángulo_161_2_" x="122.5" y="719" class="st5" width="113.2" height="114.4"/>
						<path id="Trazado_218_2_" class="st6" d="M122.5,719l113.2,114.4H122.5L122.5,719z"/>
						<path id="Trazado_219_2_" class="st7" d="M76.6,832c0,0.5,0,1,0,1.4h46c-1-61.2-49.1-111-109.7-114.4v46.3
							C45.6,766.8,76.6,798.8,76.6,832z"/>
						<path id="Trazado_220_2_" class="st5" d="M200.1,688.6v-83L161,649.6l-21.1,39H200.1z"/>
						<circle id="Elipse_98_2_" class="st6" cx="55.1" cy="789.7" r="27.2"/>
						<circle id="Elipse_99_2_" class="st7" cx="179.1" cy="776.2" r="38"/>
						<path id="Trazado_221_2_" class="st5" d="M174.3,680.9L139.9,713v-32.2"/>
					</g>
					<g id="Grupo_188_1_">
						<path id="Trazado_222_1_" class="st5" d="M459,834.3v-52.7c-28.5,0-51.6,23.1-51.6,51.7c0,0.3,0,0.7,0,1L459,834.3z"/>
						<path id="Trazado_223_1_" class="st6" d="M458.3,720.8L349.3,834V720.8L458.3,720.8z"/>
						<path id="Trazado_224_1_" class="st6" d="M333.1,720.6l-97.3,101.1V720.6H333.1z"/>
						<path id="Trazado_225_1_" class="st7" d="M395.2,607c0-0.5,0-1,0-1.4h-46c1,61.2,49.1,111,109.7,114.4v-46.3
							C426.2,672.2,395.2,640.2,395.2,607z"/>
						<path id="Rectángulo_162_1_" class="st5" d="M276.1,754.7h73.2l0,0V834l0,0h-82.5l0,0v-70.1
							C266.9,758.8,271,754.7,276.1,754.7L276.1,754.7z"/>
						<circle id="Elipse_100_1_" class="st7" cx="292.6" cy="663.4" r="38"/>
						<path id="Trazado_226_1_" class="st5" d="M294.7,754.7l36.3-33.9v33.9"/>
					</g>
					<g id="Grupo_187_1_">
						<rect id="Rectángulo_160_1_" x="457.8" y="606.5" class="st8" width="109" height="113.2"/>
						<path id="Trazado_216_1_" class="st5" d="M457.8,493v52.7c28.5,0,51.6-23.1,51.6-51.6c0-0.3,0-0.7,0-1H457.8z"/>
						<path id="Trazado_217_1_" class="st6" d="M458.5,606.5l109-113.2v113.2H458.5z"/>
						<rect id="Rectángulo_161_1_" x="567.6" y="606.7" class="st5" width="113.2" height="114.4"/>
						<path id="Trazado_218_1_" class="st6" d="M567.6,606.7l113.2,114.4H567.6L567.6,606.7z"/>
						<path id="Trazado_219_1_" class="st7" d="M521.6,719.7c0,0.5,0,1,0,1.4h46c-1-61.2-49.1-111-109.7-114.4V653
							C490.6,654.6,521.6,686.5,521.6,719.7z"/>
						<path id="Trazado_220_1_" class="st5" d="M645.2,576.4v-83l-39.1,44.1l-21.1,39H645.2z"/>
						<circle id="Elipse_98_1_" class="st6" cx="500.2" cy="677.4" r="27.2"/>
						<circle id="Elipse_99_1_" class="st7" cx="624.2" cy="664" r="38"/>
						<path id="Trazado_221_1_" class="st5" d="M619.4,568.6l-34.4,32.2v-32.2"/>
					</g>
				</g>
			</g>
		</g>
	</g>
</g>
</svg>
