<svg xmlns="http://www.w3.org/2000/svg" xmlns:xlink="http://www.w3.org/1999/xlink" width="144.051" height="149.607" viewBox="0 0 175.952 137.301">
  <defs>
    <clipPath id="clip-path">
      <rect id="Rectángulo_345" data-name="Rectángulo 345" width="24.929" height="26.554" rx="2.232" transform="translate(925.456 805.62)" fill="none"/>
    </clipPath>
  </defs>
  <g id="Grupo_731" data-name="Grupo 731" transform="translate(-880.048 -791.782)">
    <g id="On_Boarding_4" data-name="On Boarding 4">
      <circle id="Elipse_173" data-name="Elipse 173" cx="3.067" cy="3.067" r="3.067" transform="translate(880.548 884.883)" fill="none" stroke="#00c98d" stroke-miterlimit="10" stroke-width="1"/>
      <circle id="Elipse_174" data-name="Elipse 174" cx="3.067" cy="3.067" r="3.067" transform="translate(903.428 813.398)" fill="none" stroke="#00c98d" stroke-miterlimit="10" stroke-width="1"/>
      <circle id="Elipse_175" data-name="Elipse 175" cx="7.191" cy="7.191" r="7.191" transform="translate(892.177 813.553)" fill="#00ecff"/>
      <circle id="Elipse_176" data-name="Elipse 176" cx="1.058" cy="1.058" r="1.058" transform="translate(1039.817 883.987)" fill="#00c98d"/>
      <path id="Trazado_542" data-name="Trazado 542" d="M881.147,876.386c.2,1.311,10.089,47.14,49.82,51.614,30.532,3.437,65.707.04,79.5-30.251,19.055-41.852,35.354-21.608,42.755-38.833,7.5-17.461.715-45.3-31.437-48.829-24.131-2.651-42.3,21.38-58.425,27-14.635,5.1-42.091,10.042-59.386,4.514C890.319,837.234,876.8,848.161,881.147,876.386Z" fill="#00ecff"/>
      <g id="Grupo_523" data-name="Grupo 523">
        <g id="Grupo_522" data-name="Grupo 522">
          <g id="Grupo_521" data-name="Grupo 521">
            <path id="Trazado_543" data-name="Trazado 543" d="M1010.3,917.963H922.584a4.866,4.866,0,0,1-5.082-4.617V796.48a2.946,2.946,0,0,1,3.077-2.8h91.73a2.946,2.946,0,0,1,3.077,2.8V913.346A4.866,4.866,0,0,1,1010.3,917.963Z" fill="#fff" stroke="#dadada" stroke-miterlimit="10" stroke-width="1"/>
          </g>
        </g>
      </g>
      <rect id="Rectángulo_321" data-name="Rectángulo 321" width="42.399" height="2.961" rx="0.683" transform="translate(962.245 814.984)" fill="#00c98d"/>
      <rect id="Rectángulo_322" data-name="Rectángulo 322" width="42.399" height="2.961" rx="0.683" transform="translate(962.245 824.619)" fill="#00c98d"/>
      <rect id="Rectángulo_323" data-name="Rectángulo 323" width="57.921" height="2.961" rx="0.683" transform="translate(946.723 847.012)" fill="#00868d"/>
      <rect id="Rectángulo_324" data-name="Rectángulo 324" width="57.921" height="2.961" rx="0.683" transform="translate(946.723 858.127)" fill="#00868d"/>
      <rect id="Rectángulo_325" data-name="Rectángulo 325" width="57.921" height="2.961" rx="0.683" transform="translate(946.723 869.243)" fill="#00868d"/>
      <rect id="Rectángulo_326" data-name="Rectángulo 326" width="57.921" height="2.961" rx="0.683" transform="translate(946.723 880.358)" fill="#00868d"/>
      <rect id="Rectángulo_327" data-name="Rectángulo 327" width="57.921" height="2.961" rx="0.683" transform="translate(946.723 891.474)" fill="#00868d"/>
      <g id="Grupo_524" data-name="Grupo 524">
        <rect id="Rectángulo_328" data-name="Rectángulo 328" width="1.269" height="6.768" rx="0.293" transform="translate(882.98 825.814)" fill="#00768d"/>
        <rect id="Rectángulo_329" data-name="Rectángulo 329" width="6.768" height="1.269" rx="0.293" transform="translate(880.442 828.775)" fill="#00768d"/>
      </g>
      <g id="Grupo_525" data-name="Grupo 525">
        <rect id="Rectángulo_330" data-name="Rectángulo 330" width="1.269" height="6.768" rx="0.293" transform="translate(1047.388 906.274)" fill="#00768d"/>
        <rect id="Rectángulo_331" data-name="Rectángulo 331" width="6.768" height="1.269" rx="0.293" transform="translate(1044.85 909.235)" fill="#00768d"/>
      </g>
      <g id="Grupo_526" data-name="Grupo 526">
        <rect id="Rectángulo_332" data-name="Rectángulo 332" width="1.269" height="6.768" rx="0.293" transform="translate(1026.581 791.782)" fill="#00768d"/>
        <rect id="Rectángulo_333" data-name="Rectángulo 333" width="6.768" height="1.269" rx="0.293" transform="translate(1024.043 794.743)" fill="#00768d"/>
      </g>
      <g id="Grupo_529" data-name="Grupo 529">
        <circle id="Elipse_178" data-name="Elipse 178" cx="20.418" cy="20.418" r="20.418" transform="translate(989.975 884.906)" fill="#fff"/>
        <circle id="Elipse_179" data-name="Elipse 179" cx="18.295" cy="18.295" r="18.295" transform="translate(992.098 887.029)" fill="#00c98d"/>
        <g id="Grupo_528" data-name="Grupo 528">
          <path id="Trazado_544" data-name="Trazado 544" d="M1005.075,914.426a1.245,1.245,0,0,1-.172-.013,1.184,1.184,0,0,1-.8-.494l-5-7.17a1.184,1.184,0,0,1,1.941-1.355l4.286,6.141,14.654-11.562a1.184,1.184,0,0,1,1.466,1.859l-15.639,12.339A1.184,1.184,0,0,1,1005.075,914.426Z" fill="#fff"/>
        </g>
      </g>
      <g id="Grupo_536" data-name="Grupo 536">
        <rect id="Rectángulo_335" data-name="Rectángulo 335" width="24.929" height="26.554" rx="2.232" transform="translate(925.456 805.62)" fill="#fff"/>
        <g id="Rectángulo_336" data-name="Rectángulo 336">
          <rect id="Rectángulo_343" data-name="Rectángulo 343" width="24.929" height="26.554" rx="2.232" transform="translate(925.456 805.62)" fill="none"/>
          <rect id="Rectángulo_344" data-name="Rectángulo 344" width="25.781" height="27.406" rx="2.658" transform="translate(925.03 805.194)" fill="none" stroke="#00868d" stroke-miterlimit="10" stroke-width="4"/>
        </g>
        <g id="Grupo_535" data-name="Grupo 535">
          <g id="Grupo_534" data-name="Grupo 534">
            <g id="Grupo_730" data-name="Grupo 730" clip-path="url(#clip-path)">
              <g id="Grupo_533" data-name="Grupo 533">
                <g id="Grupo_532" data-name="Grupo 532">
                  <g id="Grupo_531" data-name="Grupo 531">
                    <g id="Grupo_530" data-name="Grupo 530">
                      <path id="Trazado_545" data-name="Trazado 545" d="M944,818.85c-.575.227-.34,2.191-.444,2.822s-.567,3.087-1.855,3.455-2.086.477-2.094.686c0,.1.029.549.066,1,.039.5.082,1,.082,1l-1.151,1.44-1.272.094-3.111-.9s-.145-3.235-.274-3.734c-.081-.314-1.245-2.494-2.093-4.629a10.541,10.541,0,0,1-.889-3.311c0-2.259.075-4.619,1.467-5.782s10.212-5.336,10.454,1.563a34.2,34.2,0,0,0,1.528,4.636A1.083,1.083,0,0,1,944,818.85Z" fill="#cac7e1"/>
                      <path id="Trazado_546" data-name="Trazado 546" d="M939.669,826.812c.04.5.083,1,.083,1l-.33,1.612-2.094-.078-3.111-.9s-.145-3.234-.274-3.734c-.081-.314-1.245-2.494-2.093-4.629l.114-1.332s2.54-.289,2.641-.277a9.26,9.26,0,0,1,.906,1.646c0,.086-.5,1.594-.5,1.594s-.088,2.081,0,3.684a1.969,1.969,0,0,0,1.436,1.793,5.88,5.88,0,0,0,1.473.233A2.766,2.766,0,0,0,939.669,826.812Z" fill="#cac7e1"/>
                      <path id="Trazado_547" data-name="Trazado 547" d="M934.8,818.051s-1.062,4.435,1.418,6.812,6.787,1.069,7.394.54,2.64-4.228.763-5.935-4.356.159-4.356.159-1.477,1.261-1.961,1.182c-.468-.078-1.551-1.666-1.193-4.5a.344.344,0,0,1,.3-.293c.577-.077,1.912-.557,1.833-3.371a.408.408,0,0,1,.4-.421h.024a25.139,25.139,0,0,1,2.836.205,3.357,3.357,0,0,1,.52.15.28.28,0,0,1,.172.187c.077.274.251.9.294,1.047.056.192.48,1.586.48,1.586a.975.975,0,0,0,.442-.769,14.564,14.564,0,0,1-.1-1.853c.1-.249.816-.429.935-1.008.268-1.311.795-6.419-3.4-4a6.532,6.532,0,0,1-1.508.815c-.585.119-1.114-.423-2.311-.552-1.674-.18-9.117.33-8.225,7.758s4.428,9.125,4.428,9.125S933.91,818.808,934.8,818.051Z" fill="#00768d"/>
                    </g>
                    <path id="Trazado_548" data-name="Trazado 548" d="M934.8,818.051s-.115-1.27-1.088-1.093c-1.307.238-1.864,3.651.871,3.7A10.114,10.114,0,0,1,934.8,818.051Z" fill="#cac7e1"/>
                  </g>
                  <path id="Trazado_549" data-name="Trazado 549" d="M934.3,828.372s3.838,1.459,5.546-.529c4.718.662,6.339.62,9.122,3.948-2.346,4.169-14.892,6.095-15.35,5.942s-6.552-3.4-6.728-3.546A6.964,6.964,0,0,1,934.3,828.372Z" fill="#00768d"/>
                </g>
              </g>
            </g>
          </g>
        </g>
        <rect id="Rectángulo_338" data-name="Rectángulo 338" width="5.573" height="5.573" rx="0.467" transform="translate(929.901 845.166)" fill="#cac7e1"/>
        <path id="Trazado_550" data-name="Trazado 550" d="M931.7,847.012l1.342,2.363,5.849-4.073" fill="none" stroke="#00c98d" stroke-linecap="round" stroke-linejoin="round" stroke-width="6"/>
        <rect id="Rectángulo_339" data-name="Rectángulo 339" width="5.573" height="5.573" rx="0.467" transform="translate(929.901 856.821)" fill="#cac7e1"/>
        <path id="Trazado_551" data-name="Trazado 551" d="M931.7,858.667l1.342,2.363,5.849-4.073" fill="none" stroke="#00c98d" stroke-linecap="round" stroke-linejoin="round" stroke-width="6"/>
        <rect id="Rectángulo_340" data-name="Rectángulo 340" width="5.573" height="5.573" rx="0.467" transform="translate(929.839 868.057)" fill="#cac7e1"/>
        <path id="Trazado_552" data-name="Trazado 552" d="M931.637,869.9l1.342,2.363,5.849-4.073" fill="none" stroke="#00c98d" stroke-linecap="round" stroke-linejoin="round" stroke-width="6"/>
        <rect id="Rectángulo_341" data-name="Rectángulo 341" width="5.573" height="5.573" rx="0.467" transform="translate(930.142 879.052)" fill="#cac7e1"/>
        <path id="Trazado_553" data-name="Trazado 553" d="M931.94,880.9l1.342,2.363,5.851-4.072" fill="none" stroke="#00c98d" stroke-linecap="round" stroke-linejoin="round" stroke-width="6"/>
        <rect id="Rectángulo_342" data-name="Rectángulo 342" width="5.573" height="5.573" rx="0.467" transform="translate(930.142 890.168)" fill="#cac7e1"/>
        <path id="Trazado_554" data-name="Trazado 554" d="M931.94,892.014l1.342,2.363,5.849-4.073" fill="none" stroke="#00c98d" stroke-linecap="round" stroke-linejoin="round" stroke-width="6"/>
      </g>
    </g>
  </g>
</svg>
