<svg xmlns="http://www.w3.org/2000/svg" xmlns:xlink="http://www.w3.org/1999/xlink" width="147.741" height="43.775" viewBox="0 0 147.741 43.775">
  <defs>
    <linearGradient id="linear-gradient" x1="361.398" y1="230.196" x2="361.328" y2="230.232" gradientUnits="objectBoundingBox">
      <stop offset="0" stop-color="#08f"/>
      <stop offset="0.007" stop-color="#0089ff"/>
      <stop offset="0.26" stop-color="#00a6ff"/>
      <stop offset="0.512" stop-color="#00baff"/>
      <stop offset="0.76" stop-color="#00c7ff"/>
      <stop offset="1" stop-color="#00cbff"/>
    </linearGradient>
    <linearGradient id="linear-gradient-2" x1="461.667" y1="676.075" x2="461.539" y2="676.075" gradientUnits="objectBoundingBox">
      <stop offset="0" stop-color="#ffc800"/>
      <stop offset="0.409" stop-color="orange"/>
      <stop offset="0.775" stop-color="#ff8d00"/>
      <stop offset="1" stop-color="#ff8400"/>
    </linearGradient>
    <linearGradient id="linear-gradient-3" x1="281.317" y1="445.593" x2="281.244" y2="445.688" gradientUnits="objectBoundingBox">
      <stop offset="0" stop-color="#ff3a44"/>
      <stop offset="1" stop-color="#ab1162"/>
    </linearGradient>
    <linearGradient id="linear-gradient-4" x1="281.26" y1="448.57" x2="281.293" y2="448.613" gradientUnits="objectBoundingBox">
      <stop offset="0" stop-color="#328871"/>
      <stop offset="0.069" stop-color="#2d8f71"/>
      <stop offset="0.476" stop-color="#15b774"/>
      <stop offset="0.801" stop-color="#06cf75"/>
      <stop offset="1" stop-color="#00d876"/>
    </linearGradient>
  </defs>
  <g id="Grupo_718" data-name="Grupo 718" transform="translate(-243.689 -579.635)">
    <path id="Trazado_1576" data-name="Trazado 1576" d="M385.958,623.41h-136.8a5.419,5.419,0,0,1-5.472-5.472V585.107a5.419,5.419,0,0,1,5.472-5.472h136.8a5.419,5.419,0,0,1,5.472,5.472v32.831A5.419,5.419,0,0,1,385.958,623.41Z"/>
    <path id="Trazado_1577" data-name="Trazado 1577" d="M385.958,580.511a4.624,4.624,0,0,1,4.6,4.6v32.831a4.624,4.624,0,0,1-4.6,4.6h-136.8a4.624,4.624,0,0,1-4.6-4.6V585.107a4.624,4.624,0,0,1,4.6-4.6h136.8m0-.876h-136.8a5.488,5.488,0,0,0-5.472,5.472v32.831a5.419,5.419,0,0,0,5.472,5.472h136.8a5.419,5.419,0,0,0,5.472-5.472V585.107A5.488,5.488,0,0,0,385.958,579.635Z" fill="#8e8e8e"/>
    <path id="Trazado_1578" data-name="Trazado 1578" d="M295.562,590.8a2.98,2.98,0,0,1-.766,2.189,3.405,3.405,0,1,1-2.407-5.8,2.914,2.914,0,0,1,1.313.328,2.386,2.386,0,0,1,.985.766l-.547.547a2.042,2.042,0,0,0-1.751-.766,2.177,2.177,0,0,0-1.751.766,2.642,2.642,0,0,0,0,3.721,2.815,2.815,0,0,0,1.751.766,2.4,2.4,0,0,0,1.86-.766,1.813,1.813,0,0,0,.547-1.313h-2.407v-.876h3.173v.438Zm5.034-2.736h-2.954v2.079h2.736v.766h-2.736v2.08H300.6v.875h-3.83V587.3h3.83Zm3.612,5.8h-.876v-5.8h-1.86V587.3h4.6v.766h-1.86Zm5.034,0V587.3h.876v6.566Zm4.6,0h-.875v-5.8H311.1V587.3h4.487v.766h-1.86v5.8Zm10.4-.875a3.436,3.436,0,1,1,.985-2.408A3.221,3.221,0,0,1,324.235,592.987Zm-4.159-.548a2.584,2.584,0,0,0,1.751.767,2.174,2.174,0,0,0,1.751-.767,2.637,2.637,0,0,0,.766-1.86,2.25,2.25,0,0,0-.766-1.86,2.579,2.579,0,0,0-1.751-.766,2.176,2.176,0,0,0-1.751.766,2.641,2.641,0,0,0-.766,1.86A2.253,2.253,0,0,0,320.076,592.439Zm6.348,1.423V587.3h.985l3.173,5.143V587.3h.876v6.566h-.876L327.19,588.5v5.362Z" fill="#fff" stroke="#fff" stroke-miterlimit="10" stroke-width="0.2"/>
    <path id="Trazado_1579" data-name="Trazado 1579" d="M318.216,603.493a4.6,4.6,0,0,0-4.706,4.705,4.671,4.671,0,0,0,4.706,4.706,4.6,4.6,0,0,0,4.706-4.706A4.54,4.54,0,0,0,318.216,603.493Zm0,7.441a2.854,2.854,0,0,1,0-5.69,2.65,2.65,0,0,1,2.626,2.845A2.715,2.715,0,0,1,318.216,610.934Zm-10.178-7.441a4.6,4.6,0,0,0-4.706,4.705,4.671,4.671,0,0,0,4.706,4.706,4.6,4.6,0,0,0,4.706-4.706A4.54,4.54,0,0,0,308.038,603.493Zm0,7.441a2.854,2.854,0,0,1,0-5.69,2.651,2.651,0,0,1,2.627,2.845A2.716,2.716,0,0,1,308.038,610.934Zm-12.147-6.019v1.97H300.6A4.134,4.134,0,0,1,299.5,609.4a4.843,4.843,0,0,1-3.611,1.423,5.1,5.1,0,0,1-5.144-5.253,5.162,5.162,0,0,1,5.144-5.253,5.425,5.425,0,0,1,3.611,1.423l1.423-1.423a7.015,7.015,0,0,0-4.925-1.97,7.224,7.224,0,1,0,0,14.446,6.3,6.3,0,0,0,5.034-2.079,6.591,6.591,0,0,0,1.751-4.6,4.122,4.122,0,0,0-.109-1.2Zm49.684,1.532a4.251,4.251,0,0,0-3.939-2.954,4.407,4.407,0,0,0-4.378,4.705,4.58,4.58,0,0,0,4.6,4.706,4.49,4.49,0,0,0,3.831-2.079l-1.532-1.094a2.669,2.669,0,0,1-2.3,1.313,2.374,2.374,0,0,1-2.3-1.423l6.238-2.626-.219-.548Zm-6.347,1.533a2.659,2.659,0,0,1,2.408-2.736,1.935,1.935,0,0,1,1.751.985l-4.159,1.751Zm-5.144,4.487h2.08v-13.68h-2.08Zm-3.283-7.989a3.6,3.6,0,0,0-2.517-1.1,4.7,4.7,0,0,0-4.487,4.706,4.531,4.531,0,0,0,4.487,4.6,3.143,3.143,0,0,0,2.408-1.094h.109v.657a2.488,2.488,0,0,1-4.815,1.094l-1.751.766a4.514,4.514,0,0,0,4.159,2.736c2.407,0,4.377-1.423,4.377-4.815v-8.317H330.8v.766Zm-2.407,6.456a2.854,2.854,0,0,1,0-5.69,2.866,2.866,0,0,1,0,5.69Zm26.7-12.147h-4.924v13.68h2.079v-5.144H355.1a4.273,4.273,0,1,0,0-8.536Zm.11,6.566h-2.955v-4.706h2.955a2.4,2.4,0,0,1,2.407,2.3,2.5,2.5,0,0,1-2.407,2.408Zm12.585-1.97a3.678,3.678,0,0,0-3.611,2.08l1.86.766a1.933,1.933,0,0,1,1.86-.985,2.056,2.056,0,0,1,2.189,1.751v.109a4.339,4.339,0,0,0-2.079-.547c-1.97,0-3.94,1.094-3.94,3.064a3.206,3.206,0,0,0,3.393,3.064,3.078,3.078,0,0,0,2.626-1.313h.11v1.095h1.97v-5.253a4.143,4.143,0,0,0-4.378-3.831Zm-.219,7.551c-.656,0-1.641-.328-1.641-1.2,0-1.1,1.2-1.423,2.188-1.423a4.231,4.231,0,0,1,1.861.438A2.548,2.548,0,0,1,367.572,610.934Zm11.491-7.222-2.3,5.909h-.11l-2.407-5.909h-2.189l3.612,8.317-2.08,4.6h2.08l5.581-12.913Zm-18.385,8.755h2.079v-13.68h-2.079Z" fill="#fff"/>
    <g id="Grupo_717" data-name="Grupo 717">
      <path id="Trazado_1580" data-name="Trazado 1580" d="M255.071,587.843a2.136,2.136,0,0,0-.438,1.532v24.186a2.165,2.165,0,0,0,.547,1.532l.109.109,13.571-13.57v-.219Z" fill="url(#linear-gradient)"/>
      <path id="Trazado_1581" data-name="Trazado 1581" d="M273.237,606.229l-4.487-4.487v-.329l4.487-4.487.11.11,5.362,3.064c1.532.876,1.532,2.3,0,3.174Z" fill="url(#linear-gradient-2)"/>
      <path id="Trazado_1582" data-name="Trazado 1582" d="M273.347,606.119l-4.6-4.6L255.071,615.2c.547.548,1.313.548,2.3.11l15.978-9.193" fill="url(#linear-gradient-3)"/>
      <path id="Trazado_1583" data-name="Trazado 1583" d="M273.347,596.926l-15.978-9.083a1.773,1.773,0,0,0-2.3.11l13.679,13.57,4.6-4.6Z" fill="url(#linear-gradient-4)"/>
      <path id="Trazado_1584" data-name="Trazado 1584" d="M273.237,606.01l-15.868,8.974a1.791,1.791,0,0,1-2.189,0l-.109.109.109.109a1.789,1.789,0,0,0,2.189,0Z" opacity="0.2" style="isolation: isolate"/>
      <path id="Trazado_1585" data-name="Trazado 1585" d="M255.071,614.984a2.139,2.139,0,0,1-.438-1.533v.11a2.165,2.165,0,0,0,.547,1.532v-.109Zm23.638-12.039-5.472,3.065.11.109,5.362-3.064a1.819,1.819,0,0,0,1.094-1.532C279.8,602.07,279.366,602.508,278.709,602.945Z" opacity="0.12" style="isolation: isolate"/>
      <path id="Trazado_1586" data-name="Trazado 1586" d="M257.369,587.953l21.34,12.147c.657.438,1.094.876,1.094,1.423a1.818,1.818,0,0,0-1.094-1.532l-21.34-12.148c-1.532-.875-2.736-.219-2.736,1.532v.11C254.633,587.843,255.837,587.077,257.369,587.953Z" fill="#fff" opacity="0.25" style="isolation: isolate"/>
    </g>
  </g>
</svg>
