<svg xmlns="http://www.w3.org/2000/svg" xmlns:xlink="http://www.w3.org/1999/xlink" width="147.78" height="43.786" viewBox="0 0 147.78 43.786">
  <defs>
    <linearGradient id="linear-gradient" x1="68.73" y1="150.174" x2="68.73" y2="150.223" gradientUnits="objectBoundingBox">
      <stop offset="0" stop-color="#1a1a1a" stop-opacity="0.102"/>
      <stop offset="0.123" stop-color="#212121" stop-opacity="0.153"/>
      <stop offset="0.308" stop-color="#353535" stop-opacity="0.227"/>
      <stop offset="0.532" stop-color="#575757" stop-opacity="0.318"/>
      <stop offset="0.783" stop-color="gray" stop-opacity="0.42"/>
      <stop offset="1" stop-color="#9b9b9b" stop-opacity="0.51"/>
    </linearGradient>
  </defs>
  <g id="Grupo_724" data-name="Grupo 724" transform="translate(-83 -579.624)">
    <path id="Trazado_1590" data-name="Trazado 1590" d="M229.8,618.241a4.194,4.194,0,0,1-4.194,4.194H88.179a4.2,4.2,0,0,1-4.2-4.194V584.8a4.205,4.205,0,0,1,4.2-4.2H225.6a4.2,4.2,0,0,1,4.2,4.2h0v33.444Z" fill="#fff"/>
    <path id="Trazado_1591" data-name="Trazado 1591" d="M225.6,623.41H88.179A5.179,5.179,0,0,1,83,618.241V584.8a5.182,5.182,0,0,1,5.179-5.174H225.6a5.185,5.185,0,0,1,5.18,5.174v33.443a5.18,5.18,0,0,1-5.179,5.169Z" fill="#8e8e8e"/>
    <path id="Trazado_1592" data-name="Trazado 1592" d="M229.8,618.241a4.194,4.194,0,0,1-4.194,4.194H88.179a4.2,4.2,0,0,1-4.2-4.194V584.8a4.205,4.205,0,0,1,4.2-4.2H225.6a4.2,4.2,0,0,1,4.2,4.2h0v33.444Z"/>
    <path id="Trazado_1593" data-name="Trazado 1593" d="M116,601.286a6.342,6.342,0,0,1,3.024-5.325,6.505,6.505,0,0,0-5.122-2.769c-2.154-.226-4.244,1.289-5.341,1.289-1.119,0-2.809-1.267-4.631-1.229a6.817,6.817,0,0,0-5.739,3.5c-2.482,4.3-.631,10.608,1.747,14.08,1.189,1.7,2.579,3.6,4.4,3.533,1.779-.073,2.444-1.134,4.592-1.134,2.128,0,2.752,1.134,4.608,1.091,1.91-.03,3.112-1.708,4.26-3.424a14.041,14.041,0,0,0,1.949-3.967A6.141,6.141,0,0,1,116,601.286Zm-3.505-10.378a6.245,6.245,0,0,0,1.43-4.477,6.36,6.36,0,0,0-4.115,2.129,5.942,5.942,0,0,0-1.468,4.312,5.258,5.258,0,0,0,4.153-1.964Z" fill="#fff"/>
    <path id="Trazado_1594" data-name="Trazado 1594" d="M225.6,579.624H151.994l28.83,43.786H225.6a5.183,5.183,0,0,0,5.18-5.172V584.8A5.184,5.184,0,0,0,225.6,579.624Z" fill="url(#linear-gradient)"/>
    <g id="Grupo_722" data-name="Grupo 722">
      <path id="Trazado_1595" data-name="Trazado 1595" d="M141.777,614.119H139.29l-1.363-4.28h-4.736l-1.3,4.28h-2.421l4.693-14.571h2.9l4.714,14.571Zm-4.261-6.075-1.232-3.8q-.195-.584-.735-2.746h-.043q-.218.93-.693,2.746l-1.211,3.8Zm16.307.693a5.95,5.95,0,0,1-1.457,4.236,4.273,4.273,0,0,1-3.24,1.384,3.244,3.244,0,0,1-3-1.49v5.513H143.79V607.066q0-1.684-.086-3.454h2.053l.13,1.666h.044a4.154,4.154,0,0,1,6.65-.413,5.814,5.814,0,0,1,1.242,3.872Zm-2.379.085a4.322,4.322,0,0,0-.693-2.53,2.39,2.39,0,0,0-2.032-1.037,2.43,2.43,0,0,0-1.568.572,2.666,2.666,0,0,0-.919,1.5,3.043,3.043,0,0,0-.108.71v1.753a2.809,2.809,0,0,0,.7,1.936,2.334,2.334,0,0,0,1.827.79,2.4,2.4,0,0,0,2.054-1.016A4.479,4.479,0,0,0,151.444,608.822Zm14.467-.085a5.946,5.946,0,0,1-1.457,4.236,4.272,4.272,0,0,1-3.241,1.384,3.244,3.244,0,0,1-3-1.49v5.513h-2.335V607.066q0-1.684-.086-3.454h2.053l.131,1.666h.044a4.154,4.154,0,0,1,6.65-.413,5.814,5.814,0,0,1,1.242,3.872Zm-2.38.085a4.329,4.329,0,0,0-.693-2.53,2.389,2.389,0,0,0-2.031-1.037,2.435,2.435,0,0,0-1.569.572,2.654,2.654,0,0,0-.918,1.5,3.129,3.129,0,0,0-.11.71v1.753a2.822,2.822,0,0,0,.7,1.936,2.339,2.339,0,0,0,1.829.79,2.393,2.393,0,0,0,2.054-1.016A4.472,4.472,0,0,0,163.531,608.822Zm15.895,1.21a3.892,3.892,0,0,1-1.295,3.028,5.749,5.749,0,0,1-3.971,1.275,6.928,6.928,0,0,1-3.774-.908l.54-1.945a6.5,6.5,0,0,0,3.374.909,3.184,3.184,0,0,0,2.053-.595,1.94,1.94,0,0,0,.737-1.588,2.034,2.034,0,0,0-.607-1.492,5.625,5.625,0,0,0-2.01-1.124q-3.828-1.426-3.829-4.174a3.687,3.687,0,0,1,1.351-2.94,5.345,5.345,0,0,1,3.579-1.146,7.073,7.073,0,0,1,3.309.692l-.586,1.9a5.783,5.783,0,0,0-2.8-.67,2.847,2.847,0,0,0-1.932.6,1.734,1.734,0,0,0-.586,1.321,1.785,1.785,0,0,0,.671,1.427,7.564,7.564,0,0,0,2.118,1.123,7.18,7.18,0,0,1,2.768,1.772,3.689,3.689,0,0,1,.89,2.527Zm7.741-4.668h-2.574v5.1q0,1.945,1.362,1.944a4.112,4.112,0,0,0,1.037-.108l.065,1.773a5.292,5.292,0,0,1-1.816.258,2.8,2.8,0,0,1-2.163-.844,4.141,4.141,0,0,1-.779-2.833v-5.3h-1.533v-1.752H182.3v-1.924l2.294-.692v2.616h2.574v1.756Zm11.59,3.415a5.765,5.765,0,0,1-1.385,3.978,4.934,4.934,0,0,1-3.849,1.6,4.7,4.7,0,0,1-3.687-1.533,5.587,5.587,0,0,1-1.374-3.869,5.716,5.716,0,0,1,1.416-4A4.912,4.912,0,0,1,193.7,603.4a4.8,4.8,0,0,1,3.718,1.535,5.514,5.514,0,0,1,1.342,3.845Zm-2.421.054a4.708,4.708,0,0,0-.625-2.479,2.314,2.314,0,0,0-2.1-1.252,2.346,2.346,0,0,0-2.141,1.252,4.786,4.786,0,0,0-.627,2.523,4.7,4.7,0,0,0,.627,2.48,2.4,2.4,0,0,0,4.22-.021,4.724,4.724,0,0,0,.645-2.5Zm10.014-3.168a4.032,4.032,0,0,0-.736-.064,2.2,2.2,0,0,0-1.9.93,3.512,3.512,0,0,0-.582,2.075v5.513h-2.335v-7.2q0-1.655-.068-3.308h2.034l.085,2.011h.065a3.6,3.6,0,0,1,1.167-1.666,2.832,2.832,0,0,1,1.688-.563,3.8,3.8,0,0,1,.584.043l0,2.227Zm10.443,2.7a5.451,5.451,0,0,1-.085,1.059h-7a3.043,3.043,0,0,0,1.016,2.38,3.478,3.478,0,0,0,2.291.734,7.769,7.769,0,0,0,2.835-.5l.366,1.619a8.762,8.762,0,0,1-3.524.649,5.108,5.108,0,0,1-3.84-1.436,5.31,5.31,0,0,1-1.394-3.859,6.019,6.019,0,0,1,1.3-3.955,4.476,4.476,0,0,1,3.675-1.685,3.919,3.919,0,0,1,3.44,1.685,5.674,5.674,0,0,1,.926,3.3Zm-2.226-.606a3.156,3.156,0,0,0-.454-1.794,2.038,2.038,0,0,0-1.86-.975,2.211,2.211,0,0,0-1.858.952,3.48,3.48,0,0,0-.691,1.815l4.863,0Z" fill="#fff"/>
    </g>
    <g id="Grupo_723" data-name="Grupo 723">
      <path id="Trazado_1596" data-name="Trazado 1596" d="M132.518,594.4a14.8,14.8,0,0,1-1.679-.086v-7.045a12.7,12.7,0,0,1,1.977-.148c2.677,0,3.911,1.317,3.911,3.464C136.727,593.058,135.27,594.4,132.518,594.4Zm.392-6.376a4.741,4.741,0,0,0-.925.074v5.356a6.039,6.039,0,0,0,.776.032,2.538,2.538,0,0,0,2.753-2.869A2.336,2.336,0,0,0,132.91,588.02Zm7.66,6.43a2.458,2.458,0,0,1-2.487-2.657,2.515,2.515,0,0,1,2.572-2.731,2.439,2.439,0,0,1,2.488,2.647,2.531,2.531,0,0,1-2.573,2.741Zm.044-4.549c-.829,0-1.361.775-1.361,1.859,0,1.063.543,1.839,1.35,1.839s1.349-.829,1.349-1.861c0-1.051-.531-1.837-1.338-1.837Zm11.135-.733-1.615,5.164h-1.053l-.669-2.242a17.074,17.074,0,0,1-.415-1.668h-.022a11.109,11.109,0,0,1-.414,1.668l-.712,2.242h-1.063l-1.521-5.164h1.18l.585,2.455q.207.878.35,1.658h.022c.085-.435.223-.978.425-1.647l.734-2.464h.935l.7,2.412c.17.585.308,1.158.416,1.7h.03a14.916,14.916,0,0,1,.351-1.7l.627-2.412,1.127,0Zm5.948,5.164h-1.148v-2.965c0-.913-.351-1.371-1.042-1.371a1.192,1.192,0,0,0-1.148,1.265v3.071h-1.148v-3.688c0-.456-.01-.946-.042-1.477h1.01l.053.8h.032a1.855,1.855,0,0,1,1.637-.9c1.085,0,1.8.829,1.8,2.178v3.092Zm3.165,0h-1.149V586.8h1.149Zm4.185.118a2.46,2.46,0,0,1-2.488-2.657,2.515,2.515,0,0,1,2.572-2.731,2.438,2.438,0,0,1,2.487,2.647,2.529,2.529,0,0,1-2.571,2.741Zm.043-4.549c-.83,0-1.361.775-1.361,1.859,0,1.063.543,1.839,1.348,1.839s1.35-.829,1.35-1.861c0-1.051-.529-1.837-1.337-1.837Zm7.054,4.431-.083-.594h-.031a1.764,1.764,0,0,1-1.51.712,1.5,1.5,0,0,1-1.583-1.52c0-1.275,1.105-1.934,3.019-1.934V590.9c0-.68-.361-1.021-1.073-1.021a2.417,2.417,0,0,0-1.349.383l-.233-.754a3.3,3.3,0,0,1,1.773-.447c1.349,0,2.031.712,2.031,2.137v1.9a7.849,7.849,0,0,0,.074,1.232Zm-.158-2.572c-1.275,0-1.914.309-1.914,1.042a.732.732,0,0,0,.787.807,1.1,1.1,0,0,0,1.127-1.052Zm6.692,2.572-.053-.829h-.032a1.732,1.732,0,0,1-1.658.947c-1.246,0-2.168-1.1-2.168-2.636,0-1.615.956-2.753,2.262-2.753a1.552,1.552,0,0,1,1.457.7h.023V586.8h1.149v6.142c0,.5.012.966.042,1.391Zm-.169-3.038a1.249,1.249,0,0,0-1.21-1.339c-.851,0-1.371.754-1.371,1.816,0,1.042.54,1.754,1.348,1.754a1.289,1.289,0,0,0,1.233-1.371v-.86Zm8.433,3.156a2.458,2.458,0,0,1-2.486-2.657,2.515,2.515,0,0,1,2.572-2.731,2.438,2.438,0,0,1,2.487,2.647,2.53,2.53,0,0,1-2.573,2.741Zm.043-4.549c-.828,0-1.359.775-1.359,1.859,0,1.063.542,1.839,1.348,1.839s1.349-.829,1.349-1.861c0-1.051-.529-1.837-1.338-1.837Zm8.7,4.431h-1.149v-2.965c0-.913-.351-1.371-1.042-1.371a1.192,1.192,0,0,0-1.147,1.265v3.071H191.2v-3.688c0-.456-.011-.946-.043-1.477h1.01l.053.8h.032a1.855,1.855,0,0,1,1.636-.9c1.085,0,1.8.829,1.8,2.178Zm7.722-4.3h-1.262v2.508c0,.638.221.957.668.957a2.248,2.248,0,0,0,.509-.054l.032.872a2.561,2.561,0,0,1-.891.128c-.9,0-1.445-.5-1.445-1.807v-2.6h-.754v-.861h.754v-.946l1.127-.34v1.285h1.262v.862Zm6.077,4.3H208.34v-2.943c0-.924-.349-1.392-1.041-1.392a1.126,1.126,0,0,0-1.149,1.222v3.113H205V586.8h1.147v3.1h.023a1.741,1.741,0,0,1,1.553-.84c1.093,0,1.761.85,1.761,2.2v3.071Zm6.225-2.306h-3.444a1.482,1.482,0,0,0,1.627,1.53,3.872,3.872,0,0,0,1.392-.244l.179.8a4.324,4.324,0,0,1-1.733.319,2.4,2.4,0,0,1-2.572-2.6,2.523,2.523,0,0,1,2.443-2.774,2.169,2.169,0,0,1,2.148,2.455,2.209,2.209,0,0,1-.04.52Zm-1.052-.818c0-.8-.4-1.36-1.136-1.36a1.361,1.361,0,0,0-1.255,1.36Z" fill="#fff"/>
    </g>
  </g>
</svg>
