<svg xmlns="http://www.w3.org/2000/svg" xmlns:xlink="http://www.w3.org/1999/xlink" viewBox="0 0 1280.3 987"><defs><style>.cls-1{opacity:0.25;fill:url(#Degradado_sin_nombre_43);}.cls-2{fill:#e5e5e5;}.cls-3{fill:url(#Degradado_sin_nombre_2);}.cls-4{mask:url(#mask);}.cls-5{fill:#00868d;}.cls-6{fill:#bdb652;}.cls-7{fill:#00c98d;}.cls-8{fill:#00768d;}</style><linearGradient id="Degradado_sin_nombre_43" x1="84.22" y1="929.45" x2="825.97" y2="743.65" gradientUnits="userSpaceOnUse"><stop offset="0" stop-color="#fff"/><stop offset="1"/></linearGradient><linearGradient id="Degradado_sin_nombre_2" x1="121.57" y1="1103.64" x2="938.71" y2="639.58" gradientUnits="userSpaceOnUse"><stop offset="0" stop-color="#00868d"/><stop offset="0.09" stop-color="#00938d"/><stop offset="0.28" stop-color="#00ab8d"/><stop offset="0.49" stop-color="#00bb8d"/><stop offset="0.71" stop-color="#00c58d"/><stop offset="1" stop-color="#00c98d"/></linearGradient><mask id="mask" x="-10.87" y="556.4" width="1291.17" height="427.6" maskUnits="userSpaceOnUse"><path class="cls-1" d="M-6.75,626.65s272.66-104.93,663.08-52.3c398.59,53.73,624-10,624-10v395H-10.87Z"/></mask></defs><title>fondo-section-2_1</title><g id="Capa_2" data-name="Capa 2"><g id="Capa_1-2" data-name="Capa 1"><rect class="cls-2" x="0.3" width="1277" height="784"/><path class="cls-3" d="M.27,631.11c17.11-6.84,283.27-109.92,659-55.53,396.68,57.42,621-10.69,621-10.69V987H.31"/><g class="cls-4"><g id="Grupo_188" data-name="Grupo 188"><path id="Trazado_222" data-name="Trazado 222" class="cls-5" d="M884.89,879v-49.3c-28.18,0-51,21.65-51,48.34,0,.32,0,.64,0,1Z"/><path id="Trazado_223" data-name="Trazado 223" class="cls-6" d="M884.22,772.71,776.51,878.65V772.71Z"/><path id="Trazado_224" data-name="Trazado 224" class="cls-6" d="M760.43,772.51l-96.2,94.62V772.51Z"/><path id="Trazado_225" data-name="Trazado 225" class="cls-7" d="M821.84,666.21c0-.45,0-.89,0-1.34H776.42c1,57.3,48.57,103.86,108.47,107.09V728.63C852.46,727.19,821.84,697.27,821.84,666.21Z"/><path id="Rectángulo_162" data-name="Rectángulo 162" class="cls-5" d="M704.11,804.44h72.4v74.21H695V813.06a8.87,8.87,0,0,1,9.1-8.62Z"/><ellipse id="Elipse_100" data-name="Elipse 100" class="cls-7" cx="720.47" cy="718.97" rx="37.57" ry="35.57"/><path id="Trazado_226" data-name="Trazado 226" class="cls-5" d="M722.48,804.44l35.86-31.73v31.73"/></g><g id="Grupo_185" data-name="Grupo 185"><path id="Trazado_199" data-name="Trazado 199" class="cls-5" d="M222.38,556.4v49.3c28.18,0,51-21.66,51-48.34,0-.32,0-.64,0-1Z"/><path id="Trazado_200" data-name="Trazado 200" class="cls-6" d="M223,663.28,330.75,557.34V663.28Z"/><path id="Trazado_201" data-name="Trazado 201" class="cls-7" d="M285.43,769.06c0,.45,0,.89,0,1.34h45.46c-1-57.3-48.58-103.86-108.47-107.09v43.33C254.81,708.09,285.43,738,285.43,769.06Z"/><path id="Rectángulo_153" data-name="Rectángulo 153" class="cls-5" d="M414,624.47h29.88v38.36h-39V633.09a8.87,8.87,0,0,1,9.1-8.62Z"/><path id="Rectángulo_154" data-name="Rectángulo 154" class="cls-5" d="M399,627.15H330.75V556.7h77.38v61.83a8.87,8.87,0,0,1-9.1,8.62Z"/><path id="Trazado_202" data-name="Trazado 202" class="cls-8" d="M400.92,682.26C381.26,683.56,366,699,366,717.68h34.95Z"/><path id="Trazado_203" data-name="Trazado 203" class="cls-5" d="M405.69,627.15l-60.13,49.36V627.15"/><path id="Trazado_204" data-name="Trazado 204" class="cls-5" d="M412.56,714.64l-23.25,27.6V717.68"/><path id="Rectángulo_155" data-name="Rectángulo 155" class="cls-5" d="M416.49,858.85H348.21V770.12h77.38v80.11a8.87,8.87,0,0,1-9.1,8.62Z"/><path id="Trazado_205" data-name="Trazado 205" class="cls-6" d="M189.67,790.76h77.38v59.47a8.88,8.88,0,0,1-9.11,8.62H166.52Z"/><path id="Trazado_206" data-name="Trazado 206" class="cls-5" d="M399.52,858.85l-34,30.13V858.85"/><path id="Trazado_207" data-name="Trazado 207" class="cls-5" d="M256.43,663.25l-34.05,30.12V663.25"/><path id="Trazado_208" data-name="Trazado 208" class="cls-5" d="M415.34,624.47c.52,0,22.85-30.13,22.85-30.13v30.13"/></g><g id="Grupo_186" data-name="Grupo 186"><rect id="Rectángulo_156" data-name="Rectángulo 156" class="cls-8" x="114.67" y="557.74" width="107.71" height="105.94"/><path id="Trazado_209" data-name="Trazado 209" class="cls-5" d="M121.89,770H189c0-34.4-29.49-62.29-65.84-62.29-.44,0-.87,0-1.31,0Z"/><path id="Trazado_210" data-name="Trazado 210" class="cls-6" d="M221.71,663.68,114,769.62V663.68Z"/><rect id="Rectángulo_157" data-name="Rectángulo 157" class="cls-5" y="556.4" width="111.91" height="107.09"/><path id="Trazado_211" data-name="Trazado 211" class="cls-6" d="M113.91,663.49,2,556.4H113.91Z"/><path id="Trazado_212" data-name="Trazado 212" class="cls-7" d="M159.33,557.74c0-.45,0-.9,0-1.34H113.91c1,57.3,48.57,103.85,108.47,107.09V620.16C190,618.71,159.33,588.8,159.33,557.74Z"/><path id="Trazado_213" data-name="Trazado 213" class="cls-5" d="M342.83,717c0,.23,0,.46,0,.69H366c-.49-29.08-24.59-52.87-55.26-54.56v22.08C327.24,686,342.83,701.22,342.83,717Z"/><path id="Rectángulo_158" data-name="Rectángulo 158" class="cls-5" d="M30.77,701.86H.89V663.49h39v29.74a8.88,8.88,0,0,1-9.11,8.63Z"/><path id="Rectángulo_159" data-name="Rectángulo 159" class="cls-5" d="M45.73,699.17H114v70.45H36.62V707.8a8.88,8.88,0,0,1,9.11-8.63Z"/><ellipse id="Elipse_95" data-name="Elipse 95" class="cls-6" cx="180.53" cy="597.32" rx="26.88" ry="25.45"/><ellipse id="Elipse_96" data-name="Elipse 96" class="cls-6" cx="276.59" cy="838.69" rx="26.88" ry="25.45"/><ellipse id="Elipse_97" data-name="Elipse 97" class="cls-7" cx="57.95" cy="609.94" rx="37.57" ry="35.57"/><path id="Trazado_214" data-name="Trazado 214" class="cls-5" d="M62.7,699.17l34-30.12v30.12"/><path id="Trazado_215" data-name="Trazado 215" class="cls-5" d="M29.41,701.86C28.89,701.86,6.57,732,6.57,732V701.86"/></g><g id="Grupo_187" data-name="Grupo 187"><rect id="Rectángulo_160" data-name="Rectángulo 160" class="cls-8" x="3.93" y="875.87" width="107.71" height="105.94"/><path id="Trazado_216" data-name="Trazado 216" class="cls-5" d="M3.93,769.62v49.3c28.18,0,51-21.65,51-48.33,0-.33,0-.64,0-1Z"/><path id="Trazado_217" data-name="Trazado 217" class="cls-6" d="M4.59,875.87,112.3,769.93V875.87Z"/><rect id="Rectángulo_161" data-name="Rectángulo 161" class="cls-5" x="112.4" y="876.06" width="111.91" height="107.09"/><path id="Trazado_218" data-name="Trazado 218" class="cls-6" d="M112.4,876.06,224.3,983.15H112.4Z"/><path id="Trazado_219" data-name="Trazado 219" class="cls-7" d="M67,981.81c0,.45,0,.89,0,1.34H112.4c-1-57.3-48.58-103.85-108.47-107.09v43.33C36.36,920.84,67,950.75,67,981.81Z"/><path id="Trazado_220" data-name="Trazado 220" class="cls-5" d="M189.12,847.63V769.92l-38.68,41.24-20.83,36.47Z"/><ellipse id="Elipse_98" data-name="Elipse 98" class="cls-6" cx="45.77" cy="942.23" rx="26.88" ry="25.45"/><ellipse id="Elipse_99" data-name="Elipse 99" class="cls-7" cx="168.35" cy="929.61" rx="37.57" ry="35.57"/><path id="Trazado_221" data-name="Trazado 221" class="cls-5" d="M163.61,840.37,129.56,870.5V840.37"/></g><g id="Grupo_188-2" data-name="Grupo 188"><path id="Trazado_222-2" data-name="Trazado 222" class="cls-5" d="M445,984V934.7c-28.19,0-51,21.65-51,48.34,0,.32,0,.64,0,1Z"/><path id="Trazado_223-2" data-name="Trazado 223" class="cls-6" d="M444.3,877.76,336.59,983.7V877.76Z"/><path id="Trazado_224-2" data-name="Trazado 224" class="cls-6" d="M320.5,877.56l-96.2,94.62V877.56Z"/><path id="Trazado_225-2" data-name="Trazado 225" class="cls-7" d="M381.91,771.27c0-.45,0-.9,0-1.35H336.5C337.45,827.22,385.07,873.78,445,877V833.68C412.54,832.24,381.91,802.33,381.91,771.27Z"/><path id="Rectángulo_162-2" data-name="Rectángulo 162" class="cls-5" d="M264.19,909.49h72.4V983.7H255.08V918.11a8.88,8.88,0,0,1,9.11-8.62Z"/><ellipse id="Elipse_100-2" data-name="Elipse 100" class="cls-7" cx="280.54" cy="824.02" rx="37.57" ry="35.57"/><path id="Trazado_226-2" data-name="Trazado 226" class="cls-5" d="M282.55,909.49l35.86-31.73v31.73"/></g><g id="Grupo_187-2" data-name="Grupo 187"><rect id="Rectángulo_160-2" data-name="Rectángulo 160" class="cls-8" x="443.85" y="770.82" width="107.71" height="105.94"/><path id="Trazado_216-2" data-name="Trazado 216" class="cls-5" d="M443.85,664.57v49.3c28.19,0,51-21.65,51-48.33,0-.33,0-.65,0-1Z"/><path id="Trazado_217-2" data-name="Trazado 217" class="cls-6" d="M444.52,770.82l107.71-106v106Z"/><rect id="Rectángulo_161-2" data-name="Rectángulo 161" class="cls-5" x="552.32" y="771.01" width="111.91" height="107.09"/><path id="Trazado_218-2" data-name="Trazado 218" class="cls-6" d="M552.32,771,664.23,878.1H552.32Z"/><path id="Trazado_219-2" data-name="Trazado 219" class="cls-7" d="M506.9,876.76c0,.45,0,.89,0,1.34h45.45c-1-57.3-48.57-103.86-108.47-107.09v43.33C476.28,815.79,506.9,845.7,506.9,876.76Z"/><path id="Trazado_220-2" data-name="Trazado 220" class="cls-5" d="M629,742.58V664.87l-38.67,41.24-20.83,36.47Z"/><ellipse id="Elipse_98-2" data-name="Elipse 98" class="cls-6" cx="485.7" cy="837.18" rx="26.88" ry="25.45"/><ellipse id="Elipse_99-2" data-name="Elipse 99" class="cls-7" cx="608.27" cy="824.55" rx="37.57" ry="35.57"/><path id="Trazado_221-2" data-name="Trazado 221" class="cls-5" d="M603.53,735.32l-34,30.13V735.32"/></g></g></g></g></svg>