<svg xmlns="http://www.w3.org/2000/svg" xmlns:xlink="http://www.w3.org/1999/xlink" viewBox="0 0 1077.98 3744"><defs><style>.cls-1{fill:#00ecff;}.cls-2,.cls-7,.cls-8,.cls-9{fill:none;}.cls-2,.cls-7,.cls-8{stroke:#00c98d;stroke-miterlimit:10;}.cls-2{stroke-width:4.91px;}.cls-3{fill:url(#Degradado_sin_nombre_2);}.cls-4{fill:url(#Degradado_sin_nombre_2-2);}.cls-5{fill:#00ce92;}.cls-6{fill:#00c98d;}.cls-7{stroke-width:2.96px;}.cls-8{stroke-width:3.94px;}</style><linearGradient id="Degradado_sin_nombre_2" x1="76.14" y1="928.56" x2="180.27" y2="809.37" gradientUnits="userSpaceOnUse"><stop offset="0" stop-color="#00868d"/><stop offset="0.09" stop-color="#00938d"/><stop offset="0.28" stop-color="#00ab8d"/><stop offset="0.49" stop-color="#00bb8d"/><stop offset="0.71" stop-color="#00c58d"/><stop offset="1" stop-color="#00c98d"/></linearGradient><linearGradient id="Degradado_sin_nombre_2-2" x1="57.16" y1="911.42" x2="161.15" y2="792.39" xlink:href="#Degradado_sin_nombre_2"/></defs><title>fondo-te-contamos-m</title><g id="Capa_2" data-name="Capa 2"><g id="Capa_1-2" data-name="Capa 1"><rect class="cls-1" x="852.82" y="2442.79" width="160.37" height="166.24"/><polygon class="cls-1" points="1013.19 2490.73 914.09 2490.73 1013.19 2388 1013.19 2490.73"/><path class="cls-2" d="M1077.66,2827.43a405.39,405.39,0,0,1-53.14,3.48c-230.65,0-417.62-193.82-417.62-432.91s187-432.91,417.62-432.91a405.64,405.64,0,0,1,52.1,3.34"/><path class="cls-2" d="M8.32,877.07a367.88,367.88,0,0,1,142.52-28.6c210.16,0,380.53,176.6,380.53,394.46S361,1637.38,150.84,1637.38A367.93,367.93,0,0,1,5.29,1607.5"/><ellipse class="cls-3" cx="163.71" cy="828.32" rx="109.37" ry="113.38"/><polygon class="cls-4" points="54.34 988.83 54.34 823.23 214.09 823.23 54.34 988.83"/><g id="Grupo_158" data-name="Grupo 158"><path id="Rectángulo_120" data-name="Rectángulo 120" class="cls-5" d="M159.54,1034.09h3.53a1.19,1.19,0,0,1,1.17,1.21v29.85a1.18,1.18,0,0,1-1.17,1.2h-3.53a1.18,1.18,0,0,1-1.17-1.2V1035.3A1.19,1.19,0,0,1,159.54,1034.09Z"/><path id="Rectángulo_121" data-name="Rectángulo 121" class="cls-5" d="M175.26,1048.4V1052a1.19,1.19,0,0,1-1.17,1.21H148.52a1.19,1.19,0,0,1-1.17-1.21v-3.64a1.18,1.18,0,0,1,1.17-1.2h25.57A1.18,1.18,0,0,1,175.26,1048.4Z"/></g><g id="Grupo_158-2" data-name="Grupo 158"><path id="Rectángulo_120-2" data-name="Rectángulo 120" class="cls-6" d="M965.56,2650.78h1.83a.61.61,0,0,1,.61.62v15.49a.62.62,0,0,1-.61.63h-1.83a.62.62,0,0,1-.61-.63V2651.4A.61.61,0,0,1,965.56,2650.78Z"/><path id="Rectángulo_121-2" data-name="Rectángulo 121" class="cls-6" d="M973.71,2658.2v1.89a.62.62,0,0,1-.6.63H959.84a.62.62,0,0,1-.61-.63v-1.89a.61.61,0,0,1,.61-.62h13.27A.61.61,0,0,1,973.71,2658.2Z"/></g><path class="cls-1" d="M9.75,3363.28C-.64,3315.48-3.06,3260,26.91,3221.94c25.36-32.2,69.93-40.24,110.16-38.67s80.79,10.42,120.37,2.86c66.18-12.66,119.45-69.27,186.34-77,62.44-7.24,127.31,36.49,144.35,98.78s-17.2,135.39-75.71,159c-63.06,25.4-138.76-3.84-199.86,26.22-21,10.31-38.37,26.88-58.15,39.43-68.21,43.25-172.83,36.85-220.47-29.06Z"/><ellipse class="cls-6" cx="785.94" cy="2451.63" rx="7.57" ry="7.79"/><ellipse class="cls-7" cx="309.83" cy="3383.08" rx="29.52" ry="30.4"/><ellipse class="cls-8" cx="75.6" cy="1050.6" rx="18.35" ry="18.9"/><ellipse class="cls-8" cx="116.69" cy="666.27" rx="18.35" ry="18.9"/><polyline class="cls-9" points="1050.54 2827.43 1050.54 3744 0 3744 0 0 1050.54 0 1050.54 1968.43"/></g></g></svg>