<svg xmlns="http://www.w3.org/2000/svg" xmlns:xlink="http://www.w3.org/1999/xlink" viewBox="0 0 1281.18 966"><defs><style>.cls-1{fill:none;}.cls-2{fill:#00ecff;}.cls-3{fill:#00c98d;}.cls-4{clip-path:url(#clip-path);}.cls-5{fill:#00868d;}.cls-6{fill:#00878d;}.cls-7{fill:#00888d;}.cls-8{fill:#00898d;}.cls-9{fill:#008a8d;}.cls-10{fill:#008b8d;}.cls-11{fill:#008d8d;}.cls-12{fill:#008e8d;}.cls-13{fill:#008f8d;}.cls-14{fill:#00908d;}.cls-15{fill:#00918d;}.cls-16{fill:#00928d;}.cls-17{fill:#00938d;}.cls-18{fill:#00948d;}.cls-19{fill:#00958d;}.cls-20{fill:#00968d;}.cls-21{fill:#00978d;}.cls-22{fill:#00988d;}.cls-23{fill:#00998d;}.cls-24{fill:#009a8d;}.cls-25{fill:#009b8d;}.cls-26{fill:#009c8d;}.cls-27{fill:#009d8d;}.cls-28{fill:#009e8d;}.cls-29{fill:#00a08d;}.cls-30{fill:#00a18d;}.cls-31{fill:#00a28d;}.cls-32{fill:#00a38d;}.cls-33{fill:#00a48d;}.cls-34{fill:#00a58d;}.cls-35{fill:#00a68d;}.cls-36{fill:#00a78d;}.cls-37{fill:#00a88d;}.cls-38{fill:#00a98d;}.cls-39{fill:#00aa8d;}.cls-40{fill:#00ab8d;}.cls-41{fill:#00ac8d;}.cls-42{fill:#00ad8d;}.cls-43{fill:#00ae8d;}.cls-44{fill:#00af8d;}.cls-45{fill:#00b08d;}.cls-46{fill:#00b18d;}.cls-47{fill:#00b28d;}.cls-48{fill:#00b48d;}.cls-49{fill:#00b58d;}.cls-50{fill:#00b68d;}.cls-51{fill:#00b78d;}.cls-52{fill:#00b88d;}.cls-53{fill:#00b98d;}.cls-54{fill:#00ba8d;}.cls-55{fill:#00bb8d;}.cls-56{fill:#00bc8d;}.cls-57{fill:#00bd8d;}.cls-58{fill:#00be8d;}.cls-59{fill:#00bf8d;}.cls-60{fill:#00c18d;}.cls-61{fill:#00c28d;}.cls-62{fill:#00c38d;}.cls-63{fill:#00c48d;}.cls-64{fill:#00c58d;}.cls-65{fill:#00c68d;}.cls-66{fill:#00c88d;}.cls-67{clip-path:url(#clip-path-2);}.cls-68{fill:#00768d;}.cls-69{fill:#00ce92;}</style><clipPath id="clip-path"><ellipse class="cls-1" cx="138.81" cy="453.39" rx="47.92" ry="48"/></clipPath><clipPath id="clip-path-2"><polygon class="cls-1" points="90.88 521.35 90.88 451.24 160.88 451.24 90.88 521.35"/></clipPath></defs><title>Recurso 6</title><g id="Capa_2" data-name="Capa 2"><g id="Capa_1-2" data-name="Capa 1"><rect class="cls-2" x="1080.32" y="218.39" width="95.85" height="96"/><polygon class="cls-2" points="1176.17 246.08 1116.93 246.08 1176.17 186.75 1176.17 246.08"/><path class="cls-3" d="M1166.18,742a251,251,0,0,1,0-502,247.4,247.4,0,0,1,115,27.92l-.91,1.77A245.63,245.63,0,0,0,1166.18,242c-137.08,0-248.61,111.7-248.61,249s111.53,249,248.61,249a245.6,245.6,0,0,0,114.08-27.7l.92,1.77A251,251,0,0,1,1166.18,742Z"/><path class="cls-3" d="M89.88,473.5A168.66,168.66,0,0,1,1.07,448.31l2.63-4.25A163.65,163.65,0,0,0,89.88,468.5c90.57,0,164.24-73.79,164.24-164.5S180.45,139.5,89.88,139.5A163.65,163.65,0,0,0,2.65,164.59L0,160.36A168.52,168.52,0,0,1,89.88,134.5c93.32,0,169.24,76,169.24,169.5S183.2,473.5,89.88,473.5Z"/><g class="cls-4"><polygon class="cls-5" points="90.88 487.43 106.83 501.39 90.88 501.39 90.88 487.43"/><polygon class="cls-5" points="90.88 486.81 107.55 501.39 106.83 501.39 90.88 487.43 90.88 486.81"/><polygon class="cls-6" points="90.88 486.18 108.26 501.39 107.55 501.39 90.88 486.81 90.88 486.18"/><polygon class="cls-7" points="90.88 485.56 108.98 501.39 108.26 501.39 90.88 486.18 90.88 485.56"/><polygon class="cls-8" points="90.88 484.93 109.69 501.39 108.98 501.39 90.88 485.56 90.88 484.93"/><polygon class="cls-9" points="90.88 484.31 110.41 501.39 109.69 501.39 90.88 484.93 90.88 484.31"/><polygon class="cls-10" points="90.88 483.68 111.12 501.39 110.41 501.39 90.88 484.31 90.88 483.68"/><polygon class="cls-11" points="90.88 483.06 111.84 501.39 111.12 501.39 90.88 483.68 90.88 483.06"/><polygon class="cls-12" points="90.88 482.43 112.55 501.39 111.84 501.39 90.88 483.06 90.88 482.43"/><polygon class="cls-13" points="90.88 481.8 113.27 501.39 112.55 501.39 90.88 482.43 90.88 481.8"/><polygon class="cls-14" points="90.88 481.18 113.98 501.39 113.27 501.39 90.88 481.8 90.88 481.18"/><polygon class="cls-15" points="90.88 480.55 114.7 501.39 113.98 501.39 90.88 481.18 90.88 480.55"/><polygon class="cls-16" points="90.88 479.93 115.41 501.39 114.7 501.39 90.88 480.55 90.88 479.93"/><polygon class="cls-17" points="90.88 479.3 116.13 501.39 115.41 501.39 90.88 479.93 90.88 479.3"/><polygon class="cls-17" points="90.88 478.58 116.96 501.39 116.13 501.39 90.88 479.3 90.88 478.58"/><polygon class="cls-18" points="90.88 477.85 117.79 501.39 116.96 501.39 90.88 478.58 90.88 477.85"/><polygon class="cls-19" points="90.88 477.12 118.62 501.39 117.79 501.39 90.88 477.85 90.88 477.12"/><polygon class="cls-20" points="90.88 476.4 119.45 501.39 118.62 501.39 90.88 477.12 90.88 476.4"/><polygon class="cls-21" points="90.88 475.67 120.28 501.39 119.45 501.39 90.88 476.4 90.88 475.67"/><polygon class="cls-22" points="90.88 474.94 121.11 501.39 120.28 501.39 90.88 475.67 90.88 474.94"/><polygon class="cls-23" points="90.88 474.22 121.94 501.39 121.11 501.39 90.88 474.94 90.88 474.22"/><polygon class="cls-24" points="90.88 473.49 122.77 501.39 121.94 501.39 90.88 474.22 90.88 473.49"/><polygon class="cls-25" points="90.88 472.76 123.6 501.39 122.77 501.39 90.88 473.49 90.88 472.76"/><polygon class="cls-26" points="90.88 472.04 124.43 501.39 123.6 501.39 90.88 472.76 90.88 472.04"/><polygon class="cls-27" points="90.88 471.31 125.26 501.39 124.43 501.39 90.88 472.04 90.88 471.31"/><polygon class="cls-28" points="90.88 470.58 126.09 501.39 125.26 501.39 90.88 471.31 90.88 470.58"/><polygon class="cls-29" points="90.88 469.86 126.92 501.39 126.09 501.39 90.88 470.58 90.88 469.86"/><polygon class="cls-30" points="90.88 469.13 127.75 501.39 126.92 501.39 90.88 469.86 90.88 469.13"/><polygon class="cls-31" points="90.88 468.4 128.58 501.39 127.75 501.39 90.88 469.13 90.88 468.4"/><polygon class="cls-32" points="90.88 467.68 129.41 501.39 128.58 501.39 90.88 468.4 90.88 467.68"/><polygon class="cls-33" points="90.88 466.95 130.24 501.39 129.41 501.39 90.88 467.68 90.88 466.95"/><polygon class="cls-34" points="90.88 466.23 131.07 501.39 130.24 501.39 90.88 466.95 90.88 466.23"/><polygon class="cls-35" points="90.88 465.5 131.9 501.39 131.07 501.39 90.88 466.23 90.88 465.5"/><polygon class="cls-36" points="90.88 464.77 132.73 501.39 131.9 501.39 90.88 465.5 90.88 464.77"/><polygon class="cls-37" points="90.88 464.05 133.56 501.39 132.73 501.39 90.88 464.77 90.88 464.05"/><polygon class="cls-38" points="90.88 463.32 134.39 501.39 133.56 501.39 90.88 464.05 90.88 463.32"/><polygon class="cls-39" points="90.88 462.59 135.22 501.39 134.39 501.39 90.88 463.32 90.88 462.59"/><polygon class="cls-40" points="90.88 461.87 136.05 501.39 135.22 501.39 90.88 462.59 90.88 461.87"/><polygon class="cls-40" points="90.88 460.71 137.38 501.39 136.05 501.39 90.88 461.87 90.88 460.71"/><polygon class="cls-41" points="90.88 459.55 138.7 501.39 137.38 501.39 90.88 460.71 90.88 459.55"/><polygon class="cls-42" points="90.88 458.39 140.02 501.39 138.7 501.39 90.88 459.55 90.88 458.39"/><polygon class="cls-43" points="90.88 457.24 141.34 501.39 140.02 501.39 90.88 458.39 90.88 457.24"/><polygon class="cls-44" points="90.88 456.08 142.67 501.39 141.34 501.39 90.88 457.24 90.88 456.08"/><polygon class="cls-45" points="90.88 454.92 143.99 501.39 142.67 501.39 90.88 456.08 90.88 454.92"/><polygon class="cls-46" points="90.88 453.76 145.31 501.39 143.99 501.39 90.88 454.92 90.88 453.76"/><polygon class="cls-47" points="90.88 452.61 146.63 501.39 145.31 501.39 90.88 453.76 90.88 452.61"/><polygon class="cls-48" points="90.88 451.45 147.96 501.39 146.63 501.39 90.88 452.61 90.88 451.45"/><polygon class="cls-49" points="90.88 450.29 149.28 501.39 147.96 501.39 90.88 451.45 90.88 450.29"/><polygon class="cls-50" points="90.88 449.13 150.6 501.39 149.28 501.39 90.88 450.29 90.88 449.13"/><polygon class="cls-51" points="90.88 447.98 151.93 501.39 150.6 501.39 90.88 449.13 90.88 447.98"/><polygon class="cls-52" points="90.88 446.82 153.25 501.39 151.93 501.39 90.88 447.98 90.88 446.82"/><polygon class="cls-53" points="90.88 445.66 154.57 501.39 153.25 501.39 90.88 446.82 90.88 445.66"/><polygon class="cls-54" points="90.88 444.5 155.9 501.39 154.57 501.39 90.88 445.66 90.88 444.5"/><polygon class="cls-55" points="90.88 443.35 157.22 501.39 155.9 501.39 90.88 444.5 90.88 443.35"/><polygon class="cls-55" points="90.88 441.29 159.56 501.39 157.22 501.39 90.88 443.35 90.88 441.29"/><polygon class="cls-56" points="90.88 439.24 161.91 501.39 159.56 501.39 90.88 441.29 90.88 439.24"/><polygon class="cls-57" points="90.88 437.19 164.25 501.39 161.91 501.39 90.88 439.24 90.88 437.19"/><polygon class="cls-58" points="90.88 435.14 166.59 501.39 164.25 501.39 90.88 437.19 90.88 435.14"/><polygon class="cls-59" points="90.88 433.09 168.94 501.39 166.59 501.39 90.88 435.14 90.88 433.09"/><polygon class="cls-60" points="90.88 431.04 170.91 501.07 170.63 501.39 168.94 501.39 90.88 433.09 90.88 431.04"/><polygon class="cls-61" points="90.88 428.99 171.93 499.91 170.91 501.07 90.88 431.04 90.88 428.99"/><polygon class="cls-62" points="90.88 426.94 172.94 498.75 171.93 499.91 90.88 428.99 90.88 426.94"/><polygon class="cls-63" points="90.88 424.89 173.96 497.58 172.94 498.75 90.88 426.94 90.88 424.89"/><polygon class="cls-64" points="90.88 423.84 91.38 423.27 174.97 496.42 173.96 497.58 90.88 424.89 90.88 423.84"/><polygon class="cls-64" points="91.38 423.27 94.56 419.62 178.16 492.77 174.97 496.42 91.38 423.27"/><polygon class="cls-65" points="94.56 419.62 97.75 415.97 181.34 489.12 178.16 492.77 94.56 419.62"/><polygon class="cls-66" points="97.75 415.97 100.93 412.32 184.53 485.47 181.34 489.12 97.75 415.97"/><polygon class="cls-3" points="100.93 412.32 104.12 408.67 186.73 480.96 186.73 482.94 184.53 485.47 100.93 412.32"/><polygon class="cls-3" points="104.12 408.67 106.98 405.39 186.73 405.39 186.73 480.96 104.12 408.67"/></g><g class="cls-67"><polygon class="cls-5" points="90.88 486.96 114.41 507.55 102.38 521.35 90.88 521.35 90.88 486.96"/><polygon class="cls-5" points="90.88 486.34 114.72 507.2 114.41 507.55 90.88 486.96 90.88 486.34"/><polygon class="cls-6" points="90.88 485.71 115.03 506.84 114.72 507.2 90.88 486.34 90.88 485.71"/><polygon class="cls-7" points="90.88 485.09 115.34 506.49 115.03 506.84 90.88 485.71 90.88 485.09"/><polygon class="cls-8" points="90.88 484.46 115.65 506.13 115.34 506.49 90.88 485.09 90.88 484.46"/><polygon class="cls-9" points="90.88 483.83 115.96 505.78 115.65 506.13 90.88 484.46 90.88 483.83"/><polygon class="cls-10" points="90.88 483.21 116.27 505.42 115.96 505.78 90.88 483.83 90.88 483.21"/><polygon class="cls-11" points="90.88 482.58 116.58 505.07 116.27 505.42 90.88 483.21 90.88 482.58"/><polygon class="cls-12" points="90.88 481.96 116.89 504.71 116.58 505.07 90.88 482.58 90.88 481.96"/><polygon class="cls-13" points="90.88 481.33 117.19 504.36 116.89 504.71 90.88 481.96 90.88 481.33"/><polygon class="cls-14" points="90.88 480.71 117.5 504 117.19 504.36 90.88 481.33 90.88 480.71"/><polygon class="cls-15" points="90.88 480.08 117.81 503.65 117.5 504 90.88 480.71 90.88 480.08"/><polygon class="cls-16" points="90.88 479.46 118.12 503.3 117.81 503.65 90.88 480.08 90.88 479.46"/><polygon class="cls-17" points="90.88 478.83 118.43 502.94 118.12 503.3 90.88 479.46 90.88 478.83"/><polygon class="cls-17" points="90.88 478.1 118.79 502.53 118.43 502.94 90.88 478.83 90.88 478.1"/><polygon class="cls-18" points="90.88 477.38 119.15 502.12 118.79 502.53 90.88 478.1 90.88 477.38"/><polygon class="cls-19" points="90.88 476.65 119.51 501.7 119.15 502.12 90.88 477.38 90.88 476.65"/><polygon class="cls-20" points="90.88 475.93 119.87 501.29 119.51 501.7 90.88 476.65 90.88 475.93"/><polygon class="cls-21" points="90.88 475.2 120.23 500.88 119.87 501.29 90.88 475.93 90.88 475.2"/><polygon class="cls-22" points="90.88 474.47 120.59 500.47 120.23 500.88 90.88 475.2 90.88 474.47"/><polygon class="cls-23" points="90.88 473.75 120.95 500.06 120.59 500.47 90.88 474.47 90.88 473.75"/><polygon class="cls-24" points="90.88 473.02 121.31 499.64 120.95 500.06 90.88 473.75 90.88 473.02"/><polygon class="cls-25" points="90.88 472.29 121.67 499.23 121.31 499.64 90.88 473.02 90.88 472.29"/><polygon class="cls-26" points="90.88 471.57 122.03 498.82 121.67 499.23 90.88 472.29 90.88 471.57"/><polygon class="cls-27" points="90.88 470.84 122.39 498.41 122.03 498.82 90.88 471.57 90.88 470.84"/><polygon class="cls-28" points="90.88 470.11 122.75 498 122.39 498.41 90.88 470.84 90.88 470.11"/><polygon class="cls-29" points="90.88 469.39 123.11 497.58 122.75 498 90.88 470.11 90.88 469.39"/><polygon class="cls-30" points="90.88 468.66 123.46 497.17 123.11 497.58 90.88 469.39 90.88 468.66"/><polygon class="cls-31" points="90.88 467.93 123.82 496.76 123.46 497.17 90.88 468.66 90.88 467.93"/><polygon class="cls-32" points="90.88 467.21 124.18 496.35 123.82 496.76 90.88 467.93 90.88 467.21"/><polygon class="cls-33" points="90.88 466.48 124.54 495.94 124.18 496.35 90.88 467.21 90.88 466.48"/><polygon class="cls-34" points="90.88 465.75 124.9 495.52 124.54 495.94 90.88 466.48 90.88 465.75"/><polygon class="cls-35" points="90.88 465.03 125.26 495.11 124.9 495.52 90.88 465.75 90.88 465.03"/><polygon class="cls-36" points="90.88 464.3 125.62 494.7 125.26 495.11 90.88 465.03 90.88 464.3"/><polygon class="cls-37" points="90.88 463.57 125.98 494.29 125.62 494.7 90.88 464.3 90.88 463.57"/><polygon class="cls-38" points="90.88 462.85 126.34 493.88 125.98 494.29 90.88 463.57 90.88 462.85"/><polygon class="cls-39" points="90.88 462.12 126.7 493.46 126.34 493.88 90.88 462.85 90.88 462.12"/><polygon class="cls-40" points="90.88 461.39 127.06 493.05 126.7 493.46 90.88 462.12 90.88 461.39"/><polygon class="cls-40" points="90.88 460.24 127.63 492.39 127.06 493.05 90.88 461.39 90.88 460.24"/><polygon class="cls-41" points="90.88 459.08 128.2 491.74 127.63 492.39 90.88 460.24 90.88 459.08"/><polygon class="cls-42" points="90.88 457.92 128.78 491.08 128.2 491.74 90.88 459.08 90.88 457.92"/><polygon class="cls-43" points="90.88 456.76 129.35 490.43 128.78 491.08 90.88 457.92 90.88 456.76"/><polygon class="cls-44" points="90.88 455.61 129.92 489.77 129.35 490.43 90.88 456.76 90.88 455.61"/><polygon class="cls-45" points="90.88 454.45 130.49 489.11 129.92 489.77 90.88 455.61 90.88 454.45"/><polygon class="cls-46" points="90.88 453.29 131.07 488.46 130.49 489.11 90.88 454.45 90.88 453.29"/><polygon class="cls-47" points="90.88 452.13 131.64 487.8 131.07 488.46 90.88 453.29 90.88 452.13"/><polygon class="cls-48" points="91.18 451.24 132.21 487.14 131.64 487.8 90.88 452.13 90.88 451.24 91.18 451.24"/><polygon class="cls-49" points="92.5 451.24 132.78 486.49 132.21 487.14 91.18 451.24 92.5 451.24"/><polygon class="cls-50" points="93.82 451.24 133.36 485.83 132.78 486.49 92.5 451.24 93.82 451.24"/><polygon class="cls-51" points="95.15 451.24 133.93 485.17 133.36 485.83 93.82 451.24 95.15 451.24"/><polygon class="cls-52" points="96.47 451.24 134.5 484.52 133.93 485.17 95.15 451.24 96.47 451.24"/><polygon class="cls-53" points="97.79 451.24 135.07 483.86 134.5 484.52 96.47 451.24 97.79 451.24"/><polygon class="cls-54" points="99.11 451.24 135.65 483.2 135.07 483.86 97.79 451.24 99.11 451.24"/><polygon class="cls-55" points="100.44 451.24 136.22 482.55 135.65 483.2 99.11 451.24 100.44 451.24"/><polygon class="cls-55" points="102.78 451.24 137.24 481.38 136.22 482.55 100.44 451.24 102.78 451.24"/><polygon class="cls-56" points="105.13 451.24 138.25 480.22 137.24 481.38 102.78 451.24 105.13 451.24"/><polygon class="cls-57" points="107.47 451.24 139.26 479.06 138.25 480.22 105.13 451.24 107.47 451.24"/><polygon class="cls-58" points="109.81 451.24 140.28 477.9 139.26 479.06 107.47 451.24 109.81 451.24"/><polygon class="cls-59" points="112.16 451.24 141.29 476.73 140.28 477.9 109.81 451.24 112.16 451.24"/><polygon class="cls-60" points="114.5 451.24 142.31 475.57 141.29 476.73 112.16 451.24 114.5 451.24"/><polygon class="cls-61" points="116.84 451.24 143.32 474.41 142.31 475.57 114.5 451.24 116.84 451.24"/><polygon class="cls-62" points="119.19 451.24 144.34 473.24 143.32 474.41 116.84 451.24 119.19 451.24"/><polygon class="cls-63" points="121.53 451.24 145.35 472.08 144.34 473.24 119.19 451.24 121.53 451.24"/><polygon class="cls-64" points="123.87 451.24 146.37 470.92 145.35 472.08 121.53 451.24 123.87 451.24"/><polygon class="cls-64" points="131.23 451.24 149.55 467.27 146.37 470.92 123.87 451.24 131.23 451.24"/><polygon class="cls-65" points="138.59 451.24 152.74 463.62 149.55 467.27 131.23 451.24 138.59 451.24"/><polygon class="cls-66" points="145.94 451.24 155.92 459.97 152.74 463.62 138.59 451.24 145.94 451.24"/><polygon class="cls-3" points="153.3 451.24 159.1 456.31 155.92 459.97 145.94 451.24 153.3 451.24"/><polygon class="cls-3" points="160.88 454.28 159.1 456.31 153.3 451.24 160.88 451.24 160.88 454.28"/></g><g id="Grupo_158" data-name="Grupo 158"><g id="Rectángulo_120" data-name="Rectángulo 120"><rect class="cls-68" x="1212.69" y="190.51" width="2.56" height="13.66" rx="0.51"/></g><g id="Rectángulo_121" data-name="Rectángulo 121"><rect class="cls-68" x="1207.9" y="196.06" width="12.15" height="2.56" rx="0.51"/></g></g><g id="Grupo_158-2" data-name="Grupo 158"><g id="Rectángulo_120-2" data-name="Rectángulo 120"><rect class="cls-69" x="139.39" y="540.51" width="2.56" height="13.66" rx="0.51"/></g><g id="Rectángulo_121-2" data-name="Rectángulo 121"><rect class="cls-69" x="134.59" y="546.06" width="12.15" height="2.56" rx="0.51"/></g></g><g id="Grupo_158-3" data-name="Grupo 158"><g id="Rectángulo_120-3" data-name="Rectángulo 120"><rect class="cls-68" x="64.28" y="411.3" width="3.01" height="16.09" rx="0.6"/></g><g id="Rectángulo_121-3" data-name="Rectángulo 121"><rect class="cls-68" x="58.63" y="417.83" width="14.31" height="3.02" rx="0.6"/></g></g><g id="Grupo_158-4" data-name="Grupo 158"><g id="Rectángulo_120-4" data-name="Rectángulo 120"><rect class="cls-3" x="1148.17" y="338.51" width="1.81" height="9.67" rx="0.36"/></g><g id="Rectángulo_121-4" data-name="Rectángulo 121"><rect class="cls-3" x="1144.78" y="342.43" width="8.6" height="1.81" rx="0.36"/></g></g><path class="cls-2" d="M273.59,713c-7.65-34.25-9.43-74,12.65-101.27,18.68-23.07,51.51-28.83,81.15-27.71s59.52,7.47,88.68,2.05c48.75-9.07,88-49.63,137.27-55.18,46-5.19,93.79,26.15,106.34,70.77s-12.66,97-55.77,113.9c-46.46,18.2-102.23-2.75-147.24,18.79-15.44,7.39-28.26,19.26-42.84,28.25-50.25,31-127.32,26.4-162.41-20.82Z"/><ellipse class="cls-3" cx="1041.88" cy="223.5" rx="4.49" ry="4.5"/><path class="cls-3" d="M1205.12,291a8,8,0,1,1,8-8A8,8,0,0,1,1205.12,291Zm0-15a7,7,0,1,0,7,7A7,7,0,0,0,1205.12,276Z"/><path class="cls-3" d="M503.23,738a28,28,0,1,1,28-28A28,28,0,0,1,503.23,738Zm0-55a27,27,0,1,0,27,27A27,27,0,0,0,503.23,683Z"/><path class="cls-3" d="M103.36,556a8.5,8.5,0,1,1,8.49-8.5A8.5,8.5,0,0,1,103.36,556Zm0-16a7.5,7.5,0,1,0,7.49,7.5A7.5,7.5,0,0,0,103.36,540Z"/><path class="cls-3" d="M137.31,370a8.5,8.5,0,1,1,8.48-8.5A8.5,8.5,0,0,1,137.31,370Zm0-16a7.5,7.5,0,1,0,7.49,7.5A7.5,7.5,0,0,0,137.31,354Z"/><rect class="cls-1" x="4" width="1275" height="966"/></g></g></svg>