<svg xmlns="http://www.w3.org/2000/svg" xmlns:xlink="http://www.w3.org/1999/xlink" viewBox="0 0 1098.27 2200"><defs><style>.cls-1{fill:url(#Degradado_sin_nombre_49);}.cls-2{fill:#e5e5e5;}.cls-3{fill:url(#Degradado_sin_nombre_2);}.cls-4{mask:url(#mask);}.cls-5{opacity:0.6;}.cls-6{fill:#00868d;}.cls-7{fill:#bdb652;}.cls-8{fill:#00c98d;}.cls-9{fill:#00768d;}</style><linearGradient id="Degradado_sin_nombre_49" x1="-1.86" y1="1115.06" x2="575.91" y2="1765.96" gradientUnits="userSpaceOnUse"><stop offset="0" stop-color="#fff"/><stop offset="1"/></linearGradient><linearGradient id="Degradado_sin_nombre_2" x1="24.67" y1="2144.84" x2="852.31" y2="1674.82" gradientUnits="userSpaceOnUse"><stop offset="0" stop-color="#00868d"/><stop offset="0.09" stop-color="#00938d"/><stop offset="0.28" stop-color="#00ab8d"/><stop offset="0.49" stop-color="#00bb8d"/><stop offset="0.71" stop-color="#00c58d"/><stop offset="1" stop-color="#00c98d"/></linearGradient><mask id="mask" x="0" y="1418.3" width="1098.27" height="778.7" maskUnits="userSpaceOnUse"><path class="cls-1" d="M4.43,1477.74s275.28-93,669.46-46.35c402.42,47.63,424.38-8.86,424.38-8.86v626.83H.27Z"/></mask></defs><title>img-background-phone-m</title><g id="Capa_2" data-name="Capa 2"><g id="Capa_1-2" data-name="Capa 1"><rect class="cls-2" x="1.27" width="1094" height="1694"/><path class="cls-3" d="M4.43,1491.48S279.71,1376.2,673.89,1434c402.42,59,424.38-11,424.38-11v777H.27Z"/><g class="cls-4"><g class="cls-5"><g id="Grupo_185" data-name="Grupo 185"><path id="Trazado_199" data-name="Trazado 199" class="cls-6" d="M330.64,1420.4v62.71c42.08,0,76.18-27.54,76.18-61.49,0-.41,0-.81,0-1.22Z"/><path id="Trazado_200" data-name="Trazado 200" class="cls-7" d="M331.64,1556.37l160.8-134.78v134.78Z"/><path id="Trazado_201" data-name="Trazado 201" class="cls-8" d="M424.77,1691c0,.57,0,1.13,0,1.7h67.85c-1.42-72.89-72.51-132.12-161.93-136.24v55.13C379.06,1613.38,424.77,1651.43,424.77,1691Z"/><path id="Rectángulo_153" data-name="Rectángulo 153" class="cls-6" d="M616.69,1507h44.6v48.82h-58.2V1518c0-6,6.09-11,13.6-11Z"/><path id="Rectángulo_154" data-name="Rectángulo 154" class="cls-6" d="M594.36,1510.41H492.44v-89.63H608v78.66c0,6.06-6.08,11-13.59,11Z"/><path id="Trazado_202" data-name="Trazado 202" class="cls-9" d="M597.19,1580.53c-29.35,1.65-52.13,21.32-52.18,45h52.18Z"/><path id="Trazado_203" data-name="Trazado 203" class="cls-6" d="M604.31,1510.41l-89.77,62.79v-62.79"/><path id="Trazado_204" data-name="Trazado 204" class="cls-6" d="M614.56,1621.72l-34.71,35.11v-31.25"/><path id="Rectángulo_155" data-name="Rectángulo 155" class="cls-6" d="M620.42,1805.18H518.5V1692.3H634v101.91c0,6.06-6.09,11-13.6,11Z"/><path id="Trazado_205" data-name="Trazado 205" class="cls-7" d="M281.82,1718.56H397.33v75.65c0,6.06-6.08,11-13.59,11H247.25Z"/><path id="Trazado_206" data-name="Trazado 206" class="cls-6" d="M595.09,1805.18l-50.82,38.33v-38.33"/><path id="Trazado_207" data-name="Trazado 207" class="cls-6" d="M381.47,1556.33l-50.82,38.33v-38.33"/><path id="Trazado_208" data-name="Trazado 208" class="cls-6" d="M618.72,1507c.77,0,34.1-38.32,34.1-38.32V1507"/></g><g id="Grupo_186" data-name="Grupo 186"><rect id="Rectángulo_156" data-name="Rectángulo 156" class="cls-9" x="169.85" y="1422.1" width="160.8" height="134.78"/><path id="Trazado_209" data-name="Trazado 209" class="cls-6" d="M180.64,1692.08H280.87c0-43.77-44-79.24-98.28-79.24-.66,0-1.3,0-2,0Z"/><path id="Trazado_210" data-name="Trazado 210" class="cls-7" d="M329.65,1556.89l-160.8,134.78V1556.89Z"/><rect id="Rectángulo_157" data-name="Rectángulo 157" class="cls-6" x="1.65" y="1420.4" width="167.06" height="136.24"/><path id="Trazado_211" data-name="Trazado 211" class="cls-7" d="M168.71,1556.64,1.65,1420.4H168.71Z"/><path id="Trazado_212" data-name="Trazado 212" class="cls-8" d="M236.52,1422.1c0-.57,0-1.13,0-1.7H168.71c1.43,72.89,72.52,132.12,161.93,136.24v-55.13C282.23,1499.68,236.52,1461.62,236.52,1422.1Z"/><path id="Trazado_213" data-name="Trazado 213" class="cls-6" d="M510.47,1624.77c0,.29,0,.58,0,.87H545c-.73-37-36.71-67.26-82.49-69.4v28.08C487.18,1585.26,510.47,1604.64,510.47,1624.77Z"/><path id="Rectángulo_158" data-name="Rectángulo 158" class="cls-6" d="M44.6,1605.45H0v-48.81H58.2v37.84c0,6.06-6.09,11-13.6,11Z"/><path id="Rectángulo_159" data-name="Rectángulo 159" class="cls-6" d="M66.93,1602H168.85v89.63H53.33V1613c0-6.06,6.09-11,13.6-11Z"/><ellipse id="Elipse_95" data-name="Elipse 95" class="cls-7" cx="268.17" cy="1472.46" rx="40.13" ry="32.38"/><ellipse id="Elipse_96" data-name="Elipse 96" class="cls-7" cx="411.58" cy="1779.53" rx="40.13" ry="32.38"/><ellipse id="Elipse_97" data-name="Elipse 97" class="cls-8" cx="85.18" cy="1488.52" rx="56.08" ry="45.25"/><path id="Trazado_214" data-name="Trazado 214" class="cls-6" d="M92.26,1602l50.83-38.33V1602"/><path id="Trazado_215" data-name="Trazado 215" class="cls-6" d="M42.57,1605.45c-.77,0-34.1,38.33-34.1,38.33v-38.33"/></g><g id="Grupo_187" data-name="Grupo 187"><rect id="Rectángulo_160" data-name="Rectángulo 160" class="cls-9" x="4.53" y="1826.83" width="160.8" height="134.78"/><path id="Trazado_216" data-name="Trazado 216" class="cls-6" d="M4.53,1691.67v62.71c42.07,0,76.17-27.54,76.17-61.49,0-.41,0-.81,0-1.22Z"/><path id="Trazado_217" data-name="Trazado 217" class="cls-7" d="M5.52,1826.83l160.8-134.78v134.78Z"/><rect id="Rectángulo_161" data-name="Rectángulo 161" class="cls-6" x="166.46" y="1827.08" width="167.06" height="136.24"/><path id="Trazado_218" data-name="Trazado 218" class="cls-7" d="M166.46,1827.08l167.06,136.24H166.46Z"/><path id="Trazado_219" data-name="Trazado 219" class="cls-8" d="M98.65,1961.61c0,.57,0,1.14-.05,1.71h67.86c-1.43-72.9-72.52-132.13-161.93-136.24v55.12C52.94,1884,98.65,1922.1,98.65,1961.61Z"/><path id="Trazado_220" data-name="Trazado 220" class="cls-6" d="M281,1790.91v-98.86l-57.73,52.46-31.1,46.4Z"/><ellipse id="Elipse_98" data-name="Elipse 98" class="cls-7" cx="67" cy="1911.26" rx="40.13" ry="32.38"/><ellipse id="Elipse_99" data-name="Elipse 99" class="cls-8" cx="249.99" cy="1895.2" rx="56.08" ry="45.25"/><path id="Trazado_221" data-name="Trazado 221" class="cls-6" d="M242.91,1781.68,192.08,1820v-38.33"/></g><g id="Grupo_188" data-name="Grupo 188"><path id="Trazado_222" data-name="Trazado 222" class="cls-6" d="M662.94,1964.4v-62.72c-42.08,0-76.18,27.55-76.18,61.5,0,.41,0,.81,0,1.22Z"/><path id="Trazado_223" data-name="Trazado 223" class="cls-7" d="M661.94,1829.24,501.14,1964V1829.24Z"/><path id="Trazado_224" data-name="Trazado 224" class="cls-7" d="M477.13,1829,333.52,1949.37V1829Z"/><path id="Trazado_225" data-name="Trazado 225" class="cls-8" d="M568.81,1693.76c0-.58,0-1.14.05-1.71H501c1.43,72.89,72.51,132.13,161.93,136.24v-55.13C614.52,1771.33,568.81,1733.27,568.81,1693.76Z"/><path id="Rectángulo_162" data-name="Rectángulo 162" class="cls-6" d="M393.06,1869.61H501.14V1964H379.47v-83.44c0-6.06,6.08-11,13.59-11Z"/><ellipse id="Elipse_100" data-name="Elipse 100" class="cls-8" cx="417.48" cy="1760.87" rx="56.08" ry="45.25"/><path id="Trazado_226" data-name="Trazado 226" class="cls-6" d="M420.47,1869.61,474,1829.24v40.37"/></g><g id="Grupo_187-2" data-name="Grupo 187"><rect id="Rectángulo_160-2" data-name="Rectángulo 160" class="cls-9" x="661.27" y="1693.18" width="160.8" height="134.78"/><path id="Trazado_216-2" data-name="Trazado 216" class="cls-6" d="M661.27,1558v62.72c42.08,0,76.18-27.55,76.18-61.5,0-.41,0-.81,0-1.22Z"/><path id="Trazado_217-2" data-name="Trazado 217" class="cls-7" d="M662.27,1693.18l160.8-134.78v134.78Z"/><rect id="Rectángulo_161-2" data-name="Rectángulo 161" class="cls-6" x="823.21" y="1693.43" width="167.06" height="136.24"/><path id="Trazado_218-2" data-name="Trazado 218" class="cls-7" d="M823.21,1693.43l167.06,136.24H823.21Z"/><path id="Trazado_219-2" data-name="Trazado 219" class="cls-8" d="M755.4,1828c0,.57,0,1.13,0,1.7h67.86c-1.43-72.89-72.52-132.12-161.94-136.24v55.13C709.69,1750.39,755.4,1788.45,755.4,1828Z"/><path id="Trazado_220-2" data-name="Trazado 220" class="cls-6" d="M937.74,1657.27V1558.4L880,1610.86l-31.1,46.41Z"/><ellipse id="Elipse_98-2" data-name="Elipse 98" class="cls-7" cx="723.75" cy="1777.61" rx="40.13" ry="32.38"/><ellipse id="Elipse_99-2" data-name="Elipse 99" class="cls-8" cx="906.74" cy="1761.55" rx="56.08" ry="45.25"/><path id="Trazado_221-2" data-name="Trazado 221" class="cls-6" d="M899.66,1648l-50.83,38.33V1648"/></g><g id="Grupo_185-2" data-name="Grupo 185"><path id="Trazado_199-2" data-name="Trazado 199" class="cls-6" d="M336.64,1960.13v62.72c42.08,0,76.18-27.55,76.18-61.5,0-.41,0-.81,0-1.22Z"/><path id="Trazado_200-2" data-name="Trazado 200" class="cls-7" d="M337.64,2096.11l160.8-134.78v134.78Z"/><path id="Rectángulo_153-2" data-name="Rectángulo 153" class="cls-6" d="M622.69,2046.73h44.6v48.81h-58.2V2057.7c0-6.06,6.09-11,13.6-11Z"/><path id="Rectángulo_154-2" data-name="Rectángulo 154" class="cls-6" d="M600.36,2050.14H498.44v-89.63H614v78.66c0,6.06-6.08,11-13.59,11Z"/><path id="Trazado_202-2" data-name="Trazado 202" class="cls-9" d="M603.19,2120.26c-29.35,1.65-52.13,21.32-52.18,45.06h52.18Z"/><path id="Trazado_203-2" data-name="Trazado 203" class="cls-6" d="M610.31,2050.14l-89.77,62.79v-62.79"/><path id="Trazado_204-2" data-name="Trazado 204" class="cls-6" d="M620.56,2161.45l-34.71,35.11v-31.24"/><path id="Trazado_207-2" data-name="Trazado 207" class="cls-6" d="M387.47,2096.06l-50.82,38.34v-38.34"/><path id="Trazado_208-2" data-name="Trazado 208" class="cls-6" d="M624.72,2046.73c.77,0,34.1-38.33,34.1-38.33v38.33"/></g><g id="Grupo_186-2" data-name="Grupo 186"><rect id="Rectángulo_156-2" data-name="Rectángulo 156" class="cls-9" x="175.85" y="1961.84" width="160.8" height="134.78"/><rect id="Rectángulo_157-2" data-name="Rectángulo 157" class="cls-6" x="7.65" y="1960.13" width="167.06" height="136.24"/><path id="Trazado_211-2" data-name="Trazado 211" class="cls-7" d="M174.71,2096.37,7.65,1960.13H174.71Z"/><path id="Trazado_212-2" data-name="Trazado 212" class="cls-8" d="M242.52,1961.84c0-.57,0-1.14,0-1.71H174.71c1.43,72.9,72.52,132.13,161.93,136.24v-55.12C288.23,2039.41,242.52,2001.35,242.52,1961.84Z"/><path id="Trazado_213-2" data-name="Trazado 213" class="cls-6" d="M516.47,2164.51c0,.29,0,.58,0,.87H551c-.73-37-36.71-67.27-82.49-69.41v28.08C493.18,2125,516.47,2144.38,516.47,2164.51Z"/><path id="Rectángulo_158-2" data-name="Rectángulo 158" class="cls-6" d="M50.6,2145.19H6v-48.82H64.2v37.85c0,6.05-6.09,11-13.6,11Z"/><ellipse id="Elipse_95-2" data-name="Elipse 95" class="cls-7" cx="274.17" cy="2012.19" rx="40.13" ry="32.38"/><ellipse id="Elipse_97-2" data-name="Elipse 97" class="cls-8" cx="91.18" cy="2028.25" rx="56.08" ry="45.25"/><path id="Trazado_214-2" data-name="Trazado 214" class="cls-6" d="M98.26,2141.77l50.83-38.33v38.33"/><path id="Trazado_215-2" data-name="Trazado 215" class="cls-6" d="M48.57,2145.19c-.77,0-34.1,38.32-34.1,38.32v-38.32"/></g><g id="Grupo_187-3" data-name="Grupo 187"><path id="Trazado_216-3" data-name="Trazado 216" class="cls-6" d="M667.27,2097.75v62.72c42.08,0,76.18-27.55,76.18-61.49,0-.41,0-.82,0-1.23Z"/><path id="Trazado_220-3" data-name="Trazado 220" class="cls-6" d="M943.74,2197v-98.86L886,2150.59,854.91,2197Z"/></g></g></g></g></g></svg>