<?xml version="1.0" encoding="utf-8"?>
<!-- Generator: Adobe Illustrator 24.0.0, SVG Export Plug-In . SVG Version: 6.00 Build 0)  -->
<svg version="1.1" id="Layer_1" xmlns="http://www.w3.org/2000/svg" xmlns:xlink="http://www.w3.org/1999/xlink" x="0px" y="0px"
	 viewBox="0 0 512 512" style="enable-background:new 0 0 512 512;" xml:space="preserve">
<style type="text/css">
	.st0{fill:#989A9B;}
	.st1{display:none;}
	.st2{display:inline;fill:#989A9B;}
</style>
<g>
	<path class="st0" d="M348.3,10.4c0.8,0.6,1.6,1.2,2.4,1.8c1.2,1.4,3.8,4.9,4.3,10c0.8,7.8-3.9,13.3-4.7,14.3
		c-52.7,69.9-105.5,139.8-158.2,209.7c-0.8,1.4-2.6,5.4-2,10.6c0.5,4.1,2.4,7,3.4,8.4c51.3,69.8,102.6,139.6,153.9,209.4
		c1,0.9,7.6,7,7.1,16c-0.2,4-1.7,7.1-2.8,8.9c-1.7,1.4-3.4,2.9-5.1,4.3c-1.7,0.6-4.9,1.4-8.7,0.9c-7-1-11-5.8-12-7.1
		c-54.8-76-109.6-151.9-164.4-227.9c-1.5-2.1-4.6-7.1-5.1-14.2c-0.6-8.6,3.1-14.8,4.4-16.9c55-74.7,110-149.3,165-224
		c0.5-0.8,4.6-6.5,12-7.1C343.3,7,347.1,9.5,348.3,10.4z"/>
</g>
<g class="st1">
	<path class="st2" d="M163.7,10.3c-0.8,0.6-1.6,1.2-2.4,1.8c-1.2,1.4-3.8,4.9-4.3,10c-0.8,7.8,3.8,13.3,4.7,14.3
		c52.6,69.9,105.2,139.8,157.8,209.7c0.8,1.4,2.6,5.4,2,10.6c-0.5,4.1-2.4,7-3.4,8.4c-51.2,69.8-102.3,139.6-153.5,209.4
		c-1,0.9-7.6,7-7.1,16c0.2,4,1.7,7.1,2.8,8.9c1.7,1.4,3.4,2.9,5,4.3c1.7,0.6,4.9,1.4,8.7,0.9c7-1,11-5.8,12-7.1
		c54.6-76,109.3-151.9,163.9-227.9c1.5-2.1,4.6-7.1,5.1-14.2c0.6-8.6-3.1-14.8-4.4-16.9c-54.9-74.7-109.7-149.3-164.6-224
		c-0.5-0.8-4.6-6.5-12-7.1C168.7,7,164.9,9.5,163.7,10.3z"/>
</g>
</svg>
