<svg xmlns="http://www.w3.org/2000/svg" xmlns:xlink="http://www.w3.org/1999/xlink" width="54.877" height="81.179" viewBox="0 0 54.877 81.179">
  <defs>
    <linearGradient id="linear-gradient" x1="-3.853" y1="5.691" x2="2.031" y2="-1.326" gradientUnits="objectBoundingBox">
      <stop offset="0" stop-color="#00868d"/>
      <stop offset="0.09" stop-color="#00938d"/>
      <stop offset="0.283" stop-color="#00ab8d"/>
      <stop offset="0.488" stop-color="#00bb8d"/>
      <stop offset="0.715" stop-color="#00c58d"/>
      <stop offset="1" stop-color="#00c98d"/>
    </linearGradient>
    <linearGradient id="linear-gradient-2" x1="-2.417" y1="3.979" x2="3.466" y2="-3.038" xlink:href="#linear-gradient"/>
    <linearGradient id="linear-gradient-3" x1="-7.909" y1="10.528" x2="4.068" y2="-3.755" xlink:href="#linear-gradient"/>
    <linearGradient id="linear-gradient-4" x1="-6.991" y1="9.46" x2="4.896" y2="-4.755" xlink:href="#linear-gradient"/>
    <linearGradient id="linear-gradient-5" x1="0.001" y1="0.903" x2="0.734" y2="0.311" xlink:href="#linear-gradient"/>
  </defs>
  <g id="Grupo_125" data-name="Grupo 125" transform="translate(1442.877 -11.782)">
    <g id="Grupo_124" data-name="Grupo 124">
      <g id="Grupo_123" data-name="Grupo 123">
        <g id="Grupo_122" data-name="Grupo 122">
          <g id="Grupo_120" data-name="Grupo 120">
            <path id="Trazado_125" data-name="Trazado 125" d="M-1399.414,57.538a3.42,3.42,0,0,0-3.424,3.419,3.423,3.423,0,0,0,3.42,3.425,3.422,3.422,0,0,0,3.424-3.42,3.42,3.42,0,0,0-1-2.422A3.307,3.307,0,0,0-1399.414,57.538Z" fill="url(#linear-gradient)"/>
            <path id="Trazado_126" data-name="Trazado 126" d="M-1423.214,57.538a3.422,3.422,0,0,0-3.425,3.42,3.422,3.422,0,0,0,3.42,3.424,3.423,3.423,0,0,0,3.425-3.42,3.423,3.423,0,0,0-1-2.422A3.3,3.3,0,0,0-1423.214,57.538Z" fill="url(#linear-gradient-2)"/>
          </g>
          <g id="Grupo_121" data-name="Grupo 121">
            <path id="Trazado_127" data-name="Trazado 127" d="M-1417.885,50.234a1.68,1.68,0,0,0,1.672-1.689,1.681,1.681,0,0,0-1.689-1.673,1.682,1.682,0,0,0-1.673,1.69,1.684,1.684,0,0,0,.491,1.178A1.611,1.611,0,0,0-1417.885,50.234Z" fill="url(#linear-gradient-3)"/>
            <path id="Trazado_128" data-name="Trazado 128" d="M-1417.885,51.6a3.074,3.074,0,0,0,3.08-3.069,3.074,3.074,0,0,0-3.069-3.08,3.074,3.074,0,0,0-3.08,3.069,3.073,3.073,0,0,0,.9,2.18A2.97,2.97,0,0,0-1417.885,51.6Zm-1.448-4.5a2.059,2.059,0,0,1,2.911-.023,2.059,2.059,0,0,1,.023,2.911,2.059,2.059,0,0,1-2.911.023,2.061,2.061,0,0,1-.614-1.464,1.98,1.98,0,0,1,.591-1.447Z" fill="#fff"/>
            <path id="Trazado_129" data-name="Trazado 129" d="M-1424.927,50.217a1.681,1.681,0,0,0,1.689-1.672V48.5a1.693,1.693,0,0,0-1.729-1.657,1.692,1.692,0,0,0-1.16.494,1.688,1.688,0,0,0-.009,2.386,1.687,1.687,0,0,0,1.209.5Z" fill="url(#linear-gradient-4)"/>
            <path id="Trazado_130" data-name="Trazado 130" d="M-1424.927,51.6a1.942,1.942,0,0,0,1.72-.854l.319-.461v.561a1.937,1.937,0,0,1-.646,1.439,1.964,1.964,0,0,1-1.393.6,2.047,2.047,0,0,1-1.83-.93.443.443,0,0,0-.383-.236.638.638,0,0,0-.212.04l-.02.007a.464.464,0,0,0-.306.316.5.5,0,0,0-.031.172.478.478,0,0,0,.085.266,2.964,2.964,0,0,0,2.7,1.4,2.981,2.981,0,0,0,2.1-.9,2.936,2.936,0,0,0,.965-2.172V48.517a3.067,3.067,0,0,0-3.08-3.054,3.068,3.068,0,0,0-3.054,3.081,3.067,3.067,0,0,0,3.065,3.053Zm-1.448-4.51a2.042,2.042,0,0,1,2.888,0,2.044,2.044,0,0,1,.6,1.407v.036a2.039,2.039,0,0,1-2.044,2.034,2.04,2.04,0,0,1-2.034-2.045A2.039,2.039,0,0,1-1426.375,47.087Z" fill="#fff"/>
            <path id="Trazado_131" data-name="Trazado 131" d="M-1395.428,36.291v-7.12c0-9.589-8.937-17.389-19.923-17.389s-19.923,7.8-19.923,17.389a1.311,1.311,0,0,0,1.31,1.311,1.311,1.311,0,0,0,1.311-1.311c0-8.143,7.762-14.768,17.3-14.768s17.3,6.625,17.3,14.768v6.991h-35.89a8.938,8.938,0,0,0-8.938,8.937V68.906a8.938,8.938,0,0,0,8.477,8.926V92.961l12.253-15.118h25.21A8.937,8.937,0,0,0-1388,68.906V45.1A8.938,8.938,0,0,0-1395.428,36.291Zm-24.873,9.821a3.41,3.41,0,0,1,4.823.008,3.41,3.41,0,0,1-.008,4.823,3.41,3.41,0,0,1-4.823-.008,3.41,3.41,0,0,1-.995-2.407,3.307,3.307,0,0,1,1-2.416Zm-7.042,0a3.418,3.418,0,0,1,4.835,0,3.416,3.416,0,0,1,1,2.4v2.326a3.27,3.27,0,0,1-1.073,2.424,3.316,3.316,0,0,1-2.346,1,3.332,3.332,0,0,1-2.991-1.556.83.83,0,0,1-.141-.455.857.857,0,0,1,.05-.283.806.806,0,0,1,.523-.535l.02-.007a.973.973,0,0,1,.326-.059.793.793,0,0,1,.674.392,1.7,1.7,0,0,0,1.539.774,1.607,1.607,0,0,0,1.151-.5,1.747,1.747,0,0,0,.432-.615,2.376,2.376,0,0,1-1.583.532,3.416,3.416,0,0,1-3.419-3.414,3.416,3.416,0,0,1,1-2.421Zm-2.156,5.907a1.235,1.235,0,0,1-1.219,1.251h-.62a1.95,1.95,0,0,0-1.436.589,1.724,1.724,0,0,0-.589,1.136h2.614a1.215,1.215,0,0,1,.889.372,1.2,1.2,0,0,1,.361.878v.021a1.228,1.228,0,0,1-.361.889,1.215,1.215,0,0,1-.889.372h-2.614v8.112a1.16,1.16,0,0,1-.372.878,1.2,1.2,0,0,1-.878.372h-.031a1.2,1.2,0,0,1-.879-.372,1.164,1.164,0,0,1-.372-.878V55.295a4.469,4.469,0,0,1,1.333-3.213,4.391,4.391,0,0,1,3.224-1.333h.589a1.234,1.234,0,0,1,1.25,1.219.164.164,0,0,1,0,.031Zm10.49,13.123a5.947,5.947,0,0,1-8.411.019,5.948,5.948,0,0,1-.019-8.411l.019-.019a5.948,5.948,0,0,1,8.411-.019,5.947,5.947,0,0,1,.019,8.411Zm12.691.5a1.27,1.27,0,0,1-1.25,1.25h-.021a1.211,1.211,0,0,1-.889-.372,1.157,1.157,0,0,1-.372-.878V59.986a2.463,2.463,0,0,0-2.462-2.466,2.464,2.464,0,0,0-2.466,2.462v5.657a1.16,1.16,0,0,1-.372.878,1.2,1.2,0,0,1-.879.372h-.031a1.2,1.2,0,0,1-.878-.372,1.16,1.16,0,0,1-.372-.878V59.986a5,5,0,0,1,5-5,5,5,0,0,1,5,5Zm11.11-.5a5.947,5.947,0,0,1-8.411,0,5.947,5.947,0,0,1,0-8.411,5.949,5.949,0,0,1,8.411,0A5.949,5.949,0,0,1-1395.208,65.142Z" fill="url(#linear-gradient-5)"/>
          </g>
        </g>
      </g>
    </g>
  </g>
</svg>
