<svg xmlns="http://www.w3.org/2000/svg" width="147.74" height="43.775" viewBox="0 0 147.74 43.775">
  <g id="Grupo_721" data-name="Grupo 721" transform="translate(-404.339 -579.635)">
    <path id="Trazado_1587" data-name="Trazado 1587" d="M546.607,623.41h-136.8a5.418,5.418,0,0,1-5.472-5.472V585.107a5.419,5.419,0,0,1,5.472-5.472h136.8a5.419,5.419,0,0,1,5.472,5.472v32.831A5.418,5.418,0,0,1,546.607,623.41Z"/>
    <path id="Trazado_1588" data-name="Trazado 1588" d="M546.607,580.511a4.624,4.624,0,0,1,4.6,4.6v32.831a4.625,4.625,0,0,1-4.6,4.6h-136.8a4.625,4.625,0,0,1-4.6-4.6V585.107a4.624,4.624,0,0,1,4.6-4.6h136.8m0-.876h-136.8a5.487,5.487,0,0,0-5.472,5.472v32.831a5.418,5.418,0,0,0,5.472,5.472h136.8a5.418,5.418,0,0,0,5.472-5.472V585.107A5.487,5.487,0,0,0,546.607,579.635Z" fill="#8e8e8e"/>
    <g id="Grupo_720" data-name="Grupo 720">
      <g id="Grupo_719" data-name="Grupo 719">
        <path id="Trazado_1589" data-name="Trazado 1589" d="M428.348,588.611a12.661,12.661,0,0,0-1.348.072,12.019,12.019,0,0,0-1.216.194l-.232.051a12.564,12.564,0,0,0-6.2,3.47c-.157.161-.311.326-.461.5a12.575,12.575,0,0,0,18.446,17.078c.158-.161.311-.326.461-.5a12.574,12.574,0,0,0-9.454-20.865Zm-8.433,4.415c.066-.068.135-.134.2-.2s.156-.154.235-.228.143-.128.214-.192.162-.143.245-.212.148-.121.222-.181.168-.134.254-.2.154-.113.232-.168.174-.126.262-.183.16-.106.24-.158.18-.114.271-.167l.247-.145c.093-.052.186-.1.28-.154s.167-.089.251-.131.192-.1.289-.141.171-.079.258-.117l.3-.126c.086-.036.173-.07.26-.1.1-.038.2-.074.307-.111s.175-.061.264-.09c.105-.033.21-.064.315-.095.089-.025.176-.052.265-.076l.1-.024a10.4,10.4,0,0,0-2.679,4.35,14.067,14.067,0,0,1-2.872-1.106C419.891,593.054,419.9,593.039,419.915,593.026Zm-.6.675a14.529,14.529,0,0,0,3.181,1.266,21.76,21.76,0,0,0-.846,5.8h-5.026A11.714,11.714,0,0,1,419.312,593.7Zm0,14.969a11.714,11.714,0,0,1-2.691-7.065h5.026a21.759,21.759,0,0,0,.846,5.8A14.532,14.532,0,0,0,419.312,608.67Zm6.012,3.854c-.085-.021-.173-.049-.26-.074-.106-.031-.212-.062-.317-.1-.088-.029-.176-.059-.263-.09-.1-.036-.206-.072-.308-.111-.087-.033-.173-.068-.259-.1l-.3-.126c-.086-.038-.171-.077-.255-.116l-.294-.142c-.084-.042-.167-.084-.251-.13s-.189-.1-.283-.156-.163-.094-.244-.143-.183-.112-.273-.171-.16-.1-.238-.155-.178-.123-.265-.186-.154-.11-.229-.167-.172-.133-.257-.2-.148-.118-.22-.179-.165-.142-.246-.214-.143-.126-.213-.19-.157-.152-.235-.229-.137-.133-.2-.2l-.036-.039a14.129,14.129,0,0,1,2.872-1.106,10.4,10.4,0,0,0,2.679,4.35C425.392,612.541,425.358,612.534,425.324,612.524Zm2.6.365c-1.794-.255-3.366-2.127-4.355-4.891a21.271,21.271,0,0,1,4.355-.513v5.4Zm0-6.242a22.014,22.014,0,0,0-4.618.551,20.971,20.971,0,0,1-.826-5.593h5.444v5.042Zm0-5.881h-5.444a20.971,20.971,0,0,1,.826-5.593,22.014,22.014,0,0,0,4.618.551Zm0-5.88a21.271,21.271,0,0,1-4.355-.513c.989-2.764,2.561-4.636,4.355-4.891v5.4Zm9.455-1.185a11.714,11.714,0,0,1,2.691,7.065h-5.026a21.762,21.762,0,0,0-.846-5.8A14.53,14.53,0,0,0,437.384,593.7Zm-6.015-3.855c.088.022.176.05.263.075.106.031.212.062.317.1.089.029.176.059.263.09.1.036.206.072.308.111s.173.068.259.1l.3.126c.086.038.171.076.255.116s.195.093.294.142.167.084.251.13.189.1.283.156.163.094.244.143.183.112.274.171.159.1.237.155.177.122.265.185.154.111.23.168.171.132.256.2.148.118.22.179.165.142.246.214.143.126.213.19.158.153.236.229.136.133.2.2l.036.039a14.068,14.068,0,0,1-2.872,1.106,10.4,10.4,0,0,0-2.682-4.35Zm-2.6-.364c1.794.255,3.366,2.127,4.355,4.891a21.34,21.34,0,0,1-4.355.513v-5.4Zm0,6.242a22.031,22.031,0,0,0,4.619-.551,20.97,20.97,0,0,1,.825,5.593h-5.444Zm0,5.881h5.444a20.97,20.97,0,0,1-.825,5.593h0a22.031,22.031,0,0,0-4.619-.551Zm0,11.284v-5.4a21.271,21.271,0,0,1,4.355.513C432.133,610.762,430.561,612.634,428.767,612.889Zm8.014-3.544c-.066.068-.134.134-.2.2s-.156.155-.236.229-.141.126-.212.191-.163.144-.246.214-.148.12-.222.179-.168.135-.254.2-.154.113-.232.168-.174.126-.262.183-.16.106-.24.157-.18.114-.271.168-.164.1-.247.144-.186.1-.28.155l-.251.131c-.1.048-.192.095-.289.14s-.171.08-.257.118l-.3.125c-.087.036-.174.071-.261.1s-.2.075-.308.111c-.087.031-.174.061-.263.09-.1.034-.209.065-.316.095-.088.026-.176.052-.264.076l-.1.025a10.407,10.407,0,0,0,2.679-4.35,14.065,14.065,0,0,1,2.872,1.1Zm.6-.675A14.533,14.533,0,0,0,434.2,607.4a21.761,21.761,0,0,0,.846-5.8h5.026A11.714,11.714,0,0,1,437.384,608.67Z" fill="#fff"/>
      </g>
    </g>
    <text id="USE_IN_YOUR" data-name="USE IN YOUR" transform="translate(450.327 595.71)" fill="#fff" font-size="8.575" font-family="SegoeUI, Segoe UI"><tspan x="0" y="0">USE IN YOUR</tspan></text>
    <text id="Web_Browser" data-name="Web Browser" transform="translate(450.327 611.189)" fill="#fff" font-size="14.304" font-family="SegoeUI, Segoe UI"><tspan x="0" y="0">Web Browser</tspan></text>
  </g>
</svg>
